<mxfile host="Electron" modified="2024-03-13T13:29:00.507Z" agent="Mozilla/5.0 (Windows NT 10.0; Win64; x64) AppleWebKit/537.36 (KHTML, like Gecko) draw.io/23.1.5 Chrome/120.0.6099.109 Electron/28.1.0 Safari/537.36" etag="Yl6vMHKEOTziTm6SfBU6" version="23.1.5" type="device" pages="6">
  <diagram name="Use-Case" id="mpCG4nqABnEXAu5Zk4kd">
    <mxGraphModel dx="521" dy="661" grid="1" gridSize="10" guides="1" tooltips="1" connect="1" arrows="1" fold="1" page="1" pageScale="1" pageWidth="827" pageHeight="1169" math="0" shadow="0">
      <root>
        <mxCell id="0" />
        <mxCell id="1" parent="0" />
        <mxCell id="K4KzQawo4H-wHgP9eDoL-21" style="edgeStyle=orthogonalEdgeStyle;rounded=0;orthogonalLoop=1;jettySize=auto;html=1;exitX=0;exitY=0.3333333333333333;exitDx=0;exitDy=0;exitPerimeter=0;" parent="1" source="K4KzQawo4H-wHgP9eDoL-1" target="K4KzQawo4H-wHgP9eDoL-9" edge="1">
          <mxGeometry relative="1" as="geometry" />
        </mxCell>
        <mxCell id="K4KzQawo4H-wHgP9eDoL-23" style="edgeStyle=none;rounded=0;orthogonalLoop=1;jettySize=auto;html=1;entryX=0;entryY=0.5;entryDx=0;entryDy=0;" parent="1" source="K4KzQawo4H-wHgP9eDoL-1" target="K4KzQawo4H-wHgP9eDoL-11" edge="1">
          <mxGeometry relative="1" as="geometry" />
        </mxCell>
        <mxCell id="K4KzQawo4H-wHgP9eDoL-1" value="Зритель" style="shape=umlActor;verticalLabelPosition=bottom;verticalAlign=top;html=1;outlineConnect=0;" parent="1" vertex="1">
          <mxGeometry x="130" y="330" width="30" height="60" as="geometry" />
        </mxCell>
        <mxCell id="kuuQAK2XYi9EPz3nlBST-2" style="rounded=0;orthogonalLoop=1;jettySize=auto;html=1;entryX=0;entryY=0.5;entryDx=0;entryDy=0;exitX=0;exitY=0.5;exitDx=0;exitDy=0;exitPerimeter=0;" parent="1" source="l2M_bS8Vn7nBdv0yUaFX-5" target="kuuQAK2XYi9EPz3nlBST-1" edge="1">
          <mxGeometry relative="1" as="geometry">
            <mxPoint x="480" y="330" as="sourcePoint" />
          </mxGeometry>
        </mxCell>
        <mxCell id="Hfbe7kYHz9So4Lun49vC-1" style="rounded=0;orthogonalLoop=1;jettySize=auto;html=1;exitX=0;exitY=0.5;exitDx=0;exitDy=0;exitPerimeter=0;" parent="1" source="l2M_bS8Vn7nBdv0yUaFX-5" target="603tI4qjoMjToH0NtTQN-1" edge="1">
          <mxGeometry relative="1" as="geometry">
            <mxPoint x="490" y="400" as="sourcePoint" />
          </mxGeometry>
        </mxCell>
        <mxCell id="K4KzQawo4H-wHgP9eDoL-2" value="Судья&lt;div&gt;&lt;br/&gt;&lt;/div&gt;" style="shape=umlActor;verticalLabelPosition=bottom;verticalAlign=top;html=1;outlineConnect=0;" parent="1" vertex="1">
          <mxGeometry x="456" y="274" width="30" height="60" as="geometry" />
        </mxCell>
        <mxCell id="B7k11E6phqdg2jOePDRE-4" style="edgeStyle=none;rounded=0;orthogonalLoop=1;jettySize=auto;html=1;exitX=0;exitY=0.5;exitDx=0;exitDy=0;exitPerimeter=0;entryX=0.047;entryY=0.29;entryDx=0;entryDy=0;entryPerimeter=0;" parent="1" edge="1" target="pDM_tg9ciF0muImz57eZ-1" source="l2M_bS8Vn7nBdv0yUaFX-5">
          <mxGeometry relative="1" as="geometry">
            <mxPoint x="490" y="405" as="sourcePoint" />
            <mxPoint x="580" y="504" as="targetPoint" />
          </mxGeometry>
        </mxCell>
        <mxCell id="K4KzQawo4H-wHgP9eDoL-9" value="Вход без авторизации" style="ellipse;whiteSpace=wrap;html=1;" parent="1" vertex="1">
          <mxGeometry y="325" width="100" height="50" as="geometry" />
        </mxCell>
        <mxCell id="K4KzQawo4H-wHgP9eDoL-11" value="Просмотр рейтинга" style="ellipse;whiteSpace=wrap;html=1;" parent="1" vertex="1">
          <mxGeometry x="210" y="267" width="170" height="80" as="geometry" />
        </mxCell>
        <mxCell id="K4KzQawo4H-wHgP9eDoL-13" value="Просмотр информации о протестах" style="ellipse;whiteSpace=wrap;html=1;" parent="1" vertex="1">
          <mxGeometry x="210" y="361" width="170" height="80" as="geometry" />
        </mxCell>
        <mxCell id="K4KzQawo4H-wHgP9eDoL-14" value="Авторизация / Вход с авторизацией" style="ellipse;whiteSpace=wrap;html=1;" parent="1" vertex="1">
          <mxGeometry x="612" y="383" width="160" height="47" as="geometry" />
        </mxCell>
        <mxCell id="K4KzQawo4H-wHgP9eDoL-15" value="Создание / редактирование / удаление гонки" style="ellipse;whiteSpace=wrap;html=1;" parent="1" vertex="1">
          <mxGeometry x="642" y="295" width="160" height="80" as="geometry" />
        </mxCell>
        <mxCell id="K4KzQawo4H-wHgP9eDoL-18" value="Создание / удаление / редактирование протеста" style="ellipse;whiteSpace=wrap;html=1;" parent="1" vertex="1">
          <mxGeometry x="612" y="210" width="155" height="80" as="geometry" />
        </mxCell>
        <mxCell id="K4KzQawo4H-wHgP9eDoL-25" style="edgeStyle=none;rounded=0;orthogonalLoop=1;jettySize=auto;html=1;entryX=0.003;entryY=0.581;entryDx=0;entryDy=0;entryPerimeter=0;exitX=1;exitY=0.3333333333333333;exitDx=0;exitDy=0;exitPerimeter=0;" parent="1" source="K4KzQawo4H-wHgP9eDoL-1" target="K4KzQawo4H-wHgP9eDoL-13" edge="1">
          <mxGeometry relative="1" as="geometry">
            <mxPoint x="170" y="370" as="sourcePoint" />
          </mxGeometry>
        </mxCell>
        <mxCell id="K4KzQawo4H-wHgP9eDoL-32" style="edgeStyle=none;rounded=0;orthogonalLoop=1;jettySize=auto;html=1;entryX=1;entryY=0.5;entryDx=0;entryDy=0;exitX=0;exitY=0.5;exitDx=0;exitDy=0;exitPerimeter=0;" parent="1" source="l2M_bS8Vn7nBdv0yUaFX-4" target="K4KzQawo4H-wHgP9eDoL-11" edge="1">
          <mxGeometry relative="1" as="geometry">
            <mxPoint x="445" y="350.0344827586207" as="sourcePoint" />
          </mxGeometry>
        </mxCell>
        <mxCell id="K4KzQawo4H-wHgP9eDoL-34" style="edgeStyle=none;rounded=0;orthogonalLoop=1;jettySize=auto;html=1;entryX=1;entryY=0.5;entryDx=0;entryDy=0;exitX=0;exitY=0.5;exitDx=0;exitDy=0;exitPerimeter=0;" parent="1" source="l2M_bS8Vn7nBdv0yUaFX-4" target="K4KzQawo4H-wHgP9eDoL-13" edge="1">
          <mxGeometry relative="1" as="geometry">
            <mxPoint x="445" y="359.7586206896551" as="sourcePoint" />
          </mxGeometry>
        </mxCell>
        <mxCell id="Ystcl6tky52elAHk9JXu-1" value="Создание / удаление / редактирование общего рейтинга" style="ellipse;whiteSpace=wrap;html=1;" parent="1" vertex="1">
          <mxGeometry x="472.5" y="50" width="155" height="80" as="geometry" />
        </mxCell>
        <mxCell id="pDM_tg9ciF0muImz57eZ-1" value="Создание / редактирование / удаление результатов экипажа в гонке" style="ellipse;whiteSpace=wrap;html=1;" parent="1" vertex="1">
          <mxGeometry x="580" y="440" width="180" height="80" as="geometry" />
        </mxCell>
        <mxCell id="603tI4qjoMjToH0NtTQN-1" value="Создание / редактирование / удаление экипажа яхты" style="ellipse;whiteSpace=wrap;html=1;" parent="1" vertex="1">
          <mxGeometry x="470" y="511" width="160" height="80" as="geometry" />
        </mxCell>
        <mxCell id="B7k11E6phqdg2jOePDRE-8" style="edgeStyle=none;rounded=0;orthogonalLoop=1;jettySize=auto;html=1;entryX=0;entryY=0.5;entryDx=0;entryDy=0;exitX=0;exitY=0.5;exitDx=0;exitDy=0;exitPerimeter=0;" parent="1" source="l2M_bS8Vn7nBdv0yUaFX-5" target="K4KzQawo4H-wHgP9eDoL-18" edge="1">
          <mxGeometry relative="1" as="geometry">
            <mxPoint x="517.5" y="341.875" as="sourcePoint" />
          </mxGeometry>
        </mxCell>
        <mxCell id="B7k11E6phqdg2jOePDRE-9" style="edgeStyle=none;rounded=0;orthogonalLoop=1;jettySize=auto;html=1;entryX=0;entryY=0.5;entryDx=0;entryDy=0;exitX=0;exitY=0.5;exitDx=0;exitDy=0;exitPerimeter=0;" parent="1" source="l2M_bS8Vn7nBdv0yUaFX-5" target="K4KzQawo4H-wHgP9eDoL-15" edge="1">
          <mxGeometry relative="1" as="geometry">
            <mxPoint x="517.5" y="352.5" as="sourcePoint" />
          </mxGeometry>
        </mxCell>
        <mxCell id="B7k11E6phqdg2jOePDRE-10" style="edgeStyle=none;rounded=0;orthogonalLoop=1;jettySize=auto;html=1;entryX=0;entryY=0.5;entryDx=0;entryDy=0;exitX=0;exitY=0.5;exitDx=0;exitDy=0;exitPerimeter=0;" parent="1" source="l2M_bS8Vn7nBdv0yUaFX-5" target="K4KzQawo4H-wHgP9eDoL-14" edge="1">
          <mxGeometry relative="1" as="geometry">
            <mxPoint x="517.5" y="362.2857142857142" as="sourcePoint" />
          </mxGeometry>
        </mxCell>
        <mxCell id="kuuQAK2XYi9EPz3nlBST-1" value="Добавление / удаление / редактирование участника" style="ellipse;whiteSpace=wrap;html=1;" parent="1" vertex="1">
          <mxGeometry x="568.5" y="120" width="161.5" height="80" as="geometry" />
        </mxCell>
        <mxCell id="l2M_bS8Vn7nBdv0yUaFX-1" value="Главный &lt;br&gt;судья&lt;div&gt;&lt;br&gt;&lt;/div&gt;" style="shape=umlActor;verticalLabelPosition=bottom;verticalAlign=top;html=1;outlineConnect=0;" parent="1" vertex="1">
          <mxGeometry x="456" y="366" width="30" height="60" as="geometry" />
        </mxCell>
        <mxCell id="l2M_bS8Vn7nBdv0yUaFX-2" value="Создание / удаление / редактирование профилей судей" style="ellipse;whiteSpace=wrap;html=1;" parent="1" vertex="1">
          <mxGeometry x="270" y="487" width="155" height="80" as="geometry" />
        </mxCell>
        <mxCell id="l2M_bS8Vn7nBdv0yUaFX-3" style="rounded=0;orthogonalLoop=1;jettySize=auto;html=1;entryX=0.578;entryY=0.03;entryDx=0;entryDy=0;entryPerimeter=0;" parent="1" source="l2M_bS8Vn7nBdv0yUaFX-1" target="l2M_bS8Vn7nBdv0yUaFX-2" edge="1">
          <mxGeometry relative="1" as="geometry" />
        </mxCell>
        <mxCell id="l2M_bS8Vn7nBdv0yUaFX-4" value="" style="strokeWidth=2;html=1;shape=mxgraph.flowchart.annotation_1;align=left;pointerEvents=1;" parent="1" vertex="1">
          <mxGeometry x="445" y="290" width="10" height="100" as="geometry" />
        </mxCell>
        <mxCell id="l2M_bS8Vn7nBdv0yUaFX-6" style="rounded=0;orthogonalLoop=1;jettySize=auto;html=1;" parent="1" source="l2M_bS8Vn7nBdv0yUaFX-5" target="Ystcl6tky52elAHk9JXu-1" edge="1">
          <mxGeometry relative="1" as="geometry" />
        </mxCell>
        <mxCell id="l2M_bS8Vn7nBdv0yUaFX-5" value="" style="strokeWidth=2;html=1;shape=mxgraph.flowchart.annotation_1;align=left;pointerEvents=1;rotation=-180;" parent="1" vertex="1">
          <mxGeometry x="486" y="290" width="10" height="100" as="geometry" />
        </mxCell>
      </root>
    </mxGraphModel>
  </diagram>
  <diagram id="Fl9EhhzhbdVhB_F1dUq7" name="ER">
    <mxGraphModel dx="2349" dy="881" grid="1" gridSize="10" guides="1" tooltips="1" connect="1" arrows="1" fold="1" page="1" pageScale="1" pageWidth="827" pageHeight="1169" math="0" shadow="0">
      <root>
        <mxCell id="0" />
        <mxCell id="1" parent="0" />
        <mxCell id="Zi5NuFt4ENAQGyKdmMdX-178" style="edgeStyle=orthogonalEdgeStyle;rounded=0;orthogonalLoop=1;jettySize=auto;html=1;entryX=0;entryY=0.5;entryDx=0;entryDy=0;" parent="1" source="Zi5NuFt4ENAQGyKdmMdX-1" target="Zi5NuFt4ENAQGyKdmMdX-111" edge="1">
          <mxGeometry relative="1" as="geometry">
            <mxPoint x="-177" y="632" as="targetPoint" />
          </mxGeometry>
        </mxCell>
        <mxCell id="Zi5NuFt4ENAQGyKdmMdX-181" style="edgeStyle=orthogonalEdgeStyle;rounded=0;orthogonalLoop=1;jettySize=auto;html=1;entryX=0;entryY=0.5;entryDx=0;entryDy=0;" parent="1" source="Zi5NuFt4ENAQGyKdmMdX-1" target="Zi5NuFt4ENAQGyKdmMdX-179" edge="1">
          <mxGeometry relative="1" as="geometry" />
        </mxCell>
        <mxCell id="Zi5NuFt4ENAQGyKdmMdX-182" style="edgeStyle=orthogonalEdgeStyle;rounded=0;orthogonalLoop=1;jettySize=auto;html=1;entryX=0;entryY=0.5;entryDx=0;entryDy=0;" parent="1" source="Zi5NuFt4ENAQGyKdmMdX-1" target="Zi5NuFt4ENAQGyKdmMdX-180" edge="1">
          <mxGeometry relative="1" as="geometry" />
        </mxCell>
        <mxCell id="GdoC4uo1tYWlQhzH0mUr-5" style="edgeStyle=orthogonalEdgeStyle;rounded=0;orthogonalLoop=1;jettySize=auto;html=1;entryX=0;entryY=0.5;entryDx=0;entryDy=0;" parent="1" source="Zi5NuFt4ENAQGyKdmMdX-1" target="GdoC4uo1tYWlQhzH0mUr-3" edge="1">
          <mxGeometry relative="1" as="geometry" />
        </mxCell>
        <mxCell id="GdoC4uo1tYWlQhzH0mUr-6" style="edgeStyle=orthogonalEdgeStyle;rounded=0;orthogonalLoop=1;jettySize=auto;html=1;entryX=0;entryY=0.5;entryDx=0;entryDy=0;" parent="1" source="Zi5NuFt4ENAQGyKdmMdX-1" target="GdoC4uo1tYWlQhzH0mUr-4" edge="1">
          <mxGeometry relative="1" as="geometry" />
        </mxCell>
        <mxCell id="pUg7ICbPCyXO2Q1xaNbC-2" style="edgeStyle=orthogonalEdgeStyle;rounded=0;orthogonalLoop=1;jettySize=auto;html=1;entryX=0;entryY=0.5;entryDx=0;entryDy=0;" parent="1" source="Zi5NuFt4ENAQGyKdmMdX-1" target="pUg7ICbPCyXO2Q1xaNbC-1" edge="1">
          <mxGeometry relative="1" as="geometry" />
        </mxCell>
        <mxCell id="Zi5NuFt4ENAQGyKdmMdX-1" value="Судья" style="rounded=0;whiteSpace=wrap;html=1;" parent="1" vertex="1">
          <mxGeometry x="-247" y="562" width="120" height="60" as="geometry" />
        </mxCell>
        <mxCell id="Zi5NuFt4ENAQGyKdmMdX-102" style="edgeStyle=orthogonalEdgeStyle;rounded=0;orthogonalLoop=1;jettySize=auto;html=1;entryX=0;entryY=0.5;entryDx=0;entryDy=0;" parent="1" source="Zi5NuFt4ENAQGyKdmMdX-3" target="Zi5NuFt4ENAQGyKdmMdX-12" edge="1">
          <mxGeometry relative="1" as="geometry" />
        </mxCell>
        <mxCell id="_1F1drqvbYiEeVU9XwEX-2" style="edgeStyle=orthogonalEdgeStyle;rounded=0;orthogonalLoop=1;jettySize=auto;html=1;entryX=0;entryY=0.5;entryDx=0;entryDy=0;" parent="1" source="Zi5NuFt4ENAQGyKdmMdX-3" target="_1F1drqvbYiEeVU9XwEX-1" edge="1">
          <mxGeometry relative="1" as="geometry" />
        </mxCell>
        <mxCell id="pUg7ICbPCyXO2Q1xaNbC-8" style="edgeStyle=orthogonalEdgeStyle;rounded=0;orthogonalLoop=1;jettySize=auto;html=1;entryX=0;entryY=0.5;entryDx=0;entryDy=0;" parent="1" source="Zi5NuFt4ENAQGyKdmMdX-3" target="pUg7ICbPCyXO2Q1xaNbC-3" edge="1">
          <mxGeometry relative="1" as="geometry" />
        </mxCell>
        <mxCell id="pUg7ICbPCyXO2Q1xaNbC-9" style="edgeStyle=orthogonalEdgeStyle;rounded=0;orthogonalLoop=1;jettySize=auto;html=1;entryX=0;entryY=0.5;entryDx=0;entryDy=0;" parent="1" source="Zi5NuFt4ENAQGyKdmMdX-3" target="pUg7ICbPCyXO2Q1xaNbC-4" edge="1">
          <mxGeometry relative="1" as="geometry" />
        </mxCell>
        <mxCell id="Zi5NuFt4ENAQGyKdmMdX-3" value="Заплыв яхты в гонке" style="rounded=0;whiteSpace=wrap;html=1;" parent="1" vertex="1">
          <mxGeometry x="-1198" y="562" width="120" height="60" as="geometry" />
        </mxCell>
        <mxCell id="GdoC4uo1tYWlQhzH0mUr-11" style="edgeStyle=orthogonalEdgeStyle;rounded=0;orthogonalLoop=1;jettySize=auto;html=1;entryX=1;entryY=0.5;entryDx=0;entryDy=0;" parent="1" source="Zi5NuFt4ENAQGyKdmMdX-6" target="GdoC4uo1tYWlQhzH0mUr-10" edge="1">
          <mxGeometry relative="1" as="geometry" />
        </mxCell>
        <mxCell id="GdoC4uo1tYWlQhzH0mUr-12" style="edgeStyle=orthogonalEdgeStyle;rounded=0;orthogonalLoop=1;jettySize=auto;html=1;entryX=1;entryY=0.5;entryDx=0;entryDy=0;" parent="1" source="Zi5NuFt4ENAQGyKdmMdX-6" target="GdoC4uo1tYWlQhzH0mUr-9" edge="1">
          <mxGeometry relative="1" as="geometry" />
        </mxCell>
        <mxCell id="Z_BileD2JKXDGfaPh2uC-2" style="edgeStyle=orthogonalEdgeStyle;rounded=0;orthogonalLoop=1;jettySize=auto;html=1;entryX=1;entryY=0.5;entryDx=0;entryDy=0;" parent="1" source="Zi5NuFt4ENAQGyKdmMdX-6" target="Z_BileD2JKXDGfaPh2uC-1" edge="1">
          <mxGeometry relative="1" as="geometry" />
        </mxCell>
        <mxCell id="Zi5NuFt4ENAQGyKdmMdX-6" value="Рейтинг" style="rounded=0;whiteSpace=wrap;html=1;" parent="1" vertex="1">
          <mxGeometry x="-587" y="562" width="120" height="60" as="geometry" />
        </mxCell>
        <mxCell id="Zi5NuFt4ENAQGyKdmMdX-108" style="edgeStyle=orthogonalEdgeStyle;rounded=0;orthogonalLoop=1;jettySize=auto;html=1;entryX=1;entryY=0.5;entryDx=0;entryDy=0;" parent="1" source="Zi5NuFt4ENAQGyKdmMdX-7" target="Zi5NuFt4ENAQGyKdmMdX-88" edge="1">
          <mxGeometry relative="1" as="geometry" />
        </mxCell>
        <mxCell id="Zi5NuFt4ENAQGyKdmMdX-110" style="edgeStyle=orthogonalEdgeStyle;rounded=0;orthogonalLoop=1;jettySize=auto;html=1;entryX=1;entryY=0.5;entryDx=0;entryDy=0;" parent="1" source="Zi5NuFt4ENAQGyKdmMdX-7" target="Zi5NuFt4ENAQGyKdmMdX-89" edge="1">
          <mxGeometry relative="1" as="geometry" />
        </mxCell>
        <mxCell id="GdoC4uo1tYWlQhzH0mUr-16" style="edgeStyle=orthogonalEdgeStyle;rounded=0;orthogonalLoop=1;jettySize=auto;html=1;entryX=1;entryY=0.5;entryDx=0;entryDy=0;" parent="1" source="Zi5NuFt4ENAQGyKdmMdX-7" target="Zi5NuFt4ENAQGyKdmMdX-87" edge="1">
          <mxGeometry relative="1" as="geometry" />
        </mxCell>
        <mxCell id="pUg7ICbPCyXO2Q1xaNbC-7" style="edgeStyle=orthogonalEdgeStyle;rounded=0;orthogonalLoop=1;jettySize=auto;html=1;entryX=1;entryY=0.5;entryDx=0;entryDy=0;" parent="1" source="Zi5NuFt4ENAQGyKdmMdX-7" target="pUg7ICbPCyXO2Q1xaNbC-6" edge="1">
          <mxGeometry relative="1" as="geometry" />
        </mxCell>
        <mxCell id="Zi5NuFt4ENAQGyKdmMdX-7" value="Протест" style="rounded=0;whiteSpace=wrap;html=1;" parent="1" vertex="1">
          <mxGeometry x="-876" y="762" width="120" height="60" as="geometry" />
        </mxCell>
        <mxCell id="Zi5NuFt4ENAQGyKdmMdX-144" style="edgeStyle=orthogonalEdgeStyle;rounded=0;orthogonalLoop=1;jettySize=auto;html=1;entryX=1;entryY=0.5;entryDx=0;entryDy=0;" parent="1" source="Zi5NuFt4ENAQGyKdmMdX-11" target="Zi5NuFt4ENAQGyKdmMdX-24" edge="1">
          <mxGeometry relative="1" as="geometry" />
        </mxCell>
        <mxCell id="Zi5NuFt4ENAQGyKdmMdX-145" style="edgeStyle=orthogonalEdgeStyle;rounded=0;orthogonalLoop=1;jettySize=auto;html=1;entryX=1;entryY=0.5;entryDx=0;entryDy=0;" parent="1" source="Zi5NuFt4ENAQGyKdmMdX-11" target="Zi5NuFt4ENAQGyKdmMdX-25" edge="1">
          <mxGeometry relative="1" as="geometry" />
        </mxCell>
        <mxCell id="GdoC4uo1tYWlQhzH0mUr-2" style="edgeStyle=orthogonalEdgeStyle;rounded=0;orthogonalLoop=1;jettySize=auto;html=1;entryX=1;entryY=0.5;entryDx=0;entryDy=0;" parent="1" source="Zi5NuFt4ENAQGyKdmMdX-11" target="GdoC4uo1tYWlQhzH0mUr-1" edge="1">
          <mxGeometry relative="1" as="geometry" />
        </mxCell>
        <mxCell id="Zi5NuFt4ENAQGyKdmMdX-11" value="Гонка" style="rounded=0;whiteSpace=wrap;html=1;" parent="1" vertex="1">
          <mxGeometry x="-877" y="562" width="120" height="60" as="geometry" />
        </mxCell>
        <mxCell id="Zi5NuFt4ENAQGyKdmMdX-12" value="&lt;u&gt;ID &lt;br&gt;Номер на парусе&lt;/u&gt;" style="ellipse;whiteSpace=wrap;html=1;" parent="1" vertex="1">
          <mxGeometry x="-1108" y="492" width="120" height="50" as="geometry" />
        </mxCell>
        <mxCell id="Zi5NuFt4ENAQGyKdmMdX-201" style="edgeStyle=orthogonalEdgeStyle;rounded=0;orthogonalLoop=1;jettySize=auto;html=1;entryX=0;entryY=0.5;entryDx=0;entryDy=0;" parent="1" source="Zi5NuFt4ENAQGyKdmMdX-15" target="Zi5NuFt4ENAQGyKdmMdX-16" edge="1">
          <mxGeometry relative="1" as="geometry" />
        </mxCell>
        <mxCell id="Zi5NuFt4ENAQGyKdmMdX-202" style="edgeStyle=orthogonalEdgeStyle;rounded=0;orthogonalLoop=1;jettySize=auto;html=1;entryX=0;entryY=0.5;entryDx=0;entryDy=0;" parent="1" source="Zi5NuFt4ENAQGyKdmMdX-15" target="Zi5NuFt4ENAQGyKdmMdX-17" edge="1">
          <mxGeometry relative="1" as="geometry" />
        </mxCell>
        <mxCell id="Zi5NuFt4ENAQGyKdmMdX-203" style="edgeStyle=orthogonalEdgeStyle;rounded=0;orthogonalLoop=1;jettySize=auto;html=1;entryX=0;entryY=0.5;entryDx=0;entryDy=0;" parent="1" source="Zi5NuFt4ENAQGyKdmMdX-15" target="Zi5NuFt4ENAQGyKdmMdX-22" edge="1">
          <mxGeometry relative="1" as="geometry" />
        </mxCell>
        <mxCell id="Zi5NuFt4ENAQGyKdmMdX-204" style="edgeStyle=orthogonalEdgeStyle;rounded=0;orthogonalLoop=1;jettySize=auto;html=1;entryX=0;entryY=0.5;entryDx=0;entryDy=0;" parent="1" source="Zi5NuFt4ENAQGyKdmMdX-15" target="Zi5NuFt4ENAQGyKdmMdX-65" edge="1">
          <mxGeometry relative="1" as="geometry" />
        </mxCell>
        <mxCell id="Zi5NuFt4ENAQGyKdmMdX-206" style="edgeStyle=orthogonalEdgeStyle;rounded=0;orthogonalLoop=1;jettySize=auto;html=1;entryX=0;entryY=0.5;entryDx=0;entryDy=0;" parent="1" source="Zi5NuFt4ENAQGyKdmMdX-15" target="Zi5NuFt4ENAQGyKdmMdX-205" edge="1">
          <mxGeometry relative="1" as="geometry" />
        </mxCell>
        <mxCell id="Zi5NuFt4ENAQGyKdmMdX-208" style="edgeStyle=orthogonalEdgeStyle;rounded=0;orthogonalLoop=1;jettySize=auto;html=1;entryX=0;entryY=0.5;entryDx=0;entryDy=0;" parent="1" source="Zi5NuFt4ENAQGyKdmMdX-15" target="Zi5NuFt4ENAQGyKdmMdX-207" edge="1">
          <mxGeometry relative="1" as="geometry" />
        </mxCell>
        <mxCell id="GdoC4uo1tYWlQhzH0mUr-15" style="edgeStyle=orthogonalEdgeStyle;rounded=0;orthogonalLoop=1;jettySize=auto;html=1;entryX=0;entryY=0.5;entryDx=0;entryDy=0;" parent="1" source="Zi5NuFt4ENAQGyKdmMdX-15" target="GdoC4uo1tYWlQhzH0mUr-13" edge="1">
          <mxGeometry relative="1" as="geometry" />
        </mxCell>
        <mxCell id="Zi5NuFt4ENAQGyKdmMdX-15" value="Участник" style="rounded=0;whiteSpace=wrap;html=1;" parent="1" vertex="1">
          <mxGeometry x="-1526" y="562" width="120" height="60" as="geometry" />
        </mxCell>
        <mxCell id="Zi5NuFt4ENAQGyKdmMdX-16" value="&lt;u&gt;ID&lt;/u&gt;" style="ellipse;whiteSpace=wrap;html=1;" parent="1" vertex="1">
          <mxGeometry x="-1439" y="652" width="120" height="40" as="geometry" />
        </mxCell>
        <mxCell id="Zi5NuFt4ENAQGyKdmMdX-17" value="ФИО" style="ellipse;whiteSpace=wrap;html=1;" parent="1" vertex="1">
          <mxGeometry x="-1439" y="712" width="120" height="38" as="geometry" />
        </mxCell>
        <mxCell id="Zi5NuFt4ENAQGyKdmMdX-22" value="Спортивный разряд" style="ellipse;whiteSpace=wrap;html=1;" parent="1" vertex="1">
          <mxGeometry x="-1439" y="762" width="120" height="45" as="geometry" />
        </mxCell>
        <mxCell id="Zi5NuFt4ENAQGyKdmMdX-24" value="&lt;u&gt;ID&lt;/u&gt;" style="ellipse;whiteSpace=wrap;html=1;" parent="1" vertex="1">
          <mxGeometry x="-957" y="497" width="120" height="40" as="geometry" />
        </mxCell>
        <mxCell id="Zi5NuFt4ENAQGyKdmMdX-25" value="Номер" style="ellipse;whiteSpace=wrap;html=1;" parent="1" vertex="1">
          <mxGeometry x="-957" y="441" width="120" height="40" as="geometry" />
        </mxCell>
        <mxCell id="Zi5NuFt4ENAQGyKdmMdX-41" value="Включает в себя" style="rhombus;whiteSpace=wrap;html=1;" parent="1" vertex="1">
          <mxGeometry x="-727" y="552" width="110" height="80" as="geometry" />
        </mxCell>
        <mxCell id="Zi5NuFt4ENAQGyKdmMdX-42" value="" style="endArrow=none;html=1;rounded=0;entryX=0;entryY=0.5;entryDx=0;entryDy=0;exitX=1;exitY=0.5;exitDx=0;exitDy=0;" parent="1" source="Zi5NuFt4ENAQGyKdmMdX-41" target="Zi5NuFt4ENAQGyKdmMdX-6" edge="1">
          <mxGeometry relative="1" as="geometry">
            <mxPoint x="-607" y="592" as="sourcePoint" />
            <mxPoint x="-557" y="532" as="targetPoint" />
          </mxGeometry>
        </mxCell>
        <mxCell id="Zi5NuFt4ENAQGyKdmMdX-43" value="1" style="edgeLabel;html=1;align=center;verticalAlign=middle;resizable=0;points=[];" parent="Zi5NuFt4ENAQGyKdmMdX-42" vertex="1" connectable="0">
          <mxGeometry x="0.12" y="-3" relative="1" as="geometry">
            <mxPoint x="-7" y="-13" as="offset" />
          </mxGeometry>
        </mxCell>
        <mxCell id="Zi5NuFt4ENAQGyKdmMdX-44" value="" style="shape=link;html=1;rounded=0;" parent="1" edge="1">
          <mxGeometry relative="1" as="geometry">
            <mxPoint x="-757" y="591.5" as="sourcePoint" />
            <mxPoint x="-727" y="592" as="targetPoint" />
          </mxGeometry>
        </mxCell>
        <mxCell id="Zi5NuFt4ENAQGyKdmMdX-45" value="N" style="resizable=0;html=1;whiteSpace=wrap;align=right;verticalAlign=bottom;" parent="Zi5NuFt4ENAQGyKdmMdX-44" connectable="0" vertex="1">
          <mxGeometry x="1" relative="1" as="geometry" />
        </mxCell>
        <mxCell id="Zi5NuFt4ENAQGyKdmMdX-47" value="Включает в себя" style="rhombus;whiteSpace=wrap;html=1;" parent="1" vertex="1">
          <mxGeometry x="-1028" y="552" width="110" height="80" as="geometry" />
        </mxCell>
        <mxCell id="Zi5NuFt4ENAQGyKdmMdX-50" value="" style="endArrow=none;html=1;rounded=0;exitX=1;exitY=0.5;exitDx=0;exitDy=0;entryX=0;entryY=0.5;entryDx=0;entryDy=0;" parent="1" source="Zi5NuFt4ENAQGyKdmMdX-47" target="Zi5NuFt4ENAQGyKdmMdX-11" edge="1">
          <mxGeometry relative="1" as="geometry">
            <mxPoint x="-867" y="502" as="sourcePoint" />
            <mxPoint x="-707" y="502" as="targetPoint" />
          </mxGeometry>
        </mxCell>
        <mxCell id="Zi5NuFt4ENAQGyKdmMdX-51" value="1" style="edgeLabel;html=1;align=center;verticalAlign=middle;resizable=0;points=[];" parent="Zi5NuFt4ENAQGyKdmMdX-50" vertex="1" connectable="0">
          <mxGeometry x="0.12" y="1" relative="1" as="geometry">
            <mxPoint x="-4" y="-7" as="offset" />
          </mxGeometry>
        </mxCell>
        <mxCell id="Zi5NuFt4ENAQGyKdmMdX-56" value="" style="shape=link;html=1;rounded=0;exitX=1;exitY=0.5;exitDx=0;exitDy=0;entryX=0;entryY=0.5;entryDx=0;entryDy=0;" parent="1" target="Zi5NuFt4ENAQGyKdmMdX-47" edge="1">
          <mxGeometry relative="1" as="geometry">
            <mxPoint x="-1077" y="592" as="sourcePoint" />
            <mxPoint x="-847" y="502" as="targetPoint" />
          </mxGeometry>
        </mxCell>
        <mxCell id="Zi5NuFt4ENAQGyKdmMdX-57" value="N" style="resizable=0;html=1;whiteSpace=wrap;align=right;verticalAlign=bottom;" parent="Zi5NuFt4ENAQGyKdmMdX-56" connectable="0" vertex="1">
          <mxGeometry x="1" relative="1" as="geometry">
            <mxPoint x="-20" as="offset" />
          </mxGeometry>
        </mxCell>
        <mxCell id="Zi5NuFt4ENAQGyKdmMdX-65" value="Рулевой / не рулевой" style="ellipse;whiteSpace=wrap;html=1;" parent="1" vertex="1">
          <mxGeometry x="-1439" y="939" width="120" height="40" as="geometry" />
        </mxCell>
        <mxCell id="Zi5NuFt4ENAQGyKdmMdX-68" value="Включает в себя" style="rhombus;whiteSpace=wrap;html=1;" parent="1" vertex="1">
          <mxGeometry x="-1363" y="552" width="110" height="80" as="geometry" />
        </mxCell>
        <mxCell id="Zi5NuFt4ENAQGyKdmMdX-73" value="" style="shape=link;html=1;rounded=0;exitX=1;exitY=0.5;exitDx=0;exitDy=0;entryX=0;entryY=0.5;entryDx=0;entryDy=0;" parent="1" source="Zi5NuFt4ENAQGyKdmMdX-15" target="Zi5NuFt4ENAQGyKdmMdX-68" edge="1">
          <mxGeometry relative="1" as="geometry">
            <mxPoint x="-1339" y="632" as="sourcePoint" />
            <mxPoint x="-1379" y="592" as="targetPoint" />
          </mxGeometry>
        </mxCell>
        <mxCell id="Zi5NuFt4ENAQGyKdmMdX-74" value="N" style="resizable=0;html=1;whiteSpace=wrap;align=right;verticalAlign=bottom;" parent="Zi5NuFt4ENAQGyKdmMdX-73" connectable="0" vertex="1">
          <mxGeometry x="1" relative="1" as="geometry">
            <mxPoint x="-7" as="offset" />
          </mxGeometry>
        </mxCell>
        <mxCell id="Zi5NuFt4ENAQGyKdmMdX-76" value="Включает в себя" style="rhombus;whiteSpace=wrap;html=1;" parent="1" vertex="1">
          <mxGeometry x="-872" y="652" width="110" height="80" as="geometry" />
        </mxCell>
        <mxCell id="Zi5NuFt4ENAQGyKdmMdX-77" value="" style="endArrow=none;html=1;rounded=0;exitX=0.5;exitY=1;exitDx=0;exitDy=0;entryX=0.5;entryY=0;entryDx=0;entryDy=0;" parent="1" source="Zi5NuFt4ENAQGyKdmMdX-11" target="Zi5NuFt4ENAQGyKdmMdX-76" edge="1">
          <mxGeometry relative="1" as="geometry">
            <mxPoint x="-947" y="752" as="sourcePoint" />
            <mxPoint x="-787" y="752" as="targetPoint" />
          </mxGeometry>
        </mxCell>
        <mxCell id="Zi5NuFt4ENAQGyKdmMdX-78" value="1" style="resizable=0;html=1;whiteSpace=wrap;align=right;verticalAlign=bottom;" parent="Zi5NuFt4ENAQGyKdmMdX-77" connectable="0" vertex="1">
          <mxGeometry x="1" relative="1" as="geometry" />
        </mxCell>
        <mxCell id="Zi5NuFt4ENAQGyKdmMdX-79" value="" style="shape=link;html=1;rounded=0;exitX=0.5;exitY=1;exitDx=0;exitDy=0;entryX=0.5;entryY=0;entryDx=0;entryDy=0;" parent="1" source="Zi5NuFt4ENAQGyKdmMdX-76" target="Zi5NuFt4ENAQGyKdmMdX-7" edge="1">
          <mxGeometry relative="1" as="geometry">
            <mxPoint x="-947" y="752" as="sourcePoint" />
            <mxPoint x="-787" y="752" as="targetPoint" />
          </mxGeometry>
        </mxCell>
        <mxCell id="Zi5NuFt4ENAQGyKdmMdX-80" value="N" style="resizable=0;html=1;whiteSpace=wrap;align=right;verticalAlign=bottom;" parent="Zi5NuFt4ENAQGyKdmMdX-79" connectable="0" vertex="1">
          <mxGeometry x="1" relative="1" as="geometry">
            <mxPoint x="-6" y="-4" as="offset" />
          </mxGeometry>
        </mxCell>
        <mxCell id="pUg7ICbPCyXO2Q1xaNbC-10" style="edgeStyle=orthogonalEdgeStyle;rounded=0;orthogonalLoop=1;jettySize=auto;html=1;entryX=1;entryY=0.5;entryDx=0;entryDy=0;" parent="1" source="Zi5NuFt4ENAQGyKdmMdX-82" target="pUg7ICbPCyXO2Q1xaNbC-5" edge="1">
          <mxGeometry relative="1" as="geometry" />
        </mxCell>
        <mxCell id="Zi5NuFt4ENAQGyKdmMdX-82" value="Учавствуют" style="rhombus;whiteSpace=wrap;html=1;" parent="1" vertex="1">
          <mxGeometry x="-1037" y="752" width="110" height="80" as="geometry" />
        </mxCell>
        <mxCell id="Zi5NuFt4ENAQGyKdmMdX-85" value="" style="shape=link;html=1;rounded=0;entryX=0;entryY=0.5;entryDx=0;entryDy=0;exitX=0.5;exitY=1;exitDx=0;exitDy=0;" parent="1" source="Zi5NuFt4ENAQGyKdmMdX-3" target="Zi5NuFt4ENAQGyKdmMdX-82" edge="1">
          <mxGeometry relative="1" as="geometry">
            <mxPoint x="-1227" y="752" as="sourcePoint" />
            <mxPoint x="-1067" y="752" as="targetPoint" />
            <Array as="points">
              <mxPoint x="-1140" y="792" />
            </Array>
          </mxGeometry>
        </mxCell>
        <mxCell id="Zi5NuFt4ENAQGyKdmMdX-86" value="N" style="resizable=0;html=1;whiteSpace=wrap;align=right;verticalAlign=bottom;" parent="Zi5NuFt4ENAQGyKdmMdX-85" connectable="0" vertex="1">
          <mxGeometry x="1" relative="1" as="geometry">
            <mxPoint x="-63" as="offset" />
          </mxGeometry>
        </mxCell>
        <mxCell id="Zi5NuFt4ENAQGyKdmMdX-87" value="Номер нарушенного правила" style="ellipse;whiteSpace=wrap;html=1;" parent="1" vertex="1">
          <mxGeometry x="-967" y="897" width="120" height="70" as="geometry" />
        </mxCell>
        <mxCell id="Zi5NuFt4ENAQGyKdmMdX-88" value="&lt;u&gt;ID&lt;/u&gt;" style="ellipse;whiteSpace=wrap;html=1;" parent="1" vertex="1">
          <mxGeometry x="-967" y="842" width="120" height="40" as="geometry" />
        </mxCell>
        <mxCell id="Zi5NuFt4ENAQGyKdmMdX-89" value="Время рассмотрения" style="ellipse;whiteSpace=wrap;html=1;" parent="1" vertex="1">
          <mxGeometry x="-967" y="979" width="120" height="40" as="geometry" />
        </mxCell>
        <mxCell id="Zi5NuFt4ENAQGyKdmMdX-111" value="&lt;u&gt;ID&lt;/u&gt;" style="ellipse;whiteSpace=wrap;html=1;" parent="1" vertex="1">
          <mxGeometry x="-167" y="640" width="120" height="40" as="geometry" />
        </mxCell>
        <mxCell id="Zi5NuFt4ENAQGyKdmMdX-128" value="Создает/редактирует/удаляет" style="rhombus;whiteSpace=wrap;html=1;" parent="1" vertex="1">
          <mxGeometry x="-423" y="752" width="110" height="80" as="geometry" />
        </mxCell>
        <mxCell id="Zi5NuFt4ENAQGyKdmMdX-130" value="Создает/редактирует/удаляет" style="rhombus;whiteSpace=wrap;html=1;" parent="1" vertex="1">
          <mxGeometry x="-423" y="552" width="110" height="80" as="geometry" />
        </mxCell>
        <mxCell id="Zi5NuFt4ENAQGyKdmMdX-131" value="Создает/редактирует/удаляет" style="rhombus;whiteSpace=wrap;html=1;" parent="1" vertex="1">
          <mxGeometry x="-424" y="446" width="110" height="80" as="geometry" />
        </mxCell>
        <mxCell id="Zi5NuFt4ENAQGyKdmMdX-134" value="" style="endArrow=none;html=1;rounded=0;exitX=1;exitY=0.5;exitDx=0;exitDy=0;edgeStyle=orthogonalEdgeStyle;entryX=0;entryY=0.5;entryDx=0;entryDy=0;" parent="1" source="Zi5NuFt4ENAQGyKdmMdX-131" edge="1">
          <mxGeometry relative="1" as="geometry">
            <mxPoint x="-320" y="481" as="sourcePoint" />
            <mxPoint x="-250" y="592" as="targetPoint" />
            <Array as="points">
              <mxPoint x="-280" y="486" />
              <mxPoint x="-280" y="592" />
            </Array>
          </mxGeometry>
        </mxCell>
        <mxCell id="Zi5NuFt4ENAQGyKdmMdX-135" value="1" style="resizable=0;html=1;whiteSpace=wrap;align=right;verticalAlign=bottom;" parent="Zi5NuFt4ENAQGyKdmMdX-134" connectable="0" vertex="1">
          <mxGeometry x="1" relative="1" as="geometry">
            <mxPoint x="-47" y="-402" as="offset" />
          </mxGeometry>
        </mxCell>
        <mxCell id="Zi5NuFt4ENAQGyKdmMdX-136" value="" style="endArrow=none;html=1;rounded=0;entryX=0;entryY=0.5;entryDx=0;entryDy=0;exitX=1;exitY=0.5;exitDx=0;exitDy=0;edgeStyle=orthogonalEdgeStyle;" parent="1" source="Zi5NuFt4ENAQGyKdmMdX-130" target="Zi5NuFt4ENAQGyKdmMdX-1" edge="1">
          <mxGeometry relative="1" as="geometry">
            <mxPoint x="-427" y="752" as="sourcePoint" />
            <mxPoint x="-267" y="752" as="targetPoint" />
          </mxGeometry>
        </mxCell>
        <mxCell id="Zi5NuFt4ENAQGyKdmMdX-137" value="1" style="resizable=0;html=1;whiteSpace=wrap;align=right;verticalAlign=bottom;" parent="Zi5NuFt4ENAQGyKdmMdX-136" connectable="0" vertex="1">
          <mxGeometry x="1" relative="1" as="geometry">
            <mxPoint x="-50" as="offset" />
          </mxGeometry>
        </mxCell>
        <mxCell id="Zi5NuFt4ENAQGyKdmMdX-140" value="" style="endArrow=none;html=1;rounded=0;entryX=0;entryY=0.5;entryDx=0;entryDy=0;edgeStyle=orthogonalEdgeStyle;" parent="1" source="Zi5NuFt4ENAQGyKdmMdX-128" target="Zi5NuFt4ENAQGyKdmMdX-1" edge="1">
          <mxGeometry relative="1" as="geometry">
            <mxPoint x="-427" y="752" as="sourcePoint" />
            <mxPoint x="-267" y="752" as="targetPoint" />
          </mxGeometry>
        </mxCell>
        <mxCell id="Zi5NuFt4ENAQGyKdmMdX-141" value="1" style="resizable=0;html=1;whiteSpace=wrap;align=right;verticalAlign=bottom;" parent="Zi5NuFt4ENAQGyKdmMdX-140" connectable="0" vertex="1">
          <mxGeometry x="1" relative="1" as="geometry">
            <mxPoint x="-50" y="187" as="offset" />
          </mxGeometry>
        </mxCell>
        <mxCell id="Zi5NuFt4ENAQGyKdmMdX-146" value="" style="shape=link;html=1;rounded=0;entryX=0;entryY=0.5;entryDx=0;entryDy=0;exitX=0.75;exitY=0;exitDx=0;exitDy=0;edgeStyle=orthogonalEdgeStyle;" parent="1" source="Zi5NuFt4ENAQGyKdmMdX-11" target="Zi5NuFt4ENAQGyKdmMdX-131" edge="1">
          <mxGeometry relative="1" as="geometry">
            <mxPoint x="-597" y="552" as="sourcePoint" />
            <mxPoint x="-437" y="552" as="targetPoint" />
          </mxGeometry>
        </mxCell>
        <mxCell id="Zi5NuFt4ENAQGyKdmMdX-147" value="N" style="resizable=0;html=1;whiteSpace=wrap;align=right;verticalAlign=bottom;" parent="Zi5NuFt4ENAQGyKdmMdX-146" connectable="0" vertex="1">
          <mxGeometry x="1" relative="1" as="geometry">
            <mxPoint x="-103" y="-5" as="offset" />
          </mxGeometry>
        </mxCell>
        <mxCell id="Zi5NuFt4ENAQGyKdmMdX-152" value="" style="shape=link;html=1;rounded=0;entryX=0;entryY=0.5;entryDx=0;entryDy=0;exitX=1;exitY=0.5;exitDx=0;exitDy=0;edgeStyle=orthogonalEdgeStyle;" parent="1" source="Zi5NuFt4ENAQGyKdmMdX-7" target="Zi5NuFt4ENAQGyKdmMdX-128" edge="1">
          <mxGeometry relative="1" as="geometry">
            <mxPoint x="-697" y="702" as="sourcePoint" />
            <mxPoint x="-537" y="702" as="targetPoint" />
          </mxGeometry>
        </mxCell>
        <mxCell id="Zi5NuFt4ENAQGyKdmMdX-153" value="N" style="resizable=0;html=1;whiteSpace=wrap;align=right;verticalAlign=bottom;" parent="Zi5NuFt4ENAQGyKdmMdX-152" connectable="0" vertex="1">
          <mxGeometry x="1" relative="1" as="geometry">
            <mxPoint x="-94" as="offset" />
          </mxGeometry>
        </mxCell>
        <mxCell id="Zi5NuFt4ENAQGyKdmMdX-154" value="Создает/редактирует/удаляет" style="rhombus;whiteSpace=wrap;html=1;" parent="1" vertex="1">
          <mxGeometry x="-423" y="248" width="110" height="80" as="geometry" />
        </mxCell>
        <mxCell id="Zi5NuFt4ENAQGyKdmMdX-157" value="" style="endArrow=none;html=1;rounded=0;entryX=0;entryY=0.5;entryDx=0;entryDy=0;edgeStyle=orthogonalEdgeStyle;exitX=1;exitY=0.5;exitDx=0;exitDy=0;" parent="1" source="Zi5NuFt4ENAQGyKdmMdX-154" target="Zi5NuFt4ENAQGyKdmMdX-1" edge="1">
          <mxGeometry relative="1" as="geometry">
            <mxPoint x="-307" y="302" as="sourcePoint" />
            <mxPoint x="-327" y="502" as="targetPoint" />
          </mxGeometry>
        </mxCell>
        <mxCell id="Zi5NuFt4ENAQGyKdmMdX-158" value="1" style="resizable=0;html=1;whiteSpace=wrap;align=right;verticalAlign=bottom;" parent="Zi5NuFt4ENAQGyKdmMdX-157" connectable="0" vertex="1">
          <mxGeometry x="1" relative="1" as="geometry">
            <mxPoint x="-50" y="-111" as="offset" />
          </mxGeometry>
        </mxCell>
        <mxCell id="Zi5NuFt4ENAQGyKdmMdX-159" value="" style="shape=link;html=1;rounded=0;entryX=0;entryY=0.5;entryDx=0;entryDy=0;exitX=0.25;exitY=0;exitDx=0;exitDy=0;edgeStyle=orthogonalEdgeStyle;" parent="1" source="Zi5NuFt4ENAQGyKdmMdX-3" target="Zi5NuFt4ENAQGyKdmMdX-154" edge="1">
          <mxGeometry relative="1" as="geometry">
            <mxPoint x="-647" y="502" as="sourcePoint" />
            <mxPoint x="-487" y="502" as="targetPoint" />
          </mxGeometry>
        </mxCell>
        <mxCell id="Zi5NuFt4ENAQGyKdmMdX-160" value="N" style="resizable=0;html=1;whiteSpace=wrap;align=right;verticalAlign=bottom;" parent="Zi5NuFt4ENAQGyKdmMdX-159" connectable="0" vertex="1">
          <mxGeometry x="1" relative="1" as="geometry">
            <mxPoint x="-94" as="offset" />
          </mxGeometry>
        </mxCell>
        <mxCell id="Zi5NuFt4ENAQGyKdmMdX-161" value="Создает/редактирует/удаляет" style="rhombus;whiteSpace=wrap;html=1;" parent="1" vertex="1">
          <mxGeometry x="-423" y="152" width="110" height="80" as="geometry" />
        </mxCell>
        <mxCell id="Zi5NuFt4ENAQGyKdmMdX-162" value="" style="endArrow=none;html=1;rounded=0;entryX=0;entryY=0.5;entryDx=0;entryDy=0;exitX=1;exitY=0.5;exitDx=0;exitDy=0;edgeStyle=orthogonalEdgeStyle;" parent="1" source="Zi5NuFt4ENAQGyKdmMdX-161" target="Zi5NuFt4ENAQGyKdmMdX-1" edge="1">
          <mxGeometry relative="1" as="geometry">
            <mxPoint x="-497" y="202" as="sourcePoint" />
            <mxPoint x="-237" y="472" as="targetPoint" />
          </mxGeometry>
        </mxCell>
        <mxCell id="Zi5NuFt4ENAQGyKdmMdX-163" value="1" style="resizable=0;html=1;whiteSpace=wrap;align=right;verticalAlign=bottom;" parent="Zi5NuFt4ENAQGyKdmMdX-162" connectable="0" vertex="1">
          <mxGeometry x="1" relative="1" as="geometry">
            <mxPoint x="-50" y="-318" as="offset" />
          </mxGeometry>
        </mxCell>
        <mxCell id="Zi5NuFt4ENAQGyKdmMdX-164" value="" style="shape=link;html=1;rounded=0;entryX=0;entryY=0.5;entryDx=0;entryDy=0;exitX=0.75;exitY=0;exitDx=0;exitDy=0;edgeStyle=orthogonalEdgeStyle;" parent="1" source="Zi5NuFt4ENAQGyKdmMdX-15" target="Zi5NuFt4ENAQGyKdmMdX-161" edge="1">
          <mxGeometry relative="1" as="geometry">
            <mxPoint x="-647" y="222" as="sourcePoint" />
            <mxPoint x="-427" y="422" as="targetPoint" />
          </mxGeometry>
        </mxCell>
        <mxCell id="Zi5NuFt4ENAQGyKdmMdX-165" value="N" style="resizable=0;html=1;whiteSpace=wrap;align=right;verticalAlign=bottom;" parent="Zi5NuFt4ENAQGyKdmMdX-164" connectable="0" vertex="1">
          <mxGeometry x="1" relative="1" as="geometry">
            <mxPoint x="-91" y="-5" as="offset" />
          </mxGeometry>
        </mxCell>
        <mxCell id="Zi5NuFt4ENAQGyKdmMdX-179" value="Логин" style="ellipse;whiteSpace=wrap;html=1;" parent="1" vertex="1">
          <mxGeometry x="-167" y="696" width="120" height="40" as="geometry" />
        </mxCell>
        <mxCell id="Zi5NuFt4ENAQGyKdmMdX-180" value="Пароль" style="ellipse;whiteSpace=wrap;html=1;" parent="1" vertex="1">
          <mxGeometry x="-167" y="750" width="120" height="40" as="geometry" />
        </mxCell>
        <mxCell id="Zi5NuFt4ENAQGyKdmMdX-205" value="Пол" style="ellipse;whiteSpace=wrap;html=1;" parent="1" vertex="1">
          <mxGeometry x="-1439" y="822" width="120" height="45" as="geometry" />
        </mxCell>
        <mxCell id="Zi5NuFt4ENAQGyKdmMdX-207" value="Возраст" style="ellipse;whiteSpace=wrap;html=1;" parent="1" vertex="1">
          <mxGeometry x="-1439" y="882" width="120" height="45" as="geometry" />
        </mxCell>
        <mxCell id="0FEmo3HdycROTMihkk1j-1" value="" style="shape=link;html=1;rounded=0;entryX=0;entryY=0.5;entryDx=0;entryDy=0;exitX=1;exitY=0.5;exitDx=0;exitDy=0;" parent="1" source="Zi5NuFt4ENAQGyKdmMdX-6" target="Zi5NuFt4ENAQGyKdmMdX-130" edge="1">
          <mxGeometry relative="1" as="geometry">
            <mxPoint x="-457" y="572" as="sourcePoint" />
            <mxPoint x="-297" y="572" as="targetPoint" />
          </mxGeometry>
        </mxCell>
        <mxCell id="0FEmo3HdycROTMihkk1j-2" value="N" style="resizable=0;html=1;whiteSpace=wrap;align=right;verticalAlign=bottom;" parent="0FEmo3HdycROTMihkk1j-1" connectable="0" vertex="1">
          <mxGeometry x="1" relative="1" as="geometry">
            <mxPoint x="-14" as="offset" />
          </mxGeometry>
        </mxCell>
        <mxCell id="_1F1drqvbYiEeVU9XwEX-1" value="Класс яхты" style="ellipse;whiteSpace=wrap;html=1;" parent="1" vertex="1">
          <mxGeometry x="-1108" y="432" width="120" height="50" as="geometry" />
        </mxCell>
        <mxCell id="GdoC4uo1tYWlQhzH0mUr-1" value="Дата" style="ellipse;whiteSpace=wrap;html=1;" parent="1" vertex="1">
          <mxGeometry x="-957" y="392" width="120" height="40" as="geometry" />
        </mxCell>
        <mxCell id="GdoC4uo1tYWlQhzH0mUr-3" value="Статус" style="ellipse;whiteSpace=wrap;html=1;" parent="1" vertex="1">
          <mxGeometry x="-164" y="802" width="120" height="40" as="geometry" />
        </mxCell>
        <mxCell id="GdoC4uo1tYWlQhzH0mUr-4" value="ФИО" style="ellipse;whiteSpace=wrap;html=1;" parent="1" vertex="1">
          <mxGeometry x="-164" y="854" width="120" height="40" as="geometry" />
        </mxCell>
        <mxCell id="GdoC4uo1tYWlQhzH0mUr-9" value="&lt;u&gt;ID&lt;/u&gt;" style="ellipse;whiteSpace=wrap;html=1;" parent="1" vertex="1">
          <mxGeometry x="-668" y="634" width="120" height="40" as="geometry" />
        </mxCell>
        <mxCell id="GdoC4uo1tYWlQhzH0mUr-10" value="Класс яхт" style="ellipse;whiteSpace=wrap;html=1;" parent="1" vertex="1">
          <mxGeometry x="-668" y="683" width="120" height="40" as="geometry" />
        </mxCell>
        <mxCell id="GdoC4uo1tYWlQhzH0mUr-13" value="Тренер" style="ellipse;whiteSpace=wrap;html=1;" parent="1" vertex="1">
          <mxGeometry x="-1439" y="992" width="120" height="40" as="geometry" />
        </mxCell>
        <mxCell id="Z_BileD2JKXDGfaPh2uC-1" value="Количество выбрасываемых результатов" style="ellipse;whiteSpace=wrap;html=1;" parent="1" vertex="1">
          <mxGeometry x="-668" y="730" width="120" height="52" as="geometry" />
        </mxCell>
        <mxCell id="pUg7ICbPCyXO2Q1xaNbC-1" value="Роль" style="ellipse;whiteSpace=wrap;html=1;" parent="1" vertex="1">
          <mxGeometry x="-164" y="904" width="120" height="40" as="geometry" />
        </mxCell>
        <mxCell id="pUg7ICbPCyXO2Q1xaNbC-3" value="Очки" style="ellipse;whiteSpace=wrap;html=1;" parent="1" vertex="1">
          <mxGeometry x="-1108" y="377" width="120" height="40" as="geometry" />
        </mxCell>
        <mxCell id="pUg7ICbPCyXO2Q1xaNbC-4" value="Считается / не считается" style="ellipse;whiteSpace=wrap;html=1;" parent="1" vertex="1">
          <mxGeometry x="-1108" y="304" width="120" height="60" as="geometry" />
        </mxCell>
        <mxCell id="pUg7ICbPCyXO2Q1xaNbC-5" value="Вид" style="ellipse;whiteSpace=wrap;html=1;" parent="1" vertex="1">
          <mxGeometry x="-1122" y="696" width="120" height="40" as="geometry" />
        </mxCell>
        <mxCell id="pUg7ICbPCyXO2Q1xaNbC-6" value="Статус" style="ellipse;whiteSpace=wrap;html=1;" parent="1" vertex="1">
          <mxGeometry x="-967" y="1031" width="120" height="40" as="geometry" />
        </mxCell>
        <mxCell id="dNkEKEc1fhJzJVqlm_Z8-1" value="" style="shape=link;html=1;rounded=0;entryX=0;entryY=0.5;entryDx=0;entryDy=0;exitX=1;exitY=0.5;exitDx=0;exitDy=0;" parent="1" source="Zi5NuFt4ENAQGyKdmMdX-68" target="Zi5NuFt4ENAQGyKdmMdX-3" edge="1">
          <mxGeometry relative="1" as="geometry">
            <mxPoint x="-1250" y="592" as="sourcePoint" />
            <mxPoint x="-1353" y="602" as="targetPoint" />
          </mxGeometry>
        </mxCell>
        <mxCell id="dNkEKEc1fhJzJVqlm_Z8-2" value="M" style="resizable=0;html=1;whiteSpace=wrap;align=right;verticalAlign=bottom;" parent="dNkEKEc1fhJzJVqlm_Z8-1" connectable="0" vertex="1">
          <mxGeometry x="1" relative="1" as="geometry">
            <mxPoint x="-7" as="offset" />
          </mxGeometry>
        </mxCell>
        <mxCell id="dNkEKEc1fhJzJVqlm_Z8-4" value="" style="shape=link;html=1;rounded=0;entryX=0;entryY=0.5;entryDx=0;entryDy=0;exitX=1;exitY=0.5;exitDx=0;exitDy=0;" parent="1" source="Zi5NuFt4ENAQGyKdmMdX-82" target="Zi5NuFt4ENAQGyKdmMdX-7" edge="1">
          <mxGeometry relative="1" as="geometry">
            <mxPoint x="-1070" y="750" as="sourcePoint" />
            <mxPoint x="-910" y="750" as="targetPoint" />
          </mxGeometry>
        </mxCell>
        <mxCell id="dNkEKEc1fhJzJVqlm_Z8-5" value="M" style="resizable=0;html=1;whiteSpace=wrap;align=right;verticalAlign=bottom;" parent="dNkEKEc1fhJzJVqlm_Z8-4" connectable="0" vertex="1">
          <mxGeometry x="1" relative="1" as="geometry">
            <mxPoint x="-21" as="offset" />
          </mxGeometry>
        </mxCell>
      </root>
    </mxGraphModel>
  </diagram>
  <diagram id="HL9EaY3Asevuox3NspLu" name="BPMN">
    <mxGraphModel dx="434" dy="1720" grid="1" gridSize="10" guides="1" tooltips="1" connect="1" arrows="1" fold="1" page="1" pageScale="1" pageWidth="827" pageHeight="1169" math="0" shadow="0">
      <root>
        <mxCell id="0" />
        <mxCell id="1" parent="0" />
        <mxCell id="lAr8rIy2qU7t1nIHdHMi-3" value="Судья" style="swimlane;horizontal=0;whiteSpace=wrap;html=1;fillColor=#FFFFFF;" parent="1" vertex="1">
          <mxGeometry x="50" y="900" width="1000" height="250" as="geometry">
            <mxRectangle x="30" y="550" width="40" height="70" as="alternateBounds" />
          </mxGeometry>
        </mxCell>
        <mxCell id="lAr8rIy2qU7t1nIHdHMi-18" value="" style="group;fontStyle=1" parent="lAr8rIy2qU7t1nIHdHMi-3" vertex="1" connectable="0">
          <mxGeometry x="26" y="66" width="44" height="40" as="geometry" />
        </mxCell>
        <mxCell id="lAr8rIy2qU7t1nIHdHMi-8" value="" style="ellipse;whiteSpace=wrap;html=1;aspect=fixed;" parent="lAr8rIy2qU7t1nIHdHMi-18" vertex="1">
          <mxGeometry y="4" width="40" height="40" as="geometry" />
        </mxCell>
        <mxCell id="iCC4JTs9K4Uw3LDeu22b-45" value="" style="edgeStyle=orthogonalEdgeStyle;rounded=0;orthogonalLoop=1;jettySize=auto;html=1;" parent="lAr8rIy2qU7t1nIHdHMi-3" source="lAr8rIy2qU7t1nIHdHMi-108" target="iCC4JTs9K4Uw3LDeu22b-42" edge="1">
          <mxGeometry relative="1" as="geometry" />
        </mxCell>
        <mxCell id="lAr8rIy2qU7t1nIHdHMi-108" value="Зафиксировать очередность финиша" style="rounded=1;whiteSpace=wrap;html=1;" parent="lAr8rIy2qU7t1nIHdHMi-3" vertex="1">
          <mxGeometry x="209" y="60" width="108" height="60" as="geometry" />
        </mxCell>
        <mxCell id="lAr8rIy2qU7t1nIHdHMi-109" value="" style="group" parent="lAr8rIy2qU7t1nIHdHMi-3" vertex="1" connectable="0">
          <mxGeometry x="490" y="60" width="60" height="60" as="geometry" />
        </mxCell>
        <mxCell id="lAr8rIy2qU7t1nIHdHMi-110" value="" style="strokeWidth=2;html=1;shape=mxgraph.flowchart.decision;whiteSpace=wrap;" parent="lAr8rIy2qU7t1nIHdHMi-109" vertex="1">
          <mxGeometry width="60" height="60" as="geometry" />
        </mxCell>
        <mxCell id="lAr8rIy2qU7t1nIHdHMi-111" value="" style="shape=umlDestroy;whiteSpace=wrap;html=1;strokeWidth=3;targetShapes=umlLifeline;" parent="lAr8rIy2qU7t1nIHdHMi-109" vertex="1">
          <mxGeometry x="20" y="15" width="20" height="30" as="geometry" />
        </mxCell>
        <mxCell id="lAr8rIy2qU7t1nIHdHMi-113" value="Сформировать новый протест" style="rounded=1;whiteSpace=wrap;html=1;" parent="lAr8rIy2qU7t1nIHdHMi-3" vertex="1">
          <mxGeometry x="547" y="140" width="98" height="60" as="geometry" />
        </mxCell>
        <mxCell id="lAr8rIy2qU7t1nIHdHMi-120" style="edgeStyle=orthogonalEdgeStyle;rounded=0;orthogonalLoop=1;jettySize=auto;html=1;entryX=0;entryY=0.5;entryDx=0;entryDy=0;entryPerimeter=0;" parent="lAr8rIy2qU7t1nIHdHMi-3" source="lAr8rIy2qU7t1nIHdHMi-110" target="lAr8rIy2qU7t1nIHdHMi-116" edge="1">
          <mxGeometry relative="1" as="geometry" />
        </mxCell>
        <mxCell id="lAr8rIy2qU7t1nIHdHMi-122" style="edgeStyle=orthogonalEdgeStyle;rounded=0;orthogonalLoop=1;jettySize=auto;html=1;entryX=0;entryY=0.5;entryDx=0;entryDy=0;" parent="lAr8rIy2qU7t1nIHdHMi-3" source="lAr8rIy2qU7t1nIHdHMi-110" target="lAr8rIy2qU7t1nIHdHMi-113" edge="1">
          <mxGeometry relative="1" as="geometry">
            <Array as="points">
              <mxPoint x="520" y="170" />
            </Array>
          </mxGeometry>
        </mxCell>
        <mxCell id="lAr8rIy2qU7t1nIHdHMi-124" value="" style="group" parent="lAr8rIy2qU7t1nIHdHMi-3" vertex="1" connectable="0">
          <mxGeometry x="788" y="140" width="60" height="60" as="geometry" />
        </mxCell>
        <mxCell id="lAr8rIy2qU7t1nIHdHMi-125" value="" style="strokeWidth=2;html=1;shape=mxgraph.flowchart.decision;whiteSpace=wrap;" parent="lAr8rIy2qU7t1nIHdHMi-124" vertex="1">
          <mxGeometry width="60" height="60" as="geometry" />
        </mxCell>
        <mxCell id="lAr8rIy2qU7t1nIHdHMi-126" value="" style="shape=umlDestroy;whiteSpace=wrap;html=1;strokeWidth=3;targetShapes=umlLifeline;" parent="lAr8rIy2qU7t1nIHdHMi-124" vertex="1">
          <mxGeometry x="20" y="15" width="20" height="30" as="geometry" />
        </mxCell>
        <mxCell id="lAr8rIy2qU7t1nIHdHMi-128" style="edgeStyle=orthogonalEdgeStyle;rounded=0;orthogonalLoop=1;jettySize=auto;html=1;entryX=0;entryY=0.5;entryDx=0;entryDy=0;entryPerimeter=0;" parent="lAr8rIy2qU7t1nIHdHMi-3" source="iCC4JTs9K4Uw3LDeu22b-91" target="lAr8rIy2qU7t1nIHdHMi-125" edge="1">
          <mxGeometry relative="1" as="geometry" />
        </mxCell>
        <mxCell id="lAr8rIy2qU7t1nIHdHMi-130" style="edgeStyle=orthogonalEdgeStyle;rounded=0;orthogonalLoop=1;jettySize=auto;html=1;entryX=0;entryY=0.5;entryDx=0;entryDy=0;entryPerimeter=0;" parent="lAr8rIy2qU7t1nIHdHMi-3" source="lAr8rIy2qU7t1nIHdHMi-125" target="lAr8rIy2qU7t1nIHdHMi-116" edge="1">
          <mxGeometry relative="1" as="geometry">
            <Array as="points">
              <mxPoint x="880" y="170" />
              <mxPoint x="880" y="90" />
            </Array>
          </mxGeometry>
        </mxCell>
        <mxCell id="lAr8rIy2qU7t1nIHdHMi-131" style="edgeStyle=orthogonalEdgeStyle;rounded=0;orthogonalLoop=1;jettySize=auto;html=1;entryX=0;entryY=0.5;entryDx=0;entryDy=0;" parent="lAr8rIy2qU7t1nIHdHMi-3" source="lAr8rIy2qU7t1nIHdHMi-125" target="lAr8rIy2qU7t1nIHdHMi-113" edge="1">
          <mxGeometry relative="1" as="geometry">
            <Array as="points">
              <mxPoint x="818" y="220" />
              <mxPoint x="529" y="220" />
              <mxPoint x="529" y="170" />
            </Array>
            <mxPoint x="806.9999999999998" y="200" as="sourcePoint" />
            <mxPoint x="536" y="170" as="targetPoint" />
          </mxGeometry>
        </mxCell>
        <mxCell id="lAr8rIy2qU7t1nIHdHMi-140" value="" style="edgeStyle=orthogonalEdgeStyle;rounded=0;orthogonalLoop=1;jettySize=auto;html=1;" parent="lAr8rIy2qU7t1nIHdHMi-3" source="lAr8rIy2qU7t1nIHdHMi-136" target="lAr8rIy2qU7t1nIHdHMi-108" edge="1">
          <mxGeometry relative="1" as="geometry" />
        </mxCell>
        <mxCell id="lAr8rIy2qU7t1nIHdHMi-136" value="Создать новую гонку" style="rounded=1;whiteSpace=wrap;html=1;" parent="lAr8rIy2qU7t1nIHdHMi-3" vertex="1">
          <mxGeometry x="91" y="60" width="90" height="60" as="geometry" />
        </mxCell>
        <mxCell id="lAr8rIy2qU7t1nIHdHMi-135" value="Нет" style="text;html=1;align=center;verticalAlign=middle;resizable=0;points=[];autosize=1;strokeColor=none;fillColor=none;" parent="lAr8rIy2qU7t1nIHdHMi-3" vertex="1">
          <mxGeometry x="550" y="67" width="40" height="30" as="geometry" />
        </mxCell>
        <mxCell id="lAr8rIy2qU7t1nIHdHMi-134" value="Да" style="text;html=1;align=center;verticalAlign=middle;resizable=0;points=[];autosize=1;strokeColor=none;fillColor=none;" parent="lAr8rIy2qU7t1nIHdHMi-3" vertex="1">
          <mxGeometry x="490" y="120" width="40" height="30" as="geometry" />
        </mxCell>
        <mxCell id="lAr8rIy2qU7t1nIHdHMi-139" style="edgeStyle=orthogonalEdgeStyle;rounded=0;orthogonalLoop=1;jettySize=auto;html=1;entryX=0;entryY=0.5;entryDx=0;entryDy=0;" parent="lAr8rIy2qU7t1nIHdHMi-3" source="lAr8rIy2qU7t1nIHdHMi-8" target="lAr8rIy2qU7t1nIHdHMi-136" edge="1">
          <mxGeometry relative="1" as="geometry" />
        </mxCell>
        <mxCell id="iCC4JTs9K4Uw3LDeu22b-33" value="Добавление результатов гонки" style="swimlane;horizontal=0;whiteSpace=wrap;html=1;" parent="lAr8rIy2qU7t1nIHdHMi-3" vertex="1">
          <mxGeometry x="-24" width="1024" height="250" as="geometry" />
        </mxCell>
        <mxCell id="iCC4JTs9K4Uw3LDeu22b-42" value="Обновить рейтинг с добавлением новой гонки" style="rounded=1;whiteSpace=wrap;html=1;" parent="iCC4JTs9K4Uw3LDeu22b-33" vertex="1">
          <mxGeometry x="367" y="60" width="120" height="60" as="geometry" />
        </mxCell>
        <mxCell id="lAr8rIy2qU7t1nIHdHMi-117" value="Обновление &lt;br&gt;завершено" style="text;html=1;align=center;verticalAlign=middle;resizable=0;points=[];autosize=1;strokeColor=none;fillColor=none;" parent="iCC4JTs9K4Uw3LDeu22b-33" vertex="1">
          <mxGeometry x="927" y="110" width="90" height="40" as="geometry" />
        </mxCell>
        <mxCell id="lAr8rIy2qU7t1nIHdHMi-116" value="" style="html=1;verticalLabelPosition=bottom;labelBackgroundColor=#ffffff;verticalAlign=top;shadow=0;dashed=0;strokeWidth=2;shape=mxgraph.ios7.misc.circle;strokeColor=#222222;fillColor=none;" parent="iCC4JTs9K4Uw3LDeu22b-33" vertex="1">
          <mxGeometry x="952" y="70" width="40" height="40" as="geometry" />
        </mxCell>
        <mxCell id="lAr8rIy2qU7t1nIHdHMi-133" value="Нет" style="text;html=1;align=center;verticalAlign=middle;resizable=0;points=[];autosize=1;strokeColor=none;fillColor=none;" parent="iCC4JTs9K4Uw3LDeu22b-33" vertex="1">
          <mxGeometry x="864" y="148" width="40" height="30" as="geometry" />
        </mxCell>
        <mxCell id="lAr8rIy2qU7t1nIHdHMi-132" value="Да" style="text;html=1;align=center;verticalAlign=middle;resizable=0;points=[];autosize=1;strokeColor=none;fillColor=none;" parent="iCC4JTs9K4Uw3LDeu22b-33" vertex="1">
          <mxGeometry x="834" y="198" width="40" height="30" as="geometry" />
        </mxCell>
        <mxCell id="lAr8rIy2qU7t1nIHdHMi-127" value="Есть &lt;br&gt;необработанные&lt;br&gt;протесты?" style="text;html=1;align=center;verticalAlign=middle;resizable=0;points=[];autosize=1;strokeColor=none;fillColor=none;" parent="iCC4JTs9K4Uw3LDeu22b-33" vertex="1">
          <mxGeometry x="781" y="85" width="120" height="60" as="geometry" />
        </mxCell>
        <mxCell id="lAr8rIy2qU7t1nIHdHMi-112" value="Были поданы протесты?" style="text;html=1;align=center;verticalAlign=middle;resizable=0;points=[];autosize=1;strokeColor=none;fillColor=none;" parent="iCC4JTs9K4Uw3LDeu22b-33" vertex="1">
          <mxGeometry x="477" y="22" width="160" height="30" as="geometry" />
        </mxCell>
        <mxCell id="iCC4JTs9K4Uw3LDeu22b-46" value="" style="edgeStyle=orthogonalEdgeStyle;rounded=0;orthogonalLoop=1;jettySize=auto;html=1;entryX=0;entryY=0.5;entryDx=0;entryDy=0;entryPerimeter=0;" parent="lAr8rIy2qU7t1nIHdHMi-3" source="iCC4JTs9K4Uw3LDeu22b-42" target="lAr8rIy2qU7t1nIHdHMi-110" edge="1">
          <mxGeometry relative="1" as="geometry" />
        </mxCell>
        <mxCell id="iCC4JTs9K4Uw3LDeu22b-91" value="Обновить информацию о протестах" style="rounded=1;whiteSpace=wrap;html=1;" parent="lAr8rIy2qU7t1nIHdHMi-3" vertex="1">
          <mxGeometry x="670.71" y="140" width="98" height="60" as="geometry" />
        </mxCell>
        <mxCell id="iCC4JTs9K4Uw3LDeu22b-92" value="" style="edgeStyle=orthogonalEdgeStyle;rounded=0;orthogonalLoop=1;jettySize=auto;html=1;entryX=0;entryY=0.5;entryDx=0;entryDy=0;entryPerimeter=0;" parent="lAr8rIy2qU7t1nIHdHMi-3" source="lAr8rIy2qU7t1nIHdHMi-113" target="iCC4JTs9K4Uw3LDeu22b-91" edge="1">
          <mxGeometry relative="1" as="geometry">
            <mxPoint x="698" y="720" as="sourcePoint" />
            <mxPoint x="818" y="720" as="targetPoint" />
          </mxGeometry>
        </mxCell>
        <mxCell id="lAr8rIy2qU7t1nIHdHMi-56" value="" style="endArrow=block;dashed=1;endFill=0;endSize=12;html=1;rounded=0;entryX=0.5;entryY=1;entryDx=0;entryDy=0;exitX=0.113;exitY=-0.013;exitDx=0;exitDy=0;exitPerimeter=0;" parent="1" source="lAr8rIy2qU7t1nIHdHMi-80" target="lAr8rIy2qU7t1nIHdHMi-64" edge="1">
          <mxGeometry width="160" relative="1" as="geometry">
            <mxPoint x="128" y="722" as="sourcePoint" />
            <mxPoint x="313" y="722" as="targetPoint" />
          </mxGeometry>
        </mxCell>
        <mxCell id="lAr8rIy2qU7t1nIHdHMi-80" value="" style="swimlane;startSize=0;" parent="1" vertex="1">
          <mxGeometry x="23" y="796" width="927" height="60" as="geometry">
            <mxRectangle x="270" y="810" width="50" height="40" as="alternateBounds" />
          </mxGeometry>
        </mxCell>
        <mxCell id="lAr8rIy2qU7t1nIHdHMi-81" value="Участник" style="text;html=1;align=center;verticalAlign=middle;resizable=0;points=[];autosize=1;strokeColor=none;fillColor=none;" parent="lAr8rIy2qU7t1nIHdHMi-80" vertex="1">
          <mxGeometry x="460" y="16" width="70" height="30" as="geometry" />
        </mxCell>
        <mxCell id="lAr8rIy2qU7t1nIHdHMi-84" value="" style="group" parent="1" vertex="1" connectable="0">
          <mxGeometry x="183" y="446" width="60" height="60" as="geometry" />
        </mxCell>
        <mxCell id="lAr8rIy2qU7t1nIHdHMi-85" value="" style="strokeWidth=2;html=1;shape=mxgraph.flowchart.decision;whiteSpace=wrap;" parent="lAr8rIy2qU7t1nIHdHMi-84" vertex="1">
          <mxGeometry width="60" height="60" as="geometry" />
        </mxCell>
        <mxCell id="lAr8rIy2qU7t1nIHdHMi-86" value="" style="shape=umlDestroy;whiteSpace=wrap;html=1;strokeWidth=3;targetShapes=umlLifeline;" parent="lAr8rIy2qU7t1nIHdHMi-84" vertex="1">
          <mxGeometry x="20" y="15" width="20" height="30" as="geometry" />
        </mxCell>
        <mxCell id="lAr8rIy2qU7t1nIHdHMi-87" style="edgeStyle=orthogonalEdgeStyle;rounded=0;orthogonalLoop=1;jettySize=auto;html=1;" parent="1" source="lAr8rIy2qU7t1nIHdHMi-64" target="lAr8rIy2qU7t1nIHdHMi-85" edge="1">
          <mxGeometry relative="1" as="geometry" />
        </mxCell>
        <mxCell id="lAr8rIy2qU7t1nIHdHMi-115" value="Участник добавлен" style="text;html=1;align=center;verticalAlign=middle;resizable=0;points=[];autosize=1;strokeColor=none;fillColor=none;" parent="1" vertex="1">
          <mxGeometry x="811" y="427" width="130" height="30" as="geometry" />
        </mxCell>
        <mxCell id="iCC4JTs9K4Uw3LDeu22b-38" value="" style="group" parent="1" vertex="1" connectable="0">
          <mxGeometry x="20" y="392" width="1040" height="380" as="geometry" />
        </mxCell>
        <mxCell id="lAr8rIy2qU7t1nIHdHMi-58" value="Судья" style="swimlane;horizontal=0;whiteSpace=wrap;html=1;fillColor=#FFFFFF;" parent="iCC4JTs9K4Uw3LDeu22b-38" vertex="1">
          <mxGeometry x="23" width="907" height="380" as="geometry" />
        </mxCell>
        <mxCell id="lAr8rIy2qU7t1nIHdHMi-62" value="Все документы &lt;br&gt;участника &lt;br&gt;валидны?" style="text;html=1;align=center;verticalAlign=middle;resizable=0;points=[];autosize=1;strokeColor=none;fillColor=none;" parent="lAr8rIy2qU7t1nIHdHMi-58" vertex="1">
          <mxGeometry x="120" width="110" height="60" as="geometry" />
        </mxCell>
        <mxCell id="lAr8rIy2qU7t1nIHdHMi-63" value="" style="group;fontStyle=1" parent="lAr8rIy2qU7t1nIHdHMi-58" vertex="1" connectable="0">
          <mxGeometry x="60" y="60" width="50" height="50" as="geometry" />
        </mxCell>
        <mxCell id="lAr8rIy2qU7t1nIHdHMi-64" value="" style="ellipse;whiteSpace=wrap;html=1;aspect=fixed;" parent="lAr8rIy2qU7t1nIHdHMi-63" vertex="1">
          <mxGeometry width="50" height="50" as="geometry" />
        </mxCell>
        <mxCell id="lAr8rIy2qU7t1nIHdHMi-65" value="" style="shape=message;html=1;html=1;outlineConnect=0;labelPosition=center;verticalLabelPosition=bottom;align=center;verticalAlign=top;" parent="lAr8rIy2qU7t1nIHdHMi-63" vertex="1">
          <mxGeometry x="10" y="15" width="30" height="20" as="geometry" />
        </mxCell>
        <mxCell id="lAr8rIy2qU7t1nIHdHMi-68" value="Существует ли &lt;br&gt;уже&amp;nbsp;участник&lt;br&gt;с такими данными?" style="text;html=1;align=center;verticalAlign=middle;resizable=0;points=[];autosize=1;strokeColor=none;fillColor=none;" parent="lAr8rIy2qU7t1nIHdHMi-58" vertex="1">
          <mxGeometry x="340" width="130" height="60" as="geometry" />
        </mxCell>
        <mxCell id="lAr8rIy2qU7t1nIHdHMi-69" style="edgeStyle=orthogonalEdgeStyle;rounded=0;orthogonalLoop=1;jettySize=auto;html=1;entryX=0;entryY=0.5;entryDx=0;entryDy=0;" parent="lAr8rIy2qU7t1nIHdHMi-58" source="lAr8rIy2qU7t1nIHdHMi-70" target="lAr8rIy2qU7t1nIHdHMi-73" edge="1">
          <mxGeometry relative="1" as="geometry" />
        </mxCell>
        <mxCell id="lAr8rIy2qU7t1nIHdHMi-70" value="Добавить участника" style="rounded=1;whiteSpace=wrap;html=1;" parent="lAr8rIy2qU7t1nIHdHMi-58" vertex="1">
          <mxGeometry x="643" y="54" width="120" height="60" as="geometry" />
        </mxCell>
        <mxCell id="lAr8rIy2qU7t1nIHdHMi-71" value="" style="group;fontStyle=1" parent="lAr8rIy2qU7t1nIHdHMi-58" vertex="1" connectable="0">
          <mxGeometry x="818" y="61" width="50" height="50" as="geometry" />
        </mxCell>
        <mxCell id="lAr8rIy2qU7t1nIHdHMi-72" value="" style="ellipse;whiteSpace=wrap;html=1;aspect=fixed;" parent="lAr8rIy2qU7t1nIHdHMi-71" vertex="1">
          <mxGeometry width="50" height="50" as="geometry" />
        </mxCell>
        <mxCell id="lAr8rIy2qU7t1nIHdHMi-73" value="" style="shape=message;html=1;html=1;outlineConnect=0;labelPosition=center;verticalLabelPosition=bottom;align=center;verticalAlign=top;" parent="lAr8rIy2qU7t1nIHdHMi-71" vertex="1">
          <mxGeometry x="10" y="13" width="30" height="20" as="geometry" />
        </mxCell>
        <mxCell id="lAr8rIy2qU7t1nIHdHMi-74" value="Нет" style="text;html=1;align=center;verticalAlign=middle;resizable=0;points=[];autosize=1;strokeColor=none;fillColor=none;" parent="lAr8rIy2qU7t1nIHdHMi-58" vertex="1">
          <mxGeometry x="137" y="110" width="40" height="30" as="geometry" />
        </mxCell>
        <mxCell id="lAr8rIy2qU7t1nIHdHMi-91" value="Да" style="text;html=1;align=center;verticalAlign=middle;resizable=0;points=[];autosize=1;strokeColor=none;fillColor=none;" parent="lAr8rIy2qU7t1nIHdHMi-58" vertex="1">
          <mxGeometry x="200" y="60" width="40" height="30" as="geometry" />
        </mxCell>
        <mxCell id="lAr8rIy2qU7t1nIHdHMi-66" value="Отказать в участии" style="rounded=1;whiteSpace=wrap;html=1;" parent="lAr8rIy2qU7t1nIHdHMi-58" vertex="1">
          <mxGeometry x="140.57" y="145.79000000000002" width="80" height="50" as="geometry" />
        </mxCell>
        <mxCell id="lAr8rIy2qU7t1nIHdHMi-67" value="" style="html=1;verticalLabelPosition=bottom;labelBackgroundColor=#ffffff;verticalAlign=top;shadow=0;dashed=0;strokeWidth=2;shape=mxgraph.ios7.misc.circle;strokeColor=#222222;fillColor=none;" parent="lAr8rIy2qU7t1nIHdHMi-58" vertex="1">
          <mxGeometry x="286.57" y="150.79000000000002" width="40" height="40" as="geometry" />
        </mxCell>
        <mxCell id="lAr8rIy2qU7t1nIHdHMi-77" style="edgeStyle=orthogonalEdgeStyle;rounded=0;orthogonalLoop=1;jettySize=auto;html=1;entryX=0;entryY=0.5;entryDx=0;entryDy=0;entryPerimeter=0;" parent="lAr8rIy2qU7t1nIHdHMi-58" source="lAr8rIy2qU7t1nIHdHMi-66" target="lAr8rIy2qU7t1nIHdHMi-67" edge="1">
          <mxGeometry relative="1" as="geometry" />
        </mxCell>
        <mxCell id="lAr8rIy2qU7t1nIHdHMi-114" value="Участник не добавлен" style="text;html=1;align=center;verticalAlign=middle;resizable=0;points=[];autosize=1;strokeColor=none;fillColor=none;" parent="lAr8rIy2qU7t1nIHdHMi-58" vertex="1">
          <mxGeometry x="231.57" y="190.00000000000003" width="150" height="30" as="geometry" />
        </mxCell>
        <mxCell id="lAr8rIy2qU7t1nIHdHMi-83" value="" style="strokeWidth=2;html=1;shape=mxgraph.flowchart.start_2;whiteSpace=wrap;fillColor=#FFFFFF;" parent="lAr8rIy2qU7t1nIHdHMi-58" vertex="1">
          <mxGeometry x="175.57" y="190.79000000000002" width="10" height="8" as="geometry" />
        </mxCell>
        <mxCell id="lAr8rIy2qU7t1nIHdHMi-78" value="Да" style="text;html=1;align=center;verticalAlign=middle;resizable=0;points=[];autosize=1;strokeColor=none;fillColor=none;" parent="lAr8rIy2qU7t1nIHdHMi-58" vertex="1">
          <mxGeometry x="381.57" y="110" width="40" height="30" as="geometry" />
        </mxCell>
        <mxCell id="iCC4JTs9K4Uw3LDeu22b-82" value="" style="ellipse;whiteSpace=wrap;html=1;aspect=fixed;" parent="lAr8rIy2qU7t1nIHdHMi-58" vertex="1">
          <mxGeometry x="460" y="165.79000000000002" width="50" height="50" as="geometry" />
        </mxCell>
        <mxCell id="iCC4JTs9K4Uw3LDeu22b-83" value="" style="shape=message;html=1;html=1;outlineConnect=0;labelPosition=center;verticalLabelPosition=bottom;align=center;verticalAlign=top;" parent="lAr8rIy2qU7t1nIHdHMi-58" vertex="1">
          <mxGeometry x="470" y="181.79000000000002" width="30" height="20" as="geometry" />
        </mxCell>
        <mxCell id="6dUuj01utR2rJwDsA2vZ-39" value="Да" style="text;html=1;align=center;verticalAlign=middle;resizable=0;points=[];autosize=1;strokeColor=none;fillColor=none;" parent="lAr8rIy2qU7t1nIHdHMi-58" vertex="1">
          <mxGeometry x="580" y="60" width="40" height="30" as="geometry" />
        </mxCell>
        <mxCell id="1vyl0MiUtM50U9By3SEk-1" value="Документы участника" style="whiteSpace=wrap;html=1;shape=mxgraph.basic.document" parent="lAr8rIy2qU7t1nIHdHMi-58" vertex="1">
          <mxGeometry x="93.57" y="300" width="76.43" height="60" as="geometry" />
        </mxCell>
        <mxCell id="gjv2SjhWzwrO5W-jnZNF-1" value="Документы участника" style="whiteSpace=wrap;html=1;shape=mxgraph.basic.document" parent="lAr8rIy2qU7t1nIHdHMi-58" vertex="1">
          <mxGeometry x="185.57" y="300" width="76.43" height="60" as="geometry" />
        </mxCell>
        <mxCell id="gjv2SjhWzwrO5W-jnZNF-2" value="Документы участника" style="whiteSpace=wrap;html=1;shape=mxgraph.basic.document" parent="lAr8rIy2qU7t1nIHdHMi-58" vertex="1">
          <mxGeometry x="497" y="295" width="76.43" height="60" as="geometry" />
        </mxCell>
        <mxCell id="gjv2SjhWzwrO5W-jnZNF-3" value="Документы участника" style="whiteSpace=wrap;html=1;shape=mxgraph.basic.document" parent="lAr8rIy2qU7t1nIHdHMi-58" vertex="1">
          <mxGeometry x="637" y="295" width="76.43" height="60" as="geometry" />
        </mxCell>
        <mxCell id="gjv2SjhWzwrO5W-jnZNF-4" value="Документы участника" style="whiteSpace=wrap;html=1;shape=mxgraph.basic.document" parent="lAr8rIy2qU7t1nIHdHMi-58" vertex="1">
          <mxGeometry x="763" y="296" width="76.43" height="60" as="geometry" />
        </mxCell>
        <mxCell id="iCC4JTs9K4Uw3LDeu22b-37" value="Добавление участника" style="swimlane;horizontal=0;whiteSpace=wrap;html=1;" parent="iCC4JTs9K4Uw3LDeu22b-38" vertex="1">
          <mxGeometry width="930" height="380" as="geometry" />
        </mxCell>
        <mxCell id="lAr8rIy2qU7t1nIHdHMi-59" value="" style="group" parent="iCC4JTs9K4Uw3LDeu22b-37" vertex="1" connectable="0">
          <mxGeometry x="288" y="54" width="100" height="96" as="geometry" />
        </mxCell>
        <mxCell id="lAr8rIy2qU7t1nIHdHMi-60" value="" style="strokeWidth=2;html=1;shape=mxgraph.flowchart.decision;whiteSpace=wrap;" parent="lAr8rIy2qU7t1nIHdHMi-59" vertex="1">
          <mxGeometry x="115" width="60" height="60" as="geometry" />
        </mxCell>
        <mxCell id="lAr8rIy2qU7t1nIHdHMi-61" value="" style="shape=umlDestroy;whiteSpace=wrap;html=1;strokeWidth=3;targetShapes=umlLifeline;" parent="lAr8rIy2qU7t1nIHdHMi-59" vertex="1">
          <mxGeometry x="135" y="15" width="20" height="30" as="geometry" />
        </mxCell>
        <mxCell id="lAr8rIy2qU7t1nIHdHMi-89" value="Нет" style="text;html=1;align=center;verticalAlign=middle;resizable=0;points=[];autosize=1;strokeColor=none;fillColor=none;" parent="lAr8rIy2qU7t1nIHdHMi-59" vertex="1">
          <mxGeometry x="175" y="9" width="40" height="30" as="geometry" />
        </mxCell>
        <mxCell id="iCC4JTs9K4Uw3LDeu22b-84" style="edgeStyle=orthogonalEdgeStyle;rounded=0;orthogonalLoop=1;jettySize=auto;html=1;entryX=0;entryY=0.5;entryDx=0;entryDy=0;" parent="iCC4JTs9K4Uw3LDeu22b-38" source="lAr8rIy2qU7t1nIHdHMi-60" target="iCC4JTs9K4Uw3LDeu22b-82" edge="1">
          <mxGeometry relative="1" as="geometry">
            <Array as="points">
              <mxPoint x="433" y="190" />
              <mxPoint x="483" y="190" />
            </Array>
          </mxGeometry>
        </mxCell>
        <mxCell id="lAr8rIy2qU7t1nIHdHMi-92" value="" style="strokeWidth=2;html=1;shape=mxgraph.flowchart.start_2;whiteSpace=wrap;fillColor=#FFFFFF;" parent="1" vertex="1">
          <mxGeometry x="881" y="501" width="10" height="8" as="geometry" />
        </mxCell>
        <mxCell id="lAr8rIy2qU7t1nIHdHMi-82" value="" style="strokeWidth=2;html=1;shape=mxgraph.flowchart.start_2;whiteSpace=wrap;fillColor=#FFFFFF;" parent="1" vertex="1">
          <mxGeometry x="125" y="785" width="10" height="10" as="geometry" />
        </mxCell>
        <mxCell id="lAr8rIy2qU7t1nIHdHMi-57" value="" style="endArrow=block;dashed=1;endFill=0;endSize=12;html=1;rounded=0;exitX=0.5;exitY=1;exitDx=0;exitDy=0;entryX=0.214;entryY=-0.036;entryDx=0;entryDy=0;entryPerimeter=0;" parent="1" edge="1" target="lAr8rIy2qU7t1nIHdHMi-80">
          <mxGeometry width="160" relative="1" as="geometry">
            <mxPoint x="223.56999999999994" y="590.79" as="sourcePoint" />
            <mxPoint x="224.15899999999988" y="791.1399999999999" as="targetPoint" />
            <Array as="points" />
          </mxGeometry>
        </mxCell>
        <mxCell id="iCC4JTs9K4Uw3LDeu22b-79" value="" style="edgeStyle=orthogonalEdgeStyle;rounded=0;orthogonalLoop=1;jettySize=auto;html=1;entryX=0.368;entryY=-0.021;entryDx=0;entryDy=0;entryPerimeter=0;" parent="1" source="lAr8rIy2qU7t1nIHdHMi-85" target="lAr8rIy2qU7t1nIHdHMi-66" edge="1">
          <mxGeometry relative="1" as="geometry">
            <mxPoint x="213" y="532" as="targetPoint" />
          </mxGeometry>
        </mxCell>
        <mxCell id="iCC4JTs9K4Uw3LDeu22b-81" style="edgeStyle=orthogonalEdgeStyle;rounded=0;orthogonalLoop=1;jettySize=auto;html=1;entryX=0;entryY=0.5;entryDx=0;entryDy=0;entryPerimeter=0;" parent="1" source="lAr8rIy2qU7t1nIHdHMi-85" target="lAr8rIy2qU7t1nIHdHMi-60" edge="1">
          <mxGeometry relative="1" as="geometry" />
        </mxCell>
        <mxCell id="iCC4JTs9K4Uw3LDeu22b-85" value="Участник уже &lt;br&gt;существует" style="text;html=1;align=center;verticalAlign=middle;resizable=0;points=[];autosize=1;strokeColor=none;fillColor=none;" parent="1" vertex="1">
          <mxGeometry x="473" y="523" width="100" height="40" as="geometry" />
        </mxCell>
        <mxCell id="iCC4JTs9K4Uw3LDeu22b-87" value="" style="endArrow=block;dashed=1;endFill=0;endSize=12;html=1;rounded=0;exitX=0.5;exitY=1;exitDx=0;exitDy=0;entryX=0.548;entryY=0;entryDx=0;entryDy=0;entryPerimeter=0;" parent="1" source="iCC4JTs9K4Uw3LDeu22b-82" target="lAr8rIy2qU7t1nIHdHMi-80" edge="1">
          <mxGeometry width="160" relative="1" as="geometry">
            <mxPoint x="343" y="722" as="sourcePoint" />
            <mxPoint x="503" y="722" as="targetPoint" />
          </mxGeometry>
        </mxCell>
        <mxCell id="iCC4JTs9K4Uw3LDeu22b-88" value="" style="strokeWidth=2;html=1;shape=mxgraph.flowchart.start_2;whiteSpace=wrap;fillColor=#FFFFFF;" parent="1" vertex="1">
          <mxGeometry x="523" y="603" width="10" height="8" as="geometry" />
        </mxCell>
        <mxCell id="6dUuj01utR2rJwDsA2vZ-33" value="" style="group" parent="1" vertex="1" connectable="0">
          <mxGeometry x="566" y="446" width="60" height="60" as="geometry" />
        </mxCell>
        <mxCell id="6dUuj01utR2rJwDsA2vZ-34" value="" style="strokeWidth=2;html=1;shape=mxgraph.flowchart.decision;whiteSpace=wrap;" parent="6dUuj01utR2rJwDsA2vZ-33" vertex="1">
          <mxGeometry width="60" height="60" as="geometry" />
        </mxCell>
        <mxCell id="6dUuj01utR2rJwDsA2vZ-35" value="" style="shape=umlDestroy;whiteSpace=wrap;html=1;strokeWidth=3;targetShapes=umlLifeline;" parent="6dUuj01utR2rJwDsA2vZ-33" vertex="1">
          <mxGeometry x="20" y="15" width="20" height="30" as="geometry" />
        </mxCell>
        <mxCell id="6dUuj01utR2rJwDsA2vZ-36" value="Рейтинг для &lt;br&gt;запрошенного класса &lt;br&gt;яхт существует?" style="text;html=1;align=center;verticalAlign=middle;resizable=0;points=[];autosize=1;strokeColor=none;fillColor=none;" parent="1" vertex="1">
          <mxGeometry x="516" y="388" width="140" height="60" as="geometry" />
        </mxCell>
        <mxCell id="6dUuj01utR2rJwDsA2vZ-37" style="edgeStyle=orthogonalEdgeStyle;rounded=0;orthogonalLoop=1;jettySize=auto;html=1;entryX=0;entryY=0.5;entryDx=0;entryDy=0;entryPerimeter=0;" parent="1" source="lAr8rIy2qU7t1nIHdHMi-60" target="6dUuj01utR2rJwDsA2vZ-34" edge="1">
          <mxGeometry relative="1" as="geometry" />
        </mxCell>
        <mxCell id="6dUuj01utR2rJwDsA2vZ-38" style="edgeStyle=orthogonalEdgeStyle;rounded=0;orthogonalLoop=1;jettySize=auto;html=1;entryX=0;entryY=0.5;entryDx=0;entryDy=0;" parent="1" source="6dUuj01utR2rJwDsA2vZ-34" target="lAr8rIy2qU7t1nIHdHMi-70" edge="1">
          <mxGeometry relative="1" as="geometry" />
        </mxCell>
        <mxCell id="6dUuj01utR2rJwDsA2vZ-40" value="" style="ellipse;whiteSpace=wrap;html=1;aspect=fixed;" parent="1" vertex="1">
          <mxGeometry x="646" y="558.79" width="50" height="50" as="geometry" />
        </mxCell>
        <mxCell id="6dUuj01utR2rJwDsA2vZ-41" value="" style="shape=message;html=1;html=1;outlineConnect=0;labelPosition=center;verticalLabelPosition=bottom;align=center;verticalAlign=top;" parent="1" vertex="1">
          <mxGeometry x="656" y="574.79" width="30" height="20" as="geometry" />
        </mxCell>
        <mxCell id="6dUuj01utR2rJwDsA2vZ-42" style="edgeStyle=orthogonalEdgeStyle;rounded=0;orthogonalLoop=1;jettySize=auto;html=1;entryX=0;entryY=0.5;entryDx=0;entryDy=0;" parent="1" target="6dUuj01utR2rJwDsA2vZ-40" edge="1">
          <mxGeometry relative="1" as="geometry">
            <mxPoint x="596" y="507" as="sourcePoint" />
            <Array as="points">
              <mxPoint x="596" y="583" />
              <mxPoint x="646" y="583" />
            </Array>
          </mxGeometry>
        </mxCell>
        <mxCell id="6dUuj01utR2rJwDsA2vZ-43" value="Яхты такого класса &lt;br&gt;не учавствуют в регате" style="text;html=1;align=center;verticalAlign=middle;resizable=0;points=[];autosize=1;strokeColor=none;fillColor=none;" parent="1" vertex="1">
          <mxGeometry x="591" y="524" width="150" height="40" as="geometry" />
        </mxCell>
        <mxCell id="6dUuj01utR2rJwDsA2vZ-44" value="" style="strokeWidth=2;html=1;shape=mxgraph.flowchart.start_2;whiteSpace=wrap;fillColor=#FFFFFF;" parent="1" vertex="1">
          <mxGeometry x="666" y="604" width="10" height="8" as="geometry" />
        </mxCell>
        <mxCell id="6dUuj01utR2rJwDsA2vZ-45" value="Нет" style="text;html=1;align=center;verticalAlign=middle;resizable=0;points=[];autosize=1;strokeColor=none;fillColor=none;" parent="1" vertex="1">
          <mxGeometry x="563" y="500" width="40" height="30" as="geometry" />
        </mxCell>
        <mxCell id="6dUuj01utR2rJwDsA2vZ-46" value="" style="endArrow=block;dashed=1;endFill=0;endSize=12;html=1;rounded=0;exitX=0.5;exitY=1;exitDx=0;exitDy=0;entryX=0.701;entryY=0.01;entryDx=0;entryDy=0;entryPerimeter=0;" parent="1" edge="1" target="lAr8rIy2qU7t1nIHdHMi-80">
          <mxGeometry width="160" relative="1" as="geometry">
            <mxPoint x="672" y="609" as="sourcePoint" />
            <mxPoint x="672" y="791" as="targetPoint" />
          </mxGeometry>
        </mxCell>
        <mxCell id="6dUuj01utR2rJwDsA2vZ-47" value="" style="endArrow=block;dashed=1;endFill=0;endSize=12;html=1;rounded=0;exitX=0.5;exitY=1;exitDx=0;exitDy=0;exitPerimeter=0;entryX=0.934;entryY=0.008;entryDx=0;entryDy=0;entryPerimeter=0;" parent="1" source="lAr8rIy2qU7t1nIHdHMi-92" edge="1" target="lAr8rIy2qU7t1nIHdHMi-80">
          <mxGeometry width="160" relative="1" as="geometry">
            <mxPoint x="602" y="673" as="sourcePoint" />
            <mxPoint x="888.56" y="790.1000000000004" as="targetPoint" />
          </mxGeometry>
        </mxCell>
        <mxCell id="y9EL-6pZuK4NWNqzGpKc-101" value="&lt;b&gt;Судья&lt;/b&gt;" style="swimlane;html=1;startSize=20;horizontal=0;fontStyle=0;fontSize=11;" parent="1" vertex="1">
          <mxGeometry x="40" y="177" width="790" height="193" as="geometry" />
        </mxCell>
        <mxCell id="y9EL-6pZuK4NWNqzGpKc-102" value="Ввести логин и пароль" style="points=[[0.25,0,0],[0.5,0,0],[0.75,0,0],[1,0.25,0],[1,0.5,0],[1,0.75,0],[0.75,1,0],[0.5,1,0],[0.25,1,0],[0,0.75,0],[0,0.5,0],[0,0.25,0]];shape=mxgraph.bpmn.task;whiteSpace=wrap;rectStyle=rounded;size=10;html=1;container=1;expand=0;collapsible=0;taskMarker=abstract;fontSize=11;" parent="y9EL-6pZuK4NWNqzGpKc-101" vertex="1">
          <mxGeometry x="244" y="25" width="90" height="60" as="geometry" />
        </mxCell>
        <mxCell id="y9EL-6pZuK4NWNqzGpKc-103" value="Открыть окно авторизации" style="points=[[0.25,0,0],[0.5,0,0],[0.75,0,0],[1,0.25,0],[1,0.5,0],[1,0.75,0],[0.75,1,0],[0.5,1,0],[0.25,1,0],[0,0.75,0],[0,0.5,0],[0,0.25,0]];shape=mxgraph.bpmn.task;whiteSpace=wrap;rectStyle=rounded;size=10;html=1;container=1;expand=0;collapsible=0;taskMarker=abstract;fontSize=11;" parent="y9EL-6pZuK4NWNqzGpKc-101" vertex="1">
          <mxGeometry x="109" y="25" width="90" height="60" as="geometry" />
        </mxCell>
        <mxCell id="y9EL-6pZuK4NWNqzGpKc-104" style="edgeStyle=orthogonalEdgeStyle;rounded=0;orthogonalLoop=1;jettySize=auto;html=1;exitX=1;exitY=0.5;exitDx=0;exitDy=0;exitPerimeter=0;entryX=0;entryY=0.5;entryDx=0;entryDy=0;entryPerimeter=0;fontSize=11;" parent="y9EL-6pZuK4NWNqzGpKc-101" source="y9EL-6pZuK4NWNqzGpKc-103" target="y9EL-6pZuK4NWNqzGpKc-102" edge="1">
          <mxGeometry relative="1" as="geometry">
            <mxPoint x="259" y="-45" as="targetPoint" />
          </mxGeometry>
        </mxCell>
        <mxCell id="y9EL-6pZuK4NWNqzGpKc-105" value="Проверка результата" style="points=[[0.25,0,0],[0.5,0,0],[0.75,0,0],[1,0.25,0],[1,0.5,0],[1,0.75,0],[0.75,1,0],[0.5,1,0],[0.25,1,0],[0,0.75,0],[0,0.5,0],[0,0.25,0]];shape=mxgraph.bpmn.task;whiteSpace=wrap;rectStyle=rounded;size=10;html=1;container=1;expand=0;collapsible=0;taskMarker=abstract;fontSize=11;" parent="y9EL-6pZuK4NWNqzGpKc-101" vertex="1">
          <mxGeometry x="374" y="25" width="90" height="60" as="geometry" />
        </mxCell>
        <mxCell id="y9EL-6pZuK4NWNqzGpKc-106" style="edgeStyle=orthogonalEdgeStyle;rounded=0;orthogonalLoop=1;jettySize=auto;html=1;exitX=1;exitY=0.5;exitDx=0;exitDy=0;exitPerimeter=0;entryX=0;entryY=0.5;entryDx=0;entryDy=0;entryPerimeter=0;fontSize=11;" parent="y9EL-6pZuK4NWNqzGpKc-101" source="y9EL-6pZuK4NWNqzGpKc-102" target="y9EL-6pZuK4NWNqzGpKc-105" edge="1">
          <mxGeometry relative="1" as="geometry" />
        </mxCell>
        <mxCell id="y9EL-6pZuK4NWNqzGpKc-107" value="" style="points=[[0.25,0.25,0],[0.5,0,0],[0.75,0.25,0],[1,0.5,0],[0.75,0.75,0],[0.5,1,0],[0.25,0.75,0],[0,0.5,0]];shape=mxgraph.bpmn.gateway2;html=1;verticalLabelPosition=bottom;labelBackgroundColor=#ffffff;verticalAlign=top;align=center;perimeter=rhombusPerimeter;outlineConnect=0;outline=none;symbol=none;gwType=exclusive;fontSize=11;" parent="y9EL-6pZuK4NWNqzGpKc-101" vertex="1">
          <mxGeometry x="504" y="40" width="30" height="30" as="geometry" />
        </mxCell>
        <mxCell id="y9EL-6pZuK4NWNqzGpKc-108" value="&lt;span style=&quot;background-color: rgb(251, 251, 251); font-size: 11px;&quot;&gt;Авторизация успешна&lt;/span&gt;&lt;span style=&quot;background-color: rgb(255, 255, 255); font-size: 11px;&quot;&gt;?&lt;/span&gt;" style="text;html=1;strokeColor=none;fillColor=none;align=center;verticalAlign=middle;whiteSpace=wrap;rounded=0;fontSize=11;" parent="y9EL-6pZuK4NWNqzGpKc-101" vertex="1">
          <mxGeometry x="464" y="8" width="110" height="30" as="geometry" />
        </mxCell>
        <mxCell id="y9EL-6pZuK4NWNqzGpKc-109" value="Вывести сообщение об ошибке" style="points=[[0.25,0,0],[0.5,0,0],[0.75,0,0],[1,0.25,0],[1,0.5,0],[1,0.75,0],[0.75,1,0],[0.5,1,0],[0.25,1,0],[0,0.75,0],[0,0.5,0],[0,0.25,0]];shape=mxgraph.bpmn.task;whiteSpace=wrap;rectStyle=rounded;size=10;html=1;container=1;expand=0;collapsible=0;taskMarker=abstract;fontSize=11;" parent="y9EL-6pZuK4NWNqzGpKc-101" vertex="1">
          <mxGeometry x="244" y="115" width="90" height="60" as="geometry" />
        </mxCell>
        <mxCell id="y9EL-6pZuK4NWNqzGpKc-110" style="edgeStyle=orthogonalEdgeStyle;shape=connector;rounded=1;orthogonalLoop=1;jettySize=auto;html=1;exitX=1;exitY=0.5;exitDx=0;exitDy=0;exitPerimeter=0;entryX=0;entryY=0.5;entryDx=0;entryDy=0;entryPerimeter=0;labelBackgroundColor=default;strokeColor=default;align=center;verticalAlign=middle;fontFamily=Helvetica;fontSize=11;fontColor=default;endArrow=classic;" parent="y9EL-6pZuK4NWNqzGpKc-101" source="y9EL-6pZuK4NWNqzGpKc-105" target="y9EL-6pZuK4NWNqzGpKc-107" edge="1">
          <mxGeometry relative="1" as="geometry" />
        </mxCell>
        <mxCell id="y9EL-6pZuK4NWNqzGpKc-111" style="edgeStyle=orthogonalEdgeStyle;shape=connector;rounded=1;orthogonalLoop=1;jettySize=auto;html=1;exitX=1;exitY=0.5;exitDx=0;exitDy=0;exitPerimeter=0;entryX=0;entryY=0.5;entryDx=0;entryDy=0;entryPerimeter=0;labelBackgroundColor=default;strokeColor=default;align=center;verticalAlign=middle;fontFamily=Helvetica;fontSize=11;fontColor=default;endArrow=classic;" parent="y9EL-6pZuK4NWNqzGpKc-101" source="y9EL-6pZuK4NWNqzGpKc-107" target="y9EL-6pZuK4NWNqzGpKc-115" edge="1">
          <mxGeometry relative="1" as="geometry">
            <mxPoint x="614" y="55.000000000000114" as="targetPoint" />
          </mxGeometry>
        </mxCell>
        <mxCell id="y9EL-6pZuK4NWNqzGpKc-112" value="Да" style="edgeLabel;html=1;align=center;verticalAlign=middle;resizable=0;points=[];fontSize=11;fontFamily=Helvetica;fontColor=default;" parent="y9EL-6pZuK4NWNqzGpKc-111" vertex="1" connectable="0">
          <mxGeometry x="-0.2949" relative="1" as="geometry">
            <mxPoint x="5" as="offset" />
          </mxGeometry>
        </mxCell>
        <mxCell id="y9EL-6pZuK4NWNqzGpKc-113" style="edgeStyle=orthogonalEdgeStyle;shape=connector;rounded=1;orthogonalLoop=1;jettySize=auto;html=1;exitX=0.5;exitY=1;exitDx=0;exitDy=0;exitPerimeter=0;entryX=1;entryY=0.5;entryDx=0;entryDy=0;entryPerimeter=0;labelBackgroundColor=default;strokeColor=default;align=center;verticalAlign=middle;fontFamily=Helvetica;fontSize=11;fontColor=default;endArrow=classic;" parent="y9EL-6pZuK4NWNqzGpKc-101" source="y9EL-6pZuK4NWNqzGpKc-107" target="y9EL-6pZuK4NWNqzGpKc-109" edge="1">
          <mxGeometry relative="1" as="geometry" />
        </mxCell>
        <mxCell id="gjv2SjhWzwrO5W-jnZNF-12" value="Нет" style="edgeLabel;html=1;align=center;verticalAlign=middle;resizable=0;points=[];" parent="y9EL-6pZuK4NWNqzGpKc-113" vertex="1" connectable="0">
          <mxGeometry x="-0.8121" y="-2" relative="1" as="geometry">
            <mxPoint as="offset" />
          </mxGeometry>
        </mxCell>
        <mxCell id="y9EL-6pZuK4NWNqzGpKc-114" style="edgeStyle=orthogonalEdgeStyle;shape=connector;rounded=1;orthogonalLoop=1;jettySize=auto;html=1;exitX=0;exitY=0.5;exitDx=0;exitDy=0;exitPerimeter=0;entryX=0.5;entryY=1;entryDx=0;entryDy=0;entryPerimeter=0;labelBackgroundColor=default;strokeColor=default;align=center;verticalAlign=middle;fontFamily=Helvetica;fontSize=11;fontColor=default;endArrow=classic;" parent="y9EL-6pZuK4NWNqzGpKc-101" source="y9EL-6pZuK4NWNqzGpKc-109" target="y9EL-6pZuK4NWNqzGpKc-103" edge="1">
          <mxGeometry relative="1" as="geometry" />
        </mxCell>
        <mxCell id="y9EL-6pZuK4NWNqzGpKc-115" value="Перевести пользователя на главную страницу" style="points=[[0.25,0,0],[0.5,0,0],[0.75,0,0],[1,0.25,0],[1,0.5,0],[1,0.75,0],[0.75,1,0],[0.5,1,0],[0.25,1,0],[0,0.75,0],[0,0.5,0],[0,0.25,0]];shape=mxgraph.bpmn.task;whiteSpace=wrap;rectStyle=rounded;size=10;html=1;container=1;expand=0;collapsible=0;taskMarker=abstract;fontSize=11;" parent="y9EL-6pZuK4NWNqzGpKc-101" vertex="1">
          <mxGeometry x="604" y="25" width="90" height="60" as="geometry" />
        </mxCell>
        <mxCell id="y9EL-6pZuK4NWNqzGpKc-116" value="Авторизация&lt;br style=&quot;font-size: 11px;&quot;&gt;успешна" style="points=[[0.145,0.145,0],[0.5,0,0],[0.855,0.145,0],[1,0.5,0],[0.855,0.855,0],[0.5,1,0],[0.145,0.855,0],[0,0.5,0]];shape=mxgraph.bpmn.event;html=1;verticalLabelPosition=bottom;labelBackgroundColor=#ffffff;verticalAlign=top;align=center;perimeter=ellipsePerimeter;outlineConnect=0;aspect=fixed;outline=end;symbol=terminate2;fontFamily=Helvetica;fontSize=11;fontColor=default;" parent="y9EL-6pZuK4NWNqzGpKc-101" vertex="1">
          <mxGeometry x="734" y="40" width="30" height="30" as="geometry" />
        </mxCell>
        <mxCell id="y9EL-6pZuK4NWNqzGpKc-117" style="edgeStyle=orthogonalEdgeStyle;shape=connector;rounded=1;orthogonalLoop=1;jettySize=auto;html=1;exitX=1;exitY=0.5;exitDx=0;exitDy=0;exitPerimeter=0;entryX=0;entryY=0.5;entryDx=0;entryDy=0;entryPerimeter=0;labelBackgroundColor=default;strokeColor=default;align=center;verticalAlign=middle;fontFamily=Helvetica;fontSize=11;fontColor=default;endArrow=classic;" parent="y9EL-6pZuK4NWNqzGpKc-101" source="y9EL-6pZuK4NWNqzGpKc-115" target="y9EL-6pZuK4NWNqzGpKc-116" edge="1">
          <mxGeometry relative="1" as="geometry" />
        </mxCell>
        <mxCell id="gjv2SjhWzwrO5W-jnZNF-5" value="" style="points=[[0.145,0.145,0],[0.5,0,0],[0.855,0.145,0],[1,0.5,0],[0.855,0.855,0],[0.5,1,0],[0.145,0.855,0],[0,0.5,0]];shape=mxgraph.bpmn.event;html=1;verticalLabelPosition=bottom;labelBackgroundColor=#ffffff;verticalAlign=top;align=center;perimeter=ellipsePerimeter;outlineConnect=0;aspect=fixed;outline=standard;symbol=general;fontSize=11;" parent="y9EL-6pZuK4NWNqzGpKc-101" vertex="1">
          <mxGeometry x="33" y="38" width="30" height="30" as="geometry" />
        </mxCell>
        <mxCell id="gjv2SjhWzwrO5W-jnZNF-6" style="edgeStyle=orthogonalEdgeStyle;rounded=0;orthogonalLoop=1;jettySize=auto;html=1;exitX=1;exitY=0.5;exitDx=0;exitDy=0;exitPerimeter=0;entryX=0;entryY=0.5;entryDx=0;entryDy=0;entryPerimeter=0;fontSize=11;" parent="y9EL-6pZuK4NWNqzGpKc-101" source="gjv2SjhWzwrO5W-jnZNF-5" edge="1">
          <mxGeometry relative="1" as="geometry">
            <mxPoint x="108" y="53" as="targetPoint" />
          </mxGeometry>
        </mxCell>
        <mxCell id="y9EL-6pZuK4NWNqzGpKc-80" value="&lt;b&gt;Главный судья&lt;/b&gt;" style="swimlane;html=1;startSize=20;horizontal=0;fontStyle=0;fontSize=11;" parent="1" vertex="1">
          <mxGeometry x="40" y="-60" width="740" height="210" as="geometry" />
        </mxCell>
        <mxCell id="y9EL-6pZuK4NWNqzGpKc-81" value="" style="points=[[0.145,0.145,0],[0.5,0,0],[0.855,0.145,0],[1,0.5,0],[0.855,0.855,0],[0.5,1,0],[0.145,0.855,0],[0,0.5,0]];shape=mxgraph.bpmn.event;html=1;verticalLabelPosition=bottom;labelBackgroundColor=#ffffff;verticalAlign=top;align=center;perimeter=ellipsePerimeter;outlineConnect=0;aspect=fixed;outline=standard;symbol=general;fontSize=11;" parent="y9EL-6pZuK4NWNqzGpKc-80" vertex="1">
          <mxGeometry x="35" y="54" width="30" height="30" as="geometry" />
        </mxCell>
        <mxCell id="y9EL-6pZuK4NWNqzGpKc-82" style="edgeStyle=orthogonalEdgeStyle;rounded=0;orthogonalLoop=1;jettySize=auto;html=1;exitX=1;exitY=0.5;exitDx=0;exitDy=0;exitPerimeter=0;entryX=0;entryY=0.5;entryDx=0;entryDy=0;entryPerimeter=0;fontSize=11;" parent="y9EL-6pZuK4NWNqzGpKc-80" source="y9EL-6pZuK4NWNqzGpKc-81" edge="1">
          <mxGeometry relative="1" as="geometry">
            <mxPoint x="110" y="69" as="targetPoint" />
          </mxGeometry>
        </mxCell>
        <mxCell id="y9EL-6pZuK4NWNqzGpKc-84" value="Открыть окно регистрации" style="points=[[0.25,0,0],[0.5,0,0],[0.75,0,0],[1,0.25,0],[1,0.5,0],[1,0.75,0],[0.75,1,0],[0.5,1,0],[0.25,1,0],[0,0.75,0],[0,0.5,0],[0,0.25,0]];shape=mxgraph.bpmn.task;whiteSpace=wrap;rectStyle=rounded;size=10;html=1;container=1;expand=0;collapsible=0;taskMarker=abstract;fontSize=11;" parent="y9EL-6pZuK4NWNqzGpKc-80" vertex="1">
          <mxGeometry x="111" y="39" width="90" height="60" as="geometry" />
        </mxCell>
        <mxCell id="gjv2SjhWzwrO5W-jnZNF-10" style="edgeStyle=orthogonalEdgeStyle;rounded=0;orthogonalLoop=1;jettySize=auto;html=1;" parent="y9EL-6pZuK4NWNqzGpKc-80" source="y9EL-6pZuK4NWNqzGpKc-85" target="gjv2SjhWzwrO5W-jnZNF-9" edge="1">
          <mxGeometry relative="1" as="geometry" />
        </mxCell>
        <mxCell id="y9EL-6pZuK4NWNqzGpKc-85" value="Ввести данные для регистрации" style="points=[[0.25,0,0],[0.5,0,0],[0.75,0,0],[1,0.25,0],[1,0.5,0],[1,0.75,0],[0.75,1,0],[0.5,1,0],[0.25,1,0],[0,0.75,0],[0,0.5,0],[0,0.25,0]];shape=mxgraph.bpmn.task;whiteSpace=wrap;rectStyle=rounded;size=10;html=1;container=1;expand=0;collapsible=0;taskMarker=abstract;fontSize=11;" parent="y9EL-6pZuK4NWNqzGpKc-80" vertex="1">
          <mxGeometry x="231" y="39" width="90" height="60" as="geometry" />
        </mxCell>
        <mxCell id="y9EL-6pZuK4NWNqzGpKc-86" style="edgeStyle=orthogonalEdgeStyle;rounded=0;orthogonalLoop=1;jettySize=auto;html=1;exitX=1;exitY=0.5;exitDx=0;exitDy=0;exitPerimeter=0;entryX=0;entryY=0.5;entryDx=0;entryDy=0;entryPerimeter=0;fontSize=11;" parent="y9EL-6pZuK4NWNqzGpKc-80" source="y9EL-6pZuK4NWNqzGpKc-84" target="y9EL-6pZuK4NWNqzGpKc-85" edge="1">
          <mxGeometry relative="1" as="geometry" />
        </mxCell>
        <mxCell id="y9EL-6pZuK4NWNqzGpKc-89" value="" style="points=[[0.25,0.25,0],[0.5,0,0],[0.75,0.25,0],[1,0.5,0],[0.75,0.75,0],[0.5,1,0],[0.25,0.75,0],[0,0.5,0]];shape=mxgraph.bpmn.gateway2;html=1;verticalLabelPosition=bottom;labelBackgroundColor=#ffffff;verticalAlign=top;align=center;perimeter=rhombusPerimeter;outlineConnect=0;outline=none;symbol=none;gwType=exclusive;fontSize=11;" parent="y9EL-6pZuK4NWNqzGpKc-80" vertex="1">
          <mxGeometry x="605" y="54" width="30" height="30" as="geometry" />
        </mxCell>
        <mxCell id="y9EL-6pZuK4NWNqzGpKc-90" style="edgeStyle=orthogonalEdgeStyle;rounded=0;orthogonalLoop=1;jettySize=auto;html=1;exitX=1;exitY=0.5;exitDx=0;exitDy=0;exitPerimeter=0;entryX=0;entryY=0.5;entryDx=0;entryDy=0;entryPerimeter=0;fontSize=11;" parent="y9EL-6pZuK4NWNqzGpKc-80" source="y9EL-6pZuK4NWNqzGpKc-94" target="y9EL-6pZuK4NWNqzGpKc-89" edge="1">
          <mxGeometry relative="1" as="geometry" />
        </mxCell>
        <mxCell id="y9EL-6pZuK4NWNqzGpKc-91" value="&lt;span style=&quot;background-color: rgb(251, 251, 251); font-size: 11px;&quot;&gt;Регистрация успешна&lt;/span&gt;&lt;span style=&quot;background-color: rgb(255, 255, 255); font-size: 11px;&quot;&gt;?&lt;/span&gt;" style="text;html=1;strokeColor=none;fillColor=none;align=center;verticalAlign=middle;whiteSpace=wrap;rounded=0;fontSize=11;" parent="y9EL-6pZuK4NWNqzGpKc-80" vertex="1">
          <mxGeometry x="565" y="14" width="110" height="30" as="geometry" />
        </mxCell>
        <mxCell id="y9EL-6pZuK4NWNqzGpKc-92" style="edgeStyle=orthogonalEdgeStyle;orthogonalLoop=1;jettySize=auto;html=1;exitX=0.5;exitY=1;exitDx=0;exitDy=0;exitPerimeter=0;entryX=1;entryY=0.5;entryDx=0;entryDy=0;entryPerimeter=0;rounded=1;fontSize=11;" parent="y9EL-6pZuK4NWNqzGpKc-80" source="y9EL-6pZuK4NWNqzGpKc-89" target="y9EL-6pZuK4NWNqzGpKc-96" edge="1">
          <mxGeometry relative="1" as="geometry" />
        </mxCell>
        <mxCell id="y9EL-6pZuK4NWNqzGpKc-93" style="edgeStyle=orthogonalEdgeStyle;rounded=1;orthogonalLoop=1;jettySize=auto;html=1;exitX=0;exitY=0.5;exitDx=0;exitDy=0;exitPerimeter=0;entryX=0.5;entryY=1;entryDx=0;entryDy=0;entryPerimeter=0;fontSize=11;" parent="y9EL-6pZuK4NWNqzGpKc-80" source="y9EL-6pZuK4NWNqzGpKc-96" target="y9EL-6pZuK4NWNqzGpKc-84" edge="1">
          <mxGeometry relative="1" as="geometry" />
        </mxCell>
        <mxCell id="y9EL-6pZuK4NWNqzGpKc-94" value="Проверка результата" style="points=[[0.25,0,0],[0.5,0,0],[0.75,0,0],[1,0.25,0],[1,0.5,0],[1,0.75,0],[0.75,1,0],[0.5,1,0],[0.25,1,0],[0,0.75,0],[0,0.5,0],[0,0.25,0]];shape=mxgraph.bpmn.task;whiteSpace=wrap;rectStyle=rounded;size=10;html=1;container=1;expand=0;collapsible=0;taskMarker=abstract;fontSize=11;" parent="y9EL-6pZuK4NWNqzGpKc-80" vertex="1">
          <mxGeometry x="475" y="39" width="90" height="60" as="geometry" />
        </mxCell>
        <mxCell id="y9EL-6pZuK4NWNqzGpKc-96" value="Вывести сообщение об ошибке" style="points=[[0.25,0,0],[0.5,0,0],[0.75,0,0],[1,0.25,0],[1,0.5,0],[1,0.75,0],[0.75,1,0],[0.5,1,0],[0.25,1,0],[0,0.75,0],[0,0.5,0],[0,0.25,0]];shape=mxgraph.bpmn.task;whiteSpace=wrap;rectStyle=rounded;size=10;html=1;container=1;expand=0;collapsible=0;taskMarker=abstract;fontSize=11;" parent="y9EL-6pZuK4NWNqzGpKc-80" vertex="1">
          <mxGeometry x="345" y="134" width="90" height="60" as="geometry" />
        </mxCell>
        <mxCell id="gjv2SjhWzwrO5W-jnZNF-7" value="Регистрация &lt;br&gt;успешна" style="points=[[0.145,0.145,0],[0.5,0,0],[0.855,0.145,0],[1,0.5,0],[0.855,0.855,0],[0.5,1,0],[0.145,0.855,0],[0,0.5,0]];shape=mxgraph.bpmn.event;html=1;verticalLabelPosition=bottom;labelBackgroundColor=#ffffff;verticalAlign=top;align=center;perimeter=ellipsePerimeter;outlineConnect=0;aspect=fixed;outline=end;symbol=terminate2;fontFamily=Helvetica;fontSize=11;fontColor=default;" parent="y9EL-6pZuK4NWNqzGpKc-80" vertex="1">
          <mxGeometry x="675" y="54" width="30" height="30" as="geometry" />
        </mxCell>
        <mxCell id="gjv2SjhWzwrO5W-jnZNF-8" style="edgeStyle=orthogonalEdgeStyle;shape=connector;rounded=1;orthogonalLoop=1;jettySize=auto;html=1;exitX=1;exitY=0.5;exitDx=0;exitDy=0;exitPerimeter=0;entryX=0;entryY=0.5;entryDx=0;entryDy=0;entryPerimeter=0;labelBackgroundColor=default;strokeColor=default;align=center;verticalAlign=middle;fontFamily=Helvetica;fontSize=11;fontColor=default;endArrow=classic;" parent="y9EL-6pZuK4NWNqzGpKc-80" target="gjv2SjhWzwrO5W-jnZNF-7" edge="1">
          <mxGeometry relative="1" as="geometry">
            <mxPoint x="635" y="69" as="sourcePoint" />
          </mxGeometry>
        </mxCell>
        <mxCell id="gjv2SjhWzwrO5W-jnZNF-9" value="Отправка данных для регистрации" style="points=[[0.25,0,0],[0.5,0,0],[0.75,0,0],[1,0.25,0],[1,0.5,0],[1,0.75,0],[0.75,1,0],[0.5,1,0],[0.25,1,0],[0,0.75,0],[0,0.5,0],[0,0.25,0]];shape=mxgraph.bpmn.task;whiteSpace=wrap;rectStyle=rounded;size=10;html=1;container=1;expand=0;collapsible=0;taskMarker=abstract;fontSize=11;" parent="y9EL-6pZuK4NWNqzGpKc-80" vertex="1">
          <mxGeometry x="355" y="39" width="90" height="60" as="geometry" />
        </mxCell>
        <mxCell id="gjv2SjhWzwrO5W-jnZNF-11" style="edgeStyle=orthogonalEdgeStyle;rounded=0;orthogonalLoop=1;jettySize=auto;html=1;entryX=0;entryY=0.5;entryDx=0;entryDy=0;entryPerimeter=0;" parent="y9EL-6pZuK4NWNqzGpKc-80" source="gjv2SjhWzwrO5W-jnZNF-9" target="y9EL-6pZuK4NWNqzGpKc-94" edge="1">
          <mxGeometry relative="1" as="geometry" />
        </mxCell>
        <mxCell id="gjv2SjhWzwrO5W-jnZNF-13" value="&lt;b style=&quot;border-color: var(--border-color); font-size: 11px;&quot;&gt;Вход судьи в систему&lt;/b&gt;" style="swimlane;horizontal=0;whiteSpace=wrap;html=1;" parent="1" vertex="1">
          <mxGeometry x="17" y="177" width="813" height="193" as="geometry" />
        </mxCell>
        <mxCell id="gjv2SjhWzwrO5W-jnZNF-14" value="&lt;b style=&quot;border-color: var(--border-color); font-size: 11px;&quot;&gt;Регистрация судьи&lt;/b&gt;" style="swimlane;horizontal=0;whiteSpace=wrap;html=1;" parent="1" vertex="1">
          <mxGeometry x="17" y="-60" width="763" height="210" as="geometry" />
        </mxCell>
      </root>
    </mxGraphModel>
  </diagram>
  <diagram id="gmgUY3qYMB1GF8RBZXBF" name="UML_COMP">
    <mxGraphModel dx="521" dy="661" grid="1" gridSize="10" guides="1" tooltips="1" connect="1" arrows="1" fold="1" page="1" pageScale="1" pageWidth="827" pageHeight="1169" math="0" shadow="0">
      <root>
        <mxCell id="0" />
        <mxCell id="1" parent="0" />
        <mxCell id="C8zYE8Z0Hit05d4xnP-8-5" style="edgeStyle=orthogonalEdgeStyle;rounded=0;orthogonalLoop=1;jettySize=auto;html=1;" edge="1" parent="1" source="C8zYE8Z0Hit05d4xnP-8-1" target="C8zYE8Z0Hit05d4xnP-8-2">
          <mxGeometry relative="1" as="geometry" />
        </mxCell>
        <mxCell id="C8zYE8Z0Hit05d4xnP-8-1" value="UI" style="shape=module;align=left;spacingLeft=20;align=center;verticalAlign=top;whiteSpace=wrap;html=1;" vertex="1" parent="1">
          <mxGeometry x="160" y="430" width="100" height="50" as="geometry" />
        </mxCell>
        <mxCell id="C8zYE8Z0Hit05d4xnP-8-2" value="BL" style="shape=module;align=left;spacingLeft=20;align=center;verticalAlign=top;whiteSpace=wrap;html=1;" vertex="1" parent="1">
          <mxGeometry x="160" y="504" width="100" height="50" as="geometry" />
        </mxCell>
        <mxCell id="C8zYE8Z0Hit05d4xnP-8-6" style="edgeStyle=orthogonalEdgeStyle;rounded=0;orthogonalLoop=1;jettySize=auto;html=1;" edge="1" parent="1" source="C8zYE8Z0Hit05d4xnP-8-3" target="C8zYE8Z0Hit05d4xnP-8-2">
          <mxGeometry relative="1" as="geometry" />
        </mxCell>
        <mxCell id="C8zYE8Z0Hit05d4xnP-8-3" value="DA" style="shape=module;align=left;spacingLeft=20;align=center;verticalAlign=top;whiteSpace=wrap;html=1;" vertex="1" parent="1">
          <mxGeometry x="160" y="580" width="100" height="50" as="geometry" />
        </mxCell>
      </root>
    </mxGraphModel>
  </diagram>
  <diagram id="MdRs5PsULRKM-mfvGiIJ" name="UML_BL_DA">
    <mxGraphModel dx="868" dy="1102" grid="1" gridSize="10" guides="1" tooltips="1" connect="1" arrows="1" fold="1" page="1" pageScale="1" pageWidth="827" pageHeight="1169" math="0" shadow="0">
      <root>
        <mxCell id="0" />
        <mxCell id="1" parent="0" />
        <mxCell id="WB6E2riDuNXqMOzHRIsB-1" value="" style="shape=folder;fontStyle=1;spacingTop=10;tabWidth=40;tabHeight=14;tabPosition=left;html=1;whiteSpace=wrap;" vertex="1" parent="1">
          <mxGeometry x="230" y="148" width="1160" height="600" as="geometry" />
        </mxCell>
        <mxCell id="_apQc8J739DkNibHtel_-1" value="" style="shape=folder;fontStyle=1;spacingTop=10;tabWidth=40;tabHeight=14;tabPosition=left;html=1;whiteSpace=wrap;" vertex="1" parent="1">
          <mxGeometry x="230" y="778" width="1160" height="220" as="geometry" />
        </mxCell>
        <mxCell id="S8wDH4NiLYc3P9s00ByU-1" value="ParticipantService" style="swimlane;fontStyle=0;childLayout=stackLayout;horizontal=1;startSize=26;fillColor=none;horizontalStack=0;resizeParent=1;resizeParentMax=0;resizeLast=0;collapsible=1;marginBottom=0;whiteSpace=wrap;html=1;" vertex="1" parent="1">
          <mxGeometry x="270" y="378" width="140" height="130" as="geometry" />
        </mxCell>
        <mxCell id="S8wDH4NiLYc3P9s00ByU-2" value="+ create()" style="text;strokeColor=none;fillColor=none;align=left;verticalAlign=top;spacingLeft=4;spacingRight=4;overflow=hidden;rotatable=0;points=[[0,0.5],[1,0.5]];portConstraint=eastwest;whiteSpace=wrap;html=1;" vertex="1" parent="S8wDH4NiLYc3P9s00ByU-1">
          <mxGeometry y="26" width="140" height="26" as="geometry" />
        </mxCell>
        <mxCell id="djYnsQmjDLLJH66xJvrr-30" value="+ delete()" style="text;strokeColor=none;fillColor=none;align=left;verticalAlign=top;spacingLeft=4;spacingRight=4;overflow=hidden;rotatable=0;points=[[0,0.5],[1,0.5]];portConstraint=eastwest;whiteSpace=wrap;html=1;" vertex="1" parent="S8wDH4NiLYc3P9s00ByU-1">
          <mxGeometry y="52" width="140" height="26" as="geometry" />
        </mxCell>
        <mxCell id="S8wDH4NiLYc3P9s00ByU-3" value="+ update()" style="text;strokeColor=none;fillColor=none;align=left;verticalAlign=top;spacingLeft=4;spacingRight=4;overflow=hidden;rotatable=0;points=[[0,0.5],[1,0.5]];portConstraint=eastwest;whiteSpace=wrap;html=1;" vertex="1" parent="S8wDH4NiLYc3P9s00ByU-1">
          <mxGeometry y="78" width="140" height="26" as="geometry" />
        </mxCell>
        <mxCell id="S8wDH4NiLYc3P9s00ByU-4" value="+ getParticipantByID()" style="text;strokeColor=none;fillColor=none;align=left;verticalAlign=top;spacingLeft=4;spacingRight=4;overflow=hidden;rotatable=0;points=[[0,0.5],[1,0.5]];portConstraint=eastwest;whiteSpace=wrap;html=1;" vertex="1" parent="S8wDH4NiLYc3P9s00ByU-1">
          <mxGeometry y="104" width="140" height="26" as="geometry" />
        </mxCell>
        <mxCell id="djYnsQmjDLLJH66xJvrr-1" value="IParticipantService" style="swimlane;fontStyle=0;childLayout=stackLayout;horizontal=1;startSize=26;fillColor=none;horizontalStack=0;resizeParent=1;resizeParentMax=0;resizeLast=0;collapsible=1;marginBottom=0;whiteSpace=wrap;html=1;" vertex="1" parent="1">
          <mxGeometry x="270" y="188" width="140" height="130" as="geometry" />
        </mxCell>
        <mxCell id="djYnsQmjDLLJH66xJvrr-2" value="+ create()" style="text;strokeColor=none;fillColor=none;align=left;verticalAlign=top;spacingLeft=4;spacingRight=4;overflow=hidden;rotatable=0;points=[[0,0.5],[1,0.5]];portConstraint=eastwest;whiteSpace=wrap;html=1;" vertex="1" parent="djYnsQmjDLLJH66xJvrr-1">
          <mxGeometry y="26" width="140" height="26" as="geometry" />
        </mxCell>
        <mxCell id="djYnsQmjDLLJH66xJvrr-29" value="+ delete()" style="text;strokeColor=none;fillColor=none;align=left;verticalAlign=top;spacingLeft=4;spacingRight=4;overflow=hidden;rotatable=0;points=[[0,0.5],[1,0.5]];portConstraint=eastwest;whiteSpace=wrap;html=1;" vertex="1" parent="djYnsQmjDLLJH66xJvrr-1">
          <mxGeometry y="52" width="140" height="26" as="geometry" />
        </mxCell>
        <mxCell id="djYnsQmjDLLJH66xJvrr-3" value="+ update()" style="text;strokeColor=none;fillColor=none;align=left;verticalAlign=top;spacingLeft=4;spacingRight=4;overflow=hidden;rotatable=0;points=[[0,0.5],[1,0.5]];portConstraint=eastwest;whiteSpace=wrap;html=1;" vertex="1" parent="djYnsQmjDLLJH66xJvrr-1">
          <mxGeometry y="78" width="140" height="26" as="geometry" />
        </mxCell>
        <mxCell id="djYnsQmjDLLJH66xJvrr-4" value="+ getParticipantByID()" style="text;strokeColor=none;fillColor=none;align=left;verticalAlign=top;spacingLeft=4;spacingRight=4;overflow=hidden;rotatable=0;points=[[0,0.5],[1,0.5]];portConstraint=eastwest;whiteSpace=wrap;html=1;" vertex="1" parent="djYnsQmjDLLJH66xJvrr-1">
          <mxGeometry y="104" width="140" height="26" as="geometry" />
        </mxCell>
        <mxCell id="djYnsQmjDLLJH66xJvrr-5" value="IJudgeService" style="swimlane;fontStyle=0;childLayout=stackLayout;horizontal=1;startSize=26;fillColor=none;horizontalStack=0;resizeParent=1;resizeParentMax=0;resizeLast=0;collapsible=1;marginBottom=0;whiteSpace=wrap;html=1;" vertex="1" parent="1">
          <mxGeometry x="459" y="188" width="140" height="130" as="geometry" />
        </mxCell>
        <mxCell id="djYnsQmjDLLJH66xJvrr-6" value="+ login()" style="text;strokeColor=none;fillColor=none;align=left;verticalAlign=top;spacingLeft=4;spacingRight=4;overflow=hidden;rotatable=0;points=[[0,0.5],[1,0.5]];portConstraint=eastwest;whiteSpace=wrap;html=1;" vertex="1" parent="djYnsQmjDLLJH66xJvrr-5">
          <mxGeometry y="26" width="140" height="26" as="geometry" />
        </mxCell>
        <mxCell id="djYnsQmjDLLJH66xJvrr-7" value="+ addProfile()" style="text;strokeColor=none;fillColor=none;align=left;verticalAlign=top;spacingLeft=4;spacingRight=4;overflow=hidden;rotatable=0;points=[[0,0.5],[1,0.5]];portConstraint=eastwest;whiteSpace=wrap;html=1;" vertex="1" parent="djYnsQmjDLLJH66xJvrr-5">
          <mxGeometry y="52" width="140" height="26" as="geometry" />
        </mxCell>
        <mxCell id="djYnsQmjDLLJH66xJvrr-8" value="+ deleteProfile()" style="text;strokeColor=none;fillColor=none;align=left;verticalAlign=top;spacingLeft=4;spacingRight=4;overflow=hidden;rotatable=0;points=[[0,0.5],[1,0.5]];portConstraint=eastwest;whiteSpace=wrap;html=1;" vertex="1" parent="djYnsQmjDLLJH66xJvrr-5">
          <mxGeometry y="78" width="140" height="26" as="geometry" />
        </mxCell>
        <mxCell id="2ocZ62xKFfvnmyU5Oems-1" value="+ updateProfile()" style="text;strokeColor=none;fillColor=none;align=left;verticalAlign=top;spacingLeft=4;spacingRight=4;overflow=hidden;rotatable=0;points=[[0,0.5],[1,0.5]];portConstraint=eastwest;whiteSpace=wrap;html=1;" vertex="1" parent="djYnsQmjDLLJH66xJvrr-5">
          <mxGeometry y="104" width="140" height="26" as="geometry" />
        </mxCell>
        <mxCell id="djYnsQmjDLLJH66xJvrr-13" value="ParticipantRepository" style="swimlane;fontStyle=0;childLayout=stackLayout;horizontal=1;startSize=26;fillColor=none;horizontalStack=0;resizeParent=1;resizeParentMax=0;resizeLast=0;collapsible=1;marginBottom=0;whiteSpace=wrap;html=1;" vertex="1" parent="1">
          <mxGeometry x="266" y="838" width="140" height="130" as="geometry" />
        </mxCell>
        <mxCell id="djYnsQmjDLLJH66xJvrr-14" value="+ create()" style="text;strokeColor=none;fillColor=none;align=left;verticalAlign=top;spacingLeft=4;spacingRight=4;overflow=hidden;rotatable=0;points=[[0,0.5],[1,0.5]];portConstraint=eastwest;whiteSpace=wrap;html=1;" vertex="1" parent="djYnsQmjDLLJH66xJvrr-13">
          <mxGeometry y="26" width="140" height="26" as="geometry" />
        </mxCell>
        <mxCell id="djYnsQmjDLLJH66xJvrr-32" value="+ delete()" style="text;strokeColor=none;fillColor=none;align=left;verticalAlign=top;spacingLeft=4;spacingRight=4;overflow=hidden;rotatable=0;points=[[0,0.5],[1,0.5]];portConstraint=eastwest;whiteSpace=wrap;html=1;" vertex="1" parent="djYnsQmjDLLJH66xJvrr-13">
          <mxGeometry y="52" width="140" height="26" as="geometry" />
        </mxCell>
        <mxCell id="djYnsQmjDLLJH66xJvrr-15" value="+ update()" style="text;strokeColor=none;fillColor=none;align=left;verticalAlign=top;spacingLeft=4;spacingRight=4;overflow=hidden;rotatable=0;points=[[0,0.5],[1,0.5]];portConstraint=eastwest;whiteSpace=wrap;html=1;" vertex="1" parent="djYnsQmjDLLJH66xJvrr-13">
          <mxGeometry y="78" width="140" height="26" as="geometry" />
        </mxCell>
        <mxCell id="djYnsQmjDLLJH66xJvrr-16" value="+ getParticipantByID()" style="text;strokeColor=none;fillColor=none;align=left;verticalAlign=top;spacingLeft=4;spacingRight=4;overflow=hidden;rotatable=0;points=[[0,0.5],[1,0.5]];portConstraint=eastwest;whiteSpace=wrap;html=1;" vertex="1" parent="djYnsQmjDLLJH66xJvrr-13">
          <mxGeometry y="104" width="140" height="26" as="geometry" />
        </mxCell>
        <mxCell id="djYnsQmjDLLJH66xJvrr-17" value="JudgeRepository" style="swimlane;fontStyle=0;childLayout=stackLayout;horizontal=1;startSize=26;fillColor=none;horizontalStack=0;resizeParent=1;resizeParentMax=0;resizeLast=0;collapsible=1;marginBottom=0;whiteSpace=wrap;html=1;" vertex="1" parent="1">
          <mxGeometry x="454" y="838" width="140" height="104" as="geometry" />
        </mxCell>
        <mxCell id="djYnsQmjDLLJH66xJvrr-18" value="+ addProfile()" style="text;strokeColor=none;fillColor=none;align=left;verticalAlign=top;spacingLeft=4;spacingRight=4;overflow=hidden;rotatable=0;points=[[0,0.5],[1,0.5]];portConstraint=eastwest;whiteSpace=wrap;html=1;" vertex="1" parent="djYnsQmjDLLJH66xJvrr-17">
          <mxGeometry y="26" width="140" height="26" as="geometry" />
        </mxCell>
        <mxCell id="djYnsQmjDLLJH66xJvrr-19" value="+ deleteProfile()" style="text;strokeColor=none;fillColor=none;align=left;verticalAlign=top;spacingLeft=4;spacingRight=4;overflow=hidden;rotatable=0;points=[[0,0.5],[1,0.5]];portConstraint=eastwest;whiteSpace=wrap;html=1;" vertex="1" parent="djYnsQmjDLLJH66xJvrr-17">
          <mxGeometry y="52" width="140" height="26" as="geometry" />
        </mxCell>
        <mxCell id="djYnsQmjDLLJH66xJvrr-20" value="+ updateProfile()" style="text;strokeColor=none;fillColor=none;align=left;verticalAlign=top;spacingLeft=4;spacingRight=4;overflow=hidden;rotatable=0;points=[[0,0.5],[1,0.5]];portConstraint=eastwest;whiteSpace=wrap;html=1;" vertex="1" parent="djYnsQmjDLLJH66xJvrr-17">
          <mxGeometry y="78" width="140" height="26" as="geometry" />
        </mxCell>
        <mxCell id="djYnsQmjDLLJH66xJvrr-25" value="IParticipantRepository" style="swimlane;fontStyle=0;childLayout=stackLayout;horizontal=1;startSize=26;fillColor=none;horizontalStack=0;resizeParent=1;resizeParentMax=0;resizeLast=0;collapsible=1;marginBottom=0;whiteSpace=wrap;html=1;" vertex="1" parent="1">
          <mxGeometry x="270" y="578" width="140" height="130" as="geometry" />
        </mxCell>
        <mxCell id="djYnsQmjDLLJH66xJvrr-26" value="+ create()" style="text;strokeColor=none;fillColor=none;align=left;verticalAlign=top;spacingLeft=4;spacingRight=4;overflow=hidden;rotatable=0;points=[[0,0.5],[1,0.5]];portConstraint=eastwest;whiteSpace=wrap;html=1;" vertex="1" parent="djYnsQmjDLLJH66xJvrr-25">
          <mxGeometry y="26" width="140" height="26" as="geometry" />
        </mxCell>
        <mxCell id="djYnsQmjDLLJH66xJvrr-31" value="+ delete()" style="text;strokeColor=none;fillColor=none;align=left;verticalAlign=top;spacingLeft=4;spacingRight=4;overflow=hidden;rotatable=0;points=[[0,0.5],[1,0.5]];portConstraint=eastwest;whiteSpace=wrap;html=1;" vertex="1" parent="djYnsQmjDLLJH66xJvrr-25">
          <mxGeometry y="52" width="140" height="26" as="geometry" />
        </mxCell>
        <mxCell id="djYnsQmjDLLJH66xJvrr-27" value="+ update()" style="text;strokeColor=none;fillColor=none;align=left;verticalAlign=top;spacingLeft=4;spacingRight=4;overflow=hidden;rotatable=0;points=[[0,0.5],[1,0.5]];portConstraint=eastwest;whiteSpace=wrap;html=1;" vertex="1" parent="djYnsQmjDLLJH66xJvrr-25">
          <mxGeometry y="78" width="140" height="26" as="geometry" />
        </mxCell>
        <mxCell id="djYnsQmjDLLJH66xJvrr-28" value="+ getParticipantByID()" style="text;strokeColor=none;fillColor=none;align=left;verticalAlign=top;spacingLeft=4;spacingRight=4;overflow=hidden;rotatable=0;points=[[0,0.5],[1,0.5]];portConstraint=eastwest;whiteSpace=wrap;html=1;" vertex="1" parent="djYnsQmjDLLJH66xJvrr-25">
          <mxGeometry y="104" width="140" height="26" as="geometry" />
        </mxCell>
        <mxCell id="2ocZ62xKFfvnmyU5Oems-2" value="JudgeService" style="swimlane;fontStyle=0;childLayout=stackLayout;horizontal=1;startSize=26;fillColor=none;horizontalStack=0;resizeParent=1;resizeParentMax=0;resizeLast=0;collapsible=1;marginBottom=0;whiteSpace=wrap;html=1;" vertex="1" parent="1">
          <mxGeometry x="460" y="378" width="140" height="130" as="geometry" />
        </mxCell>
        <mxCell id="2ocZ62xKFfvnmyU5Oems-3" value="+ login()" style="text;strokeColor=none;fillColor=none;align=left;verticalAlign=top;spacingLeft=4;spacingRight=4;overflow=hidden;rotatable=0;points=[[0,0.5],[1,0.5]];portConstraint=eastwest;whiteSpace=wrap;html=1;" vertex="1" parent="2ocZ62xKFfvnmyU5Oems-2">
          <mxGeometry y="26" width="140" height="26" as="geometry" />
        </mxCell>
        <mxCell id="2ocZ62xKFfvnmyU5Oems-4" value="+ addProfile()" style="text;strokeColor=none;fillColor=none;align=left;verticalAlign=top;spacingLeft=4;spacingRight=4;overflow=hidden;rotatable=0;points=[[0,0.5],[1,0.5]];portConstraint=eastwest;whiteSpace=wrap;html=1;" vertex="1" parent="2ocZ62xKFfvnmyU5Oems-2">
          <mxGeometry y="52" width="140" height="26" as="geometry" />
        </mxCell>
        <mxCell id="2ocZ62xKFfvnmyU5Oems-5" value="+ deleteProfile()" style="text;strokeColor=none;fillColor=none;align=left;verticalAlign=top;spacingLeft=4;spacingRight=4;overflow=hidden;rotatable=0;points=[[0,0.5],[1,0.5]];portConstraint=eastwest;whiteSpace=wrap;html=1;" vertex="1" parent="2ocZ62xKFfvnmyU5Oems-2">
          <mxGeometry y="78" width="140" height="26" as="geometry" />
        </mxCell>
        <mxCell id="2ocZ62xKFfvnmyU5Oems-6" value="+ updateProfile()" style="text;strokeColor=none;fillColor=none;align=left;verticalAlign=top;spacingLeft=4;spacingRight=4;overflow=hidden;rotatable=0;points=[[0,0.5],[1,0.5]];portConstraint=eastwest;whiteSpace=wrap;html=1;" vertex="1" parent="2ocZ62xKFfvnmyU5Oems-2">
          <mxGeometry y="104" width="140" height="26" as="geometry" />
        </mxCell>
        <mxCell id="2ocZ62xKFfvnmyU5Oems-7" value="IJudgeRepository" style="swimlane;fontStyle=0;childLayout=stackLayout;horizontal=1;startSize=26;fillColor=none;horizontalStack=0;resizeParent=1;resizeParentMax=0;resizeLast=0;collapsible=1;marginBottom=0;whiteSpace=wrap;html=1;" vertex="1" parent="1">
          <mxGeometry x="460" y="578" width="140" height="104" as="geometry" />
        </mxCell>
        <mxCell id="2ocZ62xKFfvnmyU5Oems-9" value="+ addProfile()" style="text;strokeColor=none;fillColor=none;align=left;verticalAlign=top;spacingLeft=4;spacingRight=4;overflow=hidden;rotatable=0;points=[[0,0.5],[1,0.5]];portConstraint=eastwest;whiteSpace=wrap;html=1;" vertex="1" parent="2ocZ62xKFfvnmyU5Oems-7">
          <mxGeometry y="26" width="140" height="26" as="geometry" />
        </mxCell>
        <mxCell id="2ocZ62xKFfvnmyU5Oems-10" value="+ deleteProfile()" style="text;strokeColor=none;fillColor=none;align=left;verticalAlign=top;spacingLeft=4;spacingRight=4;overflow=hidden;rotatable=0;points=[[0,0.5],[1,0.5]];portConstraint=eastwest;whiteSpace=wrap;html=1;" vertex="1" parent="2ocZ62xKFfvnmyU5Oems-7">
          <mxGeometry y="52" width="140" height="26" as="geometry" />
        </mxCell>
        <mxCell id="2ocZ62xKFfvnmyU5Oems-11" value="+ updateProfile()" style="text;strokeColor=none;fillColor=none;align=left;verticalAlign=top;spacingLeft=4;spacingRight=4;overflow=hidden;rotatable=0;points=[[0,0.5],[1,0.5]];portConstraint=eastwest;whiteSpace=wrap;html=1;" vertex="1" parent="2ocZ62xKFfvnmyU5Oems-7">
          <mxGeometry y="78" width="140" height="26" as="geometry" />
        </mxCell>
        <mxCell id="2ocZ62xKFfvnmyU5Oems-12" value="IRatingService" style="swimlane;fontStyle=0;childLayout=stackLayout;horizontal=1;startSize=26;fillColor=none;horizontalStack=0;resizeParent=1;resizeParentMax=0;resizeLast=0;collapsible=1;marginBottom=0;whiteSpace=wrap;html=1;" vertex="1" parent="1">
          <mxGeometry x="640" y="188" width="170" height="130" as="geometry" />
        </mxCell>
        <mxCell id="2ocZ62xKFfvnmyU5Oems-13" value="+ create()" style="text;strokeColor=none;fillColor=none;align=left;verticalAlign=top;spacingLeft=4;spacingRight=4;overflow=hidden;rotatable=0;points=[[0,0.5],[1,0.5]];portConstraint=eastwest;whiteSpace=wrap;html=1;" vertex="1" parent="2ocZ62xKFfvnmyU5Oems-12">
          <mxGeometry y="26" width="170" height="26" as="geometry" />
        </mxCell>
        <mxCell id="2ocZ62xKFfvnmyU5Oems-16" value="+ delete()" style="text;strokeColor=none;fillColor=none;align=left;verticalAlign=top;spacingLeft=4;spacingRight=4;overflow=hidden;rotatable=0;points=[[0,0.5],[1,0.5]];portConstraint=eastwest;whiteSpace=wrap;html=1;" vertex="1" parent="2ocZ62xKFfvnmyU5Oems-12">
          <mxGeometry y="52" width="170" height="26" as="geometry" />
        </mxCell>
        <mxCell id="2ocZ62xKFfvnmyU5Oems-17" value="+ update()" style="text;strokeColor=none;fillColor=none;align=left;verticalAlign=top;spacingLeft=4;spacingRight=4;overflow=hidden;rotatable=0;points=[[0,0.5],[1,0.5]];portConstraint=eastwest;whiteSpace=wrap;html=1;" vertex="1" parent="2ocZ62xKFfvnmyU5Oems-12">
          <mxGeometry y="78" width="170" height="26" as="geometry" />
        </mxCell>
        <mxCell id="2ocZ62xKFfvnmyU5Oems-15" value="+ getRatingByID()" style="text;strokeColor=none;fillColor=none;align=left;verticalAlign=top;spacingLeft=4;spacingRight=4;overflow=hidden;rotatable=0;points=[[0,0.5],[1,0.5]];portConstraint=eastwest;whiteSpace=wrap;html=1;" vertex="1" parent="2ocZ62xKFfvnmyU5Oems-12">
          <mxGeometry y="104" width="170" height="26" as="geometry" />
        </mxCell>
        <mxCell id="2ocZ62xKFfvnmyU5Oems-18" value="IRaceService" style="swimlane;fontStyle=0;childLayout=stackLayout;horizontal=1;startSize=26;fillColor=none;horizontalStack=0;resizeParent=1;resizeParentMax=0;resizeLast=0;collapsible=1;marginBottom=0;whiteSpace=wrap;html=1;" vertex="1" parent="1">
          <mxGeometry x="840" y="188" width="140" height="130" as="geometry" />
        </mxCell>
        <mxCell id="2ocZ62xKFfvnmyU5Oems-27" value="+ update()" style="text;strokeColor=none;fillColor=none;align=left;verticalAlign=top;spacingLeft=4;spacingRight=4;overflow=hidden;rotatable=0;points=[[0,0.5],[1,0.5]];portConstraint=eastwest;whiteSpace=wrap;html=1;" vertex="1" parent="2ocZ62xKFfvnmyU5Oems-18">
          <mxGeometry y="26" width="140" height="26" as="geometry" />
        </mxCell>
        <mxCell id="2ocZ62xKFfvnmyU5Oems-26" value="+ delete()" style="text;strokeColor=none;fillColor=none;align=left;verticalAlign=top;spacingLeft=4;spacingRight=4;overflow=hidden;rotatable=0;points=[[0,0.5],[1,0.5]];portConstraint=eastwest;whiteSpace=wrap;html=1;" vertex="1" parent="2ocZ62xKFfvnmyU5Oems-18">
          <mxGeometry y="52" width="140" height="26" as="geometry" />
        </mxCell>
        <mxCell id="2ocZ62xKFfvnmyU5Oems-25" value="+ create()" style="text;strokeColor=none;fillColor=none;align=left;verticalAlign=top;spacingLeft=4;spacingRight=4;overflow=hidden;rotatable=0;points=[[0,0.5],[1,0.5]];portConstraint=eastwest;whiteSpace=wrap;html=1;" vertex="1" parent="2ocZ62xKFfvnmyU5Oems-18">
          <mxGeometry y="78" width="140" height="26" as="geometry" />
        </mxCell>
        <mxCell id="2ocZ62xKFfvnmyU5Oems-19" value="+ getRaceByID()" style="text;strokeColor=none;fillColor=none;align=left;verticalAlign=top;spacingLeft=4;spacingRight=4;overflow=hidden;rotatable=0;points=[[0,0.5],[1,0.5]];portConstraint=eastwest;whiteSpace=wrap;html=1;" vertex="1" parent="2ocZ62xKFfvnmyU5Oems-18">
          <mxGeometry y="104" width="140" height="26" as="geometry" />
        </mxCell>
        <mxCell id="2ocZ62xKFfvnmyU5Oems-28" value="IYachtRaceSailingService" style="swimlane;fontStyle=0;childLayout=stackLayout;horizontal=1;startSize=26;fillColor=none;horizontalStack=0;resizeParent=1;resizeParentMax=0;resizeLast=0;collapsible=1;marginBottom=0;whiteSpace=wrap;html=1;" vertex="1" parent="1">
          <mxGeometry x="1000" y="188" width="170" height="130" as="geometry" />
        </mxCell>
        <mxCell id="2ocZ62xKFfvnmyU5Oems-34" value="+ create()" style="text;strokeColor=none;fillColor=none;align=left;verticalAlign=top;spacingLeft=4;spacingRight=4;overflow=hidden;rotatable=0;points=[[0,0.5],[1,0.5]];portConstraint=eastwest;whiteSpace=wrap;html=1;" vertex="1" parent="2ocZ62xKFfvnmyU5Oems-28">
          <mxGeometry y="26" width="170" height="26" as="geometry" />
        </mxCell>
        <mxCell id="2ocZ62xKFfvnmyU5Oems-33" value="+ delete()" style="text;strokeColor=none;fillColor=none;align=left;verticalAlign=top;spacingLeft=4;spacingRight=4;overflow=hidden;rotatable=0;points=[[0,0.5],[1,0.5]];portConstraint=eastwest;whiteSpace=wrap;html=1;" vertex="1" parent="2ocZ62xKFfvnmyU5Oems-28">
          <mxGeometry y="52" width="170" height="26" as="geometry" />
        </mxCell>
        <mxCell id="2ocZ62xKFfvnmyU5Oems-32" value="+ update()" style="text;strokeColor=none;fillColor=none;align=left;verticalAlign=top;spacingLeft=4;spacingRight=4;overflow=hidden;rotatable=0;points=[[0,0.5],[1,0.5]];portConstraint=eastwest;whiteSpace=wrap;html=1;" vertex="1" parent="2ocZ62xKFfvnmyU5Oems-28">
          <mxGeometry y="78" width="170" height="26" as="geometry" />
        </mxCell>
        <mxCell id="2ocZ62xKFfvnmyU5Oems-35" value="+ getYachtRaceByID()" style="text;strokeColor=none;fillColor=none;align=left;verticalAlign=top;spacingLeft=4;spacingRight=4;overflow=hidden;rotatable=0;points=[[0,0.5],[1,0.5]];portConstraint=eastwest;whiteSpace=wrap;html=1;" vertex="1" parent="2ocZ62xKFfvnmyU5Oems-28">
          <mxGeometry y="104" width="170" height="26" as="geometry" />
        </mxCell>
        <mxCell id="2ocZ62xKFfvnmyU5Oems-36" value="IProtestService" style="swimlane;fontStyle=0;childLayout=stackLayout;horizontal=1;startSize=26;fillColor=none;horizontalStack=0;resizeParent=1;resizeParentMax=0;resizeLast=0;collapsible=1;marginBottom=0;whiteSpace=wrap;html=1;" vertex="1" parent="1">
          <mxGeometry x="1200" y="188" width="140" height="130" as="geometry" />
        </mxCell>
        <mxCell id="2ocZ62xKFfvnmyU5Oems-40" value="+ create()" style="text;strokeColor=none;fillColor=none;align=left;verticalAlign=top;spacingLeft=4;spacingRight=4;overflow=hidden;rotatable=0;points=[[0,0.5],[1,0.5]];portConstraint=eastwest;whiteSpace=wrap;html=1;" vertex="1" parent="2ocZ62xKFfvnmyU5Oems-36">
          <mxGeometry y="26" width="140" height="26" as="geometry" />
        </mxCell>
        <mxCell id="2ocZ62xKFfvnmyU5Oems-42" value="+ update()" style="text;strokeColor=none;fillColor=none;align=left;verticalAlign=top;spacingLeft=4;spacingRight=4;overflow=hidden;rotatable=0;points=[[0,0.5],[1,0.5]];portConstraint=eastwest;whiteSpace=wrap;html=1;" vertex="1" parent="2ocZ62xKFfvnmyU5Oems-36">
          <mxGeometry y="52" width="140" height="26" as="geometry" />
        </mxCell>
        <mxCell id="2ocZ62xKFfvnmyU5Oems-41" value="+ delete()" style="text;strokeColor=none;fillColor=none;align=left;verticalAlign=top;spacingLeft=4;spacingRight=4;overflow=hidden;rotatable=0;points=[[0,0.5],[1,0.5]];portConstraint=eastwest;whiteSpace=wrap;html=1;" vertex="1" parent="2ocZ62xKFfvnmyU5Oems-36">
          <mxGeometry y="78" width="140" height="26" as="geometry" />
        </mxCell>
        <mxCell id="2ocZ62xKFfvnmyU5Oems-43" value="+ getProtestByID()" style="text;strokeColor=none;fillColor=none;align=left;verticalAlign=top;spacingLeft=4;spacingRight=4;overflow=hidden;rotatable=0;points=[[0,0.5],[1,0.5]];portConstraint=eastwest;whiteSpace=wrap;html=1;" vertex="1" parent="2ocZ62xKFfvnmyU5Oems-36">
          <mxGeometry y="104" width="140" height="26" as="geometry" />
        </mxCell>
        <mxCell id="2ocZ62xKFfvnmyU5Oems-44" value="RatingService" style="swimlane;fontStyle=0;childLayout=stackLayout;horizontal=1;startSize=26;fillColor=none;horizontalStack=0;resizeParent=1;resizeParentMax=0;resizeLast=0;collapsible=1;marginBottom=0;whiteSpace=wrap;html=1;" vertex="1" parent="1">
          <mxGeometry x="635" y="378" width="170" height="130" as="geometry" />
        </mxCell>
        <mxCell id="2ocZ62xKFfvnmyU5Oems-45" value="+ create()" style="text;strokeColor=none;fillColor=none;align=left;verticalAlign=top;spacingLeft=4;spacingRight=4;overflow=hidden;rotatable=0;points=[[0,0.5],[1,0.5]];portConstraint=eastwest;whiteSpace=wrap;html=1;" vertex="1" parent="2ocZ62xKFfvnmyU5Oems-44">
          <mxGeometry y="26" width="170" height="26" as="geometry" />
        </mxCell>
        <mxCell id="2ocZ62xKFfvnmyU5Oems-46" value="+ delete()" style="text;strokeColor=none;fillColor=none;align=left;verticalAlign=top;spacingLeft=4;spacingRight=4;overflow=hidden;rotatable=0;points=[[0,0.5],[1,0.5]];portConstraint=eastwest;whiteSpace=wrap;html=1;" vertex="1" parent="2ocZ62xKFfvnmyU5Oems-44">
          <mxGeometry y="52" width="170" height="26" as="geometry" />
        </mxCell>
        <mxCell id="2ocZ62xKFfvnmyU5Oems-47" value="+ update()" style="text;strokeColor=none;fillColor=none;align=left;verticalAlign=top;spacingLeft=4;spacingRight=4;overflow=hidden;rotatable=0;points=[[0,0.5],[1,0.5]];portConstraint=eastwest;whiteSpace=wrap;html=1;" vertex="1" parent="2ocZ62xKFfvnmyU5Oems-44">
          <mxGeometry y="78" width="170" height="26" as="geometry" />
        </mxCell>
        <mxCell id="2ocZ62xKFfvnmyU5Oems-48" value="+ getRatingByID()" style="text;strokeColor=none;fillColor=none;align=left;verticalAlign=top;spacingLeft=4;spacingRight=4;overflow=hidden;rotatable=0;points=[[0,0.5],[1,0.5]];portConstraint=eastwest;whiteSpace=wrap;html=1;" vertex="1" parent="2ocZ62xKFfvnmyU5Oems-44">
          <mxGeometry y="104" width="170" height="26" as="geometry" />
        </mxCell>
        <mxCell id="2ocZ62xKFfvnmyU5Oems-49" value="RaceService" style="swimlane;fontStyle=0;childLayout=stackLayout;horizontal=1;startSize=26;fillColor=none;horizontalStack=0;resizeParent=1;resizeParentMax=0;resizeLast=0;collapsible=1;marginBottom=0;whiteSpace=wrap;html=1;" vertex="1" parent="1">
          <mxGeometry x="840" y="378" width="140" height="130" as="geometry" />
        </mxCell>
        <mxCell id="2ocZ62xKFfvnmyU5Oems-50" value="+ update()" style="text;strokeColor=none;fillColor=none;align=left;verticalAlign=top;spacingLeft=4;spacingRight=4;overflow=hidden;rotatable=0;points=[[0,0.5],[1,0.5]];portConstraint=eastwest;whiteSpace=wrap;html=1;" vertex="1" parent="2ocZ62xKFfvnmyU5Oems-49">
          <mxGeometry y="26" width="140" height="26" as="geometry" />
        </mxCell>
        <mxCell id="2ocZ62xKFfvnmyU5Oems-51" value="+ delete()" style="text;strokeColor=none;fillColor=none;align=left;verticalAlign=top;spacingLeft=4;spacingRight=4;overflow=hidden;rotatable=0;points=[[0,0.5],[1,0.5]];portConstraint=eastwest;whiteSpace=wrap;html=1;" vertex="1" parent="2ocZ62xKFfvnmyU5Oems-49">
          <mxGeometry y="52" width="140" height="26" as="geometry" />
        </mxCell>
        <mxCell id="2ocZ62xKFfvnmyU5Oems-52" value="+ create()" style="text;strokeColor=none;fillColor=none;align=left;verticalAlign=top;spacingLeft=4;spacingRight=4;overflow=hidden;rotatable=0;points=[[0,0.5],[1,0.5]];portConstraint=eastwest;whiteSpace=wrap;html=1;" vertex="1" parent="2ocZ62xKFfvnmyU5Oems-49">
          <mxGeometry y="78" width="140" height="26" as="geometry" />
        </mxCell>
        <mxCell id="2ocZ62xKFfvnmyU5Oems-53" value="+ getRaceByID()" style="text;strokeColor=none;fillColor=none;align=left;verticalAlign=top;spacingLeft=4;spacingRight=4;overflow=hidden;rotatable=0;points=[[0,0.5],[1,0.5]];portConstraint=eastwest;whiteSpace=wrap;html=1;" vertex="1" parent="2ocZ62xKFfvnmyU5Oems-49">
          <mxGeometry y="104" width="140" height="26" as="geometry" />
        </mxCell>
        <mxCell id="2ocZ62xKFfvnmyU5Oems-54" value="YachtRaceSailingService" style="swimlane;fontStyle=0;childLayout=stackLayout;horizontal=1;startSize=26;fillColor=none;horizontalStack=0;resizeParent=1;resizeParentMax=0;resizeLast=0;collapsible=1;marginBottom=0;whiteSpace=wrap;html=1;" vertex="1" parent="1">
          <mxGeometry x="1000" y="378" width="170" height="130" as="geometry" />
        </mxCell>
        <mxCell id="2ocZ62xKFfvnmyU5Oems-55" value="+ create()" style="text;strokeColor=none;fillColor=none;align=left;verticalAlign=top;spacingLeft=4;spacingRight=4;overflow=hidden;rotatable=0;points=[[0,0.5],[1,0.5]];portConstraint=eastwest;whiteSpace=wrap;html=1;" vertex="1" parent="2ocZ62xKFfvnmyU5Oems-54">
          <mxGeometry y="26" width="170" height="26" as="geometry" />
        </mxCell>
        <mxCell id="2ocZ62xKFfvnmyU5Oems-56" value="+ delete()" style="text;strokeColor=none;fillColor=none;align=left;verticalAlign=top;spacingLeft=4;spacingRight=4;overflow=hidden;rotatable=0;points=[[0,0.5],[1,0.5]];portConstraint=eastwest;whiteSpace=wrap;html=1;" vertex="1" parent="2ocZ62xKFfvnmyU5Oems-54">
          <mxGeometry y="52" width="170" height="26" as="geometry" />
        </mxCell>
        <mxCell id="2ocZ62xKFfvnmyU5Oems-57" value="+ update()" style="text;strokeColor=none;fillColor=none;align=left;verticalAlign=top;spacingLeft=4;spacingRight=4;overflow=hidden;rotatable=0;points=[[0,0.5],[1,0.5]];portConstraint=eastwest;whiteSpace=wrap;html=1;" vertex="1" parent="2ocZ62xKFfvnmyU5Oems-54">
          <mxGeometry y="78" width="170" height="26" as="geometry" />
        </mxCell>
        <mxCell id="2ocZ62xKFfvnmyU5Oems-58" value="+ getYachtRaceByID()" style="text;strokeColor=none;fillColor=none;align=left;verticalAlign=top;spacingLeft=4;spacingRight=4;overflow=hidden;rotatable=0;points=[[0,0.5],[1,0.5]];portConstraint=eastwest;whiteSpace=wrap;html=1;" vertex="1" parent="2ocZ62xKFfvnmyU5Oems-54">
          <mxGeometry y="104" width="170" height="26" as="geometry" />
        </mxCell>
        <mxCell id="2ocZ62xKFfvnmyU5Oems-59" value="ProtestService" style="swimlane;fontStyle=0;childLayout=stackLayout;horizontal=1;startSize=26;fillColor=none;horizontalStack=0;resizeParent=1;resizeParentMax=0;resizeLast=0;collapsible=1;marginBottom=0;whiteSpace=wrap;html=1;" vertex="1" parent="1">
          <mxGeometry x="1200" y="378" width="140" height="130" as="geometry" />
        </mxCell>
        <mxCell id="2ocZ62xKFfvnmyU5Oems-60" value="+ create()" style="text;strokeColor=none;fillColor=none;align=left;verticalAlign=top;spacingLeft=4;spacingRight=4;overflow=hidden;rotatable=0;points=[[0,0.5],[1,0.5]];portConstraint=eastwest;whiteSpace=wrap;html=1;" vertex="1" parent="2ocZ62xKFfvnmyU5Oems-59">
          <mxGeometry y="26" width="140" height="26" as="geometry" />
        </mxCell>
        <mxCell id="2ocZ62xKFfvnmyU5Oems-61" value="+ update()" style="text;strokeColor=none;fillColor=none;align=left;verticalAlign=top;spacingLeft=4;spacingRight=4;overflow=hidden;rotatable=0;points=[[0,0.5],[1,0.5]];portConstraint=eastwest;whiteSpace=wrap;html=1;" vertex="1" parent="2ocZ62xKFfvnmyU5Oems-59">
          <mxGeometry y="52" width="140" height="26" as="geometry" />
        </mxCell>
        <mxCell id="2ocZ62xKFfvnmyU5Oems-62" value="+ delete()" style="text;strokeColor=none;fillColor=none;align=left;verticalAlign=top;spacingLeft=4;spacingRight=4;overflow=hidden;rotatable=0;points=[[0,0.5],[1,0.5]];portConstraint=eastwest;whiteSpace=wrap;html=1;" vertex="1" parent="2ocZ62xKFfvnmyU5Oems-59">
          <mxGeometry y="78" width="140" height="26" as="geometry" />
        </mxCell>
        <mxCell id="2ocZ62xKFfvnmyU5Oems-63" value="+ getProtestByID()" style="text;strokeColor=none;fillColor=none;align=left;verticalAlign=top;spacingLeft=4;spacingRight=4;overflow=hidden;rotatable=0;points=[[0,0.5],[1,0.5]];portConstraint=eastwest;whiteSpace=wrap;html=1;" vertex="1" parent="2ocZ62xKFfvnmyU5Oems-59">
          <mxGeometry y="104" width="140" height="26" as="geometry" />
        </mxCell>
        <mxCell id="2ocZ62xKFfvnmyU5Oems-64" value="IRatingRepository" style="swimlane;fontStyle=0;childLayout=stackLayout;horizontal=1;startSize=26;fillColor=none;horizontalStack=0;resizeParent=1;resizeParentMax=0;resizeLast=0;collapsible=1;marginBottom=0;whiteSpace=wrap;html=1;" vertex="1" parent="1">
          <mxGeometry x="640" y="578" width="170" height="130" as="geometry" />
        </mxCell>
        <mxCell id="2ocZ62xKFfvnmyU5Oems-65" value="+ create()" style="text;strokeColor=none;fillColor=none;align=left;verticalAlign=top;spacingLeft=4;spacingRight=4;overflow=hidden;rotatable=0;points=[[0,0.5],[1,0.5]];portConstraint=eastwest;whiteSpace=wrap;html=1;" vertex="1" parent="2ocZ62xKFfvnmyU5Oems-64">
          <mxGeometry y="26" width="170" height="26" as="geometry" />
        </mxCell>
        <mxCell id="2ocZ62xKFfvnmyU5Oems-66" value="+ delete()" style="text;strokeColor=none;fillColor=none;align=left;verticalAlign=top;spacingLeft=4;spacingRight=4;overflow=hidden;rotatable=0;points=[[0,0.5],[1,0.5]];portConstraint=eastwest;whiteSpace=wrap;html=1;" vertex="1" parent="2ocZ62xKFfvnmyU5Oems-64">
          <mxGeometry y="52" width="170" height="26" as="geometry" />
        </mxCell>
        <mxCell id="2ocZ62xKFfvnmyU5Oems-67" value="+ update()" style="text;strokeColor=none;fillColor=none;align=left;verticalAlign=top;spacingLeft=4;spacingRight=4;overflow=hidden;rotatable=0;points=[[0,0.5],[1,0.5]];portConstraint=eastwest;whiteSpace=wrap;html=1;" vertex="1" parent="2ocZ62xKFfvnmyU5Oems-64">
          <mxGeometry y="78" width="170" height="26" as="geometry" />
        </mxCell>
        <mxCell id="2ocZ62xKFfvnmyU5Oems-68" value="+ getRatingByID()" style="text;strokeColor=none;fillColor=none;align=left;verticalAlign=top;spacingLeft=4;spacingRight=4;overflow=hidden;rotatable=0;points=[[0,0.5],[1,0.5]];portConstraint=eastwest;whiteSpace=wrap;html=1;" vertex="1" parent="2ocZ62xKFfvnmyU5Oems-64">
          <mxGeometry y="104" width="170" height="26" as="geometry" />
        </mxCell>
        <mxCell id="2ocZ62xKFfvnmyU5Oems-69" value="IRaceRepository" style="swimlane;fontStyle=0;childLayout=stackLayout;horizontal=1;startSize=26;fillColor=none;horizontalStack=0;resizeParent=1;resizeParentMax=0;resizeLast=0;collapsible=1;marginBottom=0;whiteSpace=wrap;html=1;" vertex="1" parent="1">
          <mxGeometry x="840" y="578" width="140" height="130" as="geometry" />
        </mxCell>
        <mxCell id="2ocZ62xKFfvnmyU5Oems-70" value="+ update()" style="text;strokeColor=none;fillColor=none;align=left;verticalAlign=top;spacingLeft=4;spacingRight=4;overflow=hidden;rotatable=0;points=[[0,0.5],[1,0.5]];portConstraint=eastwest;whiteSpace=wrap;html=1;" vertex="1" parent="2ocZ62xKFfvnmyU5Oems-69">
          <mxGeometry y="26" width="140" height="26" as="geometry" />
        </mxCell>
        <mxCell id="2ocZ62xKFfvnmyU5Oems-71" value="+ delete()" style="text;strokeColor=none;fillColor=none;align=left;verticalAlign=top;spacingLeft=4;spacingRight=4;overflow=hidden;rotatable=0;points=[[0,0.5],[1,0.5]];portConstraint=eastwest;whiteSpace=wrap;html=1;" vertex="1" parent="2ocZ62xKFfvnmyU5Oems-69">
          <mxGeometry y="52" width="140" height="26" as="geometry" />
        </mxCell>
        <mxCell id="2ocZ62xKFfvnmyU5Oems-72" value="+ create()" style="text;strokeColor=none;fillColor=none;align=left;verticalAlign=top;spacingLeft=4;spacingRight=4;overflow=hidden;rotatable=0;points=[[0,0.5],[1,0.5]];portConstraint=eastwest;whiteSpace=wrap;html=1;" vertex="1" parent="2ocZ62xKFfvnmyU5Oems-69">
          <mxGeometry y="78" width="140" height="26" as="geometry" />
        </mxCell>
        <mxCell id="2ocZ62xKFfvnmyU5Oems-73" value="+ getRaceByID()" style="text;strokeColor=none;fillColor=none;align=left;verticalAlign=top;spacingLeft=4;spacingRight=4;overflow=hidden;rotatable=0;points=[[0,0.5],[1,0.5]];portConstraint=eastwest;whiteSpace=wrap;html=1;" vertex="1" parent="2ocZ62xKFfvnmyU5Oems-69">
          <mxGeometry y="104" width="140" height="26" as="geometry" />
        </mxCell>
        <mxCell id="2ocZ62xKFfvnmyU5Oems-74" value="IYachtRaceSailingRepository" style="swimlane;fontStyle=0;childLayout=stackLayout;horizontal=1;startSize=26;fillColor=none;horizontalStack=0;resizeParent=1;resizeParentMax=0;resizeLast=0;collapsible=1;marginBottom=0;whiteSpace=wrap;html=1;" vertex="1" parent="1">
          <mxGeometry x="1010" y="578" width="170" height="130" as="geometry" />
        </mxCell>
        <mxCell id="2ocZ62xKFfvnmyU5Oems-75" value="+ create()" style="text;strokeColor=none;fillColor=none;align=left;verticalAlign=top;spacingLeft=4;spacingRight=4;overflow=hidden;rotatable=0;points=[[0,0.5],[1,0.5]];portConstraint=eastwest;whiteSpace=wrap;html=1;" vertex="1" parent="2ocZ62xKFfvnmyU5Oems-74">
          <mxGeometry y="26" width="170" height="26" as="geometry" />
        </mxCell>
        <mxCell id="2ocZ62xKFfvnmyU5Oems-76" value="+ delete()" style="text;strokeColor=none;fillColor=none;align=left;verticalAlign=top;spacingLeft=4;spacingRight=4;overflow=hidden;rotatable=0;points=[[0,0.5],[1,0.5]];portConstraint=eastwest;whiteSpace=wrap;html=1;" vertex="1" parent="2ocZ62xKFfvnmyU5Oems-74">
          <mxGeometry y="52" width="170" height="26" as="geometry" />
        </mxCell>
        <mxCell id="2ocZ62xKFfvnmyU5Oems-77" value="+ update()" style="text;strokeColor=none;fillColor=none;align=left;verticalAlign=top;spacingLeft=4;spacingRight=4;overflow=hidden;rotatable=0;points=[[0,0.5],[1,0.5]];portConstraint=eastwest;whiteSpace=wrap;html=1;" vertex="1" parent="2ocZ62xKFfvnmyU5Oems-74">
          <mxGeometry y="78" width="170" height="26" as="geometry" />
        </mxCell>
        <mxCell id="2ocZ62xKFfvnmyU5Oems-78" value="+ getYachtRaceByID()" style="text;strokeColor=none;fillColor=none;align=left;verticalAlign=top;spacingLeft=4;spacingRight=4;overflow=hidden;rotatable=0;points=[[0,0.5],[1,0.5]];portConstraint=eastwest;whiteSpace=wrap;html=1;" vertex="1" parent="2ocZ62xKFfvnmyU5Oems-74">
          <mxGeometry y="104" width="170" height="26" as="geometry" />
        </mxCell>
        <mxCell id="2ocZ62xKFfvnmyU5Oems-79" value="IProtestRepository" style="swimlane;fontStyle=0;childLayout=stackLayout;horizontal=1;startSize=26;fillColor=none;horizontalStack=0;resizeParent=1;resizeParentMax=0;resizeLast=0;collapsible=1;marginBottom=0;whiteSpace=wrap;html=1;" vertex="1" parent="1">
          <mxGeometry x="1209" y="578" width="140" height="130" as="geometry" />
        </mxCell>
        <mxCell id="2ocZ62xKFfvnmyU5Oems-80" value="+ create()" style="text;strokeColor=none;fillColor=none;align=left;verticalAlign=top;spacingLeft=4;spacingRight=4;overflow=hidden;rotatable=0;points=[[0,0.5],[1,0.5]];portConstraint=eastwest;whiteSpace=wrap;html=1;" vertex="1" parent="2ocZ62xKFfvnmyU5Oems-79">
          <mxGeometry y="26" width="140" height="26" as="geometry" />
        </mxCell>
        <mxCell id="2ocZ62xKFfvnmyU5Oems-81" value="+ update()" style="text;strokeColor=none;fillColor=none;align=left;verticalAlign=top;spacingLeft=4;spacingRight=4;overflow=hidden;rotatable=0;points=[[0,0.5],[1,0.5]];portConstraint=eastwest;whiteSpace=wrap;html=1;" vertex="1" parent="2ocZ62xKFfvnmyU5Oems-79">
          <mxGeometry y="52" width="140" height="26" as="geometry" />
        </mxCell>
        <mxCell id="2ocZ62xKFfvnmyU5Oems-82" value="+ delete()" style="text;strokeColor=none;fillColor=none;align=left;verticalAlign=top;spacingLeft=4;spacingRight=4;overflow=hidden;rotatable=0;points=[[0,0.5],[1,0.5]];portConstraint=eastwest;whiteSpace=wrap;html=1;" vertex="1" parent="2ocZ62xKFfvnmyU5Oems-79">
          <mxGeometry y="78" width="140" height="26" as="geometry" />
        </mxCell>
        <mxCell id="2ocZ62xKFfvnmyU5Oems-83" value="+ getProtestByID()" style="text;strokeColor=none;fillColor=none;align=left;verticalAlign=top;spacingLeft=4;spacingRight=4;overflow=hidden;rotatable=0;points=[[0,0.5],[1,0.5]];portConstraint=eastwest;whiteSpace=wrap;html=1;" vertex="1" parent="2ocZ62xKFfvnmyU5Oems-79">
          <mxGeometry y="104" width="140" height="26" as="geometry" />
        </mxCell>
        <mxCell id="2ocZ62xKFfvnmyU5Oems-84" value="IRatingRepository" style="swimlane;fontStyle=0;childLayout=stackLayout;horizontal=1;startSize=26;fillColor=none;horizontalStack=0;resizeParent=1;resizeParentMax=0;resizeLast=0;collapsible=1;marginBottom=0;whiteSpace=wrap;html=1;" vertex="1" parent="1">
          <mxGeometry x="640" y="838" width="170" height="130" as="geometry" />
        </mxCell>
        <mxCell id="2ocZ62xKFfvnmyU5Oems-85" value="+ create()" style="text;strokeColor=none;fillColor=none;align=left;verticalAlign=top;spacingLeft=4;spacingRight=4;overflow=hidden;rotatable=0;points=[[0,0.5],[1,0.5]];portConstraint=eastwest;whiteSpace=wrap;html=1;" vertex="1" parent="2ocZ62xKFfvnmyU5Oems-84">
          <mxGeometry y="26" width="170" height="26" as="geometry" />
        </mxCell>
        <mxCell id="2ocZ62xKFfvnmyU5Oems-86" value="+ delete()" style="text;strokeColor=none;fillColor=none;align=left;verticalAlign=top;spacingLeft=4;spacingRight=4;overflow=hidden;rotatable=0;points=[[0,0.5],[1,0.5]];portConstraint=eastwest;whiteSpace=wrap;html=1;" vertex="1" parent="2ocZ62xKFfvnmyU5Oems-84">
          <mxGeometry y="52" width="170" height="26" as="geometry" />
        </mxCell>
        <mxCell id="2ocZ62xKFfvnmyU5Oems-87" value="+ update()" style="text;strokeColor=none;fillColor=none;align=left;verticalAlign=top;spacingLeft=4;spacingRight=4;overflow=hidden;rotatable=0;points=[[0,0.5],[1,0.5]];portConstraint=eastwest;whiteSpace=wrap;html=1;" vertex="1" parent="2ocZ62xKFfvnmyU5Oems-84">
          <mxGeometry y="78" width="170" height="26" as="geometry" />
        </mxCell>
        <mxCell id="2ocZ62xKFfvnmyU5Oems-88" value="+ getRatingByID()" style="text;strokeColor=none;fillColor=none;align=left;verticalAlign=top;spacingLeft=4;spacingRight=4;overflow=hidden;rotatable=0;points=[[0,0.5],[1,0.5]];portConstraint=eastwest;whiteSpace=wrap;html=1;" vertex="1" parent="2ocZ62xKFfvnmyU5Oems-84">
          <mxGeometry y="104" width="170" height="26" as="geometry" />
        </mxCell>
        <mxCell id="2ocZ62xKFfvnmyU5Oems-89" value="IRaceRepository" style="swimlane;fontStyle=0;childLayout=stackLayout;horizontal=1;startSize=26;fillColor=none;horizontalStack=0;resizeParent=1;resizeParentMax=0;resizeLast=0;collapsible=1;marginBottom=0;whiteSpace=wrap;html=1;" vertex="1" parent="1">
          <mxGeometry x="840" y="838" width="140" height="130" as="geometry" />
        </mxCell>
        <mxCell id="2ocZ62xKFfvnmyU5Oems-90" value="+ update()" style="text;strokeColor=none;fillColor=none;align=left;verticalAlign=top;spacingLeft=4;spacingRight=4;overflow=hidden;rotatable=0;points=[[0,0.5],[1,0.5]];portConstraint=eastwest;whiteSpace=wrap;html=1;" vertex="1" parent="2ocZ62xKFfvnmyU5Oems-89">
          <mxGeometry y="26" width="140" height="26" as="geometry" />
        </mxCell>
        <mxCell id="2ocZ62xKFfvnmyU5Oems-91" value="+ delete()" style="text;strokeColor=none;fillColor=none;align=left;verticalAlign=top;spacingLeft=4;spacingRight=4;overflow=hidden;rotatable=0;points=[[0,0.5],[1,0.5]];portConstraint=eastwest;whiteSpace=wrap;html=1;" vertex="1" parent="2ocZ62xKFfvnmyU5Oems-89">
          <mxGeometry y="52" width="140" height="26" as="geometry" />
        </mxCell>
        <mxCell id="2ocZ62xKFfvnmyU5Oems-92" value="+ create()" style="text;strokeColor=none;fillColor=none;align=left;verticalAlign=top;spacingLeft=4;spacingRight=4;overflow=hidden;rotatable=0;points=[[0,0.5],[1,0.5]];portConstraint=eastwest;whiteSpace=wrap;html=1;" vertex="1" parent="2ocZ62xKFfvnmyU5Oems-89">
          <mxGeometry y="78" width="140" height="26" as="geometry" />
        </mxCell>
        <mxCell id="2ocZ62xKFfvnmyU5Oems-93" value="+ getRaceByID()" style="text;strokeColor=none;fillColor=none;align=left;verticalAlign=top;spacingLeft=4;spacingRight=4;overflow=hidden;rotatable=0;points=[[0,0.5],[1,0.5]];portConstraint=eastwest;whiteSpace=wrap;html=1;" vertex="1" parent="2ocZ62xKFfvnmyU5Oems-89">
          <mxGeometry y="104" width="140" height="26" as="geometry" />
        </mxCell>
        <mxCell id="2ocZ62xKFfvnmyU5Oems-94" value="IYachtRaceSailingRepository" style="swimlane;fontStyle=0;childLayout=stackLayout;horizontal=1;startSize=26;fillColor=none;horizontalStack=0;resizeParent=1;resizeParentMax=0;resizeLast=0;collapsible=1;marginBottom=0;whiteSpace=wrap;html=1;" vertex="1" parent="1">
          <mxGeometry x="1010" y="838" width="170" height="130" as="geometry" />
        </mxCell>
        <mxCell id="2ocZ62xKFfvnmyU5Oems-95" value="+ create()" style="text;strokeColor=none;fillColor=none;align=left;verticalAlign=top;spacingLeft=4;spacingRight=4;overflow=hidden;rotatable=0;points=[[0,0.5],[1,0.5]];portConstraint=eastwest;whiteSpace=wrap;html=1;" vertex="1" parent="2ocZ62xKFfvnmyU5Oems-94">
          <mxGeometry y="26" width="170" height="26" as="geometry" />
        </mxCell>
        <mxCell id="2ocZ62xKFfvnmyU5Oems-96" value="+ delete()" style="text;strokeColor=none;fillColor=none;align=left;verticalAlign=top;spacingLeft=4;spacingRight=4;overflow=hidden;rotatable=0;points=[[0,0.5],[1,0.5]];portConstraint=eastwest;whiteSpace=wrap;html=1;" vertex="1" parent="2ocZ62xKFfvnmyU5Oems-94">
          <mxGeometry y="52" width="170" height="26" as="geometry" />
        </mxCell>
        <mxCell id="2ocZ62xKFfvnmyU5Oems-97" value="+ update()" style="text;strokeColor=none;fillColor=none;align=left;verticalAlign=top;spacingLeft=4;spacingRight=4;overflow=hidden;rotatable=0;points=[[0,0.5],[1,0.5]];portConstraint=eastwest;whiteSpace=wrap;html=1;" vertex="1" parent="2ocZ62xKFfvnmyU5Oems-94">
          <mxGeometry y="78" width="170" height="26" as="geometry" />
        </mxCell>
        <mxCell id="2ocZ62xKFfvnmyU5Oems-98" value="+ getYachtRaceByID()" style="text;strokeColor=none;fillColor=none;align=left;verticalAlign=top;spacingLeft=4;spacingRight=4;overflow=hidden;rotatable=0;points=[[0,0.5],[1,0.5]];portConstraint=eastwest;whiteSpace=wrap;html=1;" vertex="1" parent="2ocZ62xKFfvnmyU5Oems-94">
          <mxGeometry y="104" width="170" height="26" as="geometry" />
        </mxCell>
        <mxCell id="2ocZ62xKFfvnmyU5Oems-99" value="IProtestRepository" style="swimlane;fontStyle=0;childLayout=stackLayout;horizontal=1;startSize=26;fillColor=none;horizontalStack=0;resizeParent=1;resizeParentMax=0;resizeLast=0;collapsible=1;marginBottom=0;whiteSpace=wrap;html=1;" vertex="1" parent="1">
          <mxGeometry x="1210" y="838" width="140" height="130" as="geometry" />
        </mxCell>
        <mxCell id="2ocZ62xKFfvnmyU5Oems-100" value="+ create()" style="text;strokeColor=none;fillColor=none;align=left;verticalAlign=top;spacingLeft=4;spacingRight=4;overflow=hidden;rotatable=0;points=[[0,0.5],[1,0.5]];portConstraint=eastwest;whiteSpace=wrap;html=1;" vertex="1" parent="2ocZ62xKFfvnmyU5Oems-99">
          <mxGeometry y="26" width="140" height="26" as="geometry" />
        </mxCell>
        <mxCell id="2ocZ62xKFfvnmyU5Oems-101" value="+ update()" style="text;strokeColor=none;fillColor=none;align=left;verticalAlign=top;spacingLeft=4;spacingRight=4;overflow=hidden;rotatable=0;points=[[0,0.5],[1,0.5]];portConstraint=eastwest;whiteSpace=wrap;html=1;" vertex="1" parent="2ocZ62xKFfvnmyU5Oems-99">
          <mxGeometry y="52" width="140" height="26" as="geometry" />
        </mxCell>
        <mxCell id="2ocZ62xKFfvnmyU5Oems-102" value="+ delete()" style="text;strokeColor=none;fillColor=none;align=left;verticalAlign=top;spacingLeft=4;spacingRight=4;overflow=hidden;rotatable=0;points=[[0,0.5],[1,0.5]];portConstraint=eastwest;whiteSpace=wrap;html=1;" vertex="1" parent="2ocZ62xKFfvnmyU5Oems-99">
          <mxGeometry y="78" width="140" height="26" as="geometry" />
        </mxCell>
        <mxCell id="2ocZ62xKFfvnmyU5Oems-103" value="+ getProtestByID()" style="text;strokeColor=none;fillColor=none;align=left;verticalAlign=top;spacingLeft=4;spacingRight=4;overflow=hidden;rotatable=0;points=[[0,0.5],[1,0.5]];portConstraint=eastwest;whiteSpace=wrap;html=1;" vertex="1" parent="2ocZ62xKFfvnmyU5Oems-99">
          <mxGeometry y="104" width="140" height="26" as="geometry" />
        </mxCell>
        <mxCell id="2ocZ62xKFfvnmyU5Oems-108" value="" style="endArrow=block;dashed=1;endFill=0;endSize=12;html=1;rounded=0;exitX=0.5;exitY=0;exitDx=0;exitDy=0;" edge="1" parent="1" source="S8wDH4NiLYc3P9s00ByU-1" target="djYnsQmjDLLJH66xJvrr-4">
          <mxGeometry width="160" relative="1" as="geometry">
            <mxPoint x="410" y="328" as="sourcePoint" />
            <mxPoint x="570" y="328" as="targetPoint" />
          </mxGeometry>
        </mxCell>
        <mxCell id="2ocZ62xKFfvnmyU5Oems-109" value="" style="endArrow=block;dashed=1;endFill=0;endSize=12;html=1;rounded=0;exitX=0.5;exitY=0;exitDx=0;exitDy=0;" edge="1" parent="1">
          <mxGeometry width="160" relative="1" as="geometry">
            <mxPoint x="523" y="378" as="sourcePoint" />
            <mxPoint x="523" y="318" as="targetPoint" />
          </mxGeometry>
        </mxCell>
        <mxCell id="2ocZ62xKFfvnmyU5Oems-110" value="" style="endArrow=block;dashed=1;endFill=0;endSize=12;html=1;rounded=0;exitX=0.5;exitY=0;exitDx=0;exitDy=0;" edge="1" parent="1" source="2ocZ62xKFfvnmyU5Oems-44">
          <mxGeometry width="160" relative="1" as="geometry">
            <mxPoint x="533" y="388" as="sourcePoint" />
            <mxPoint x="720" y="318" as="targetPoint" />
          </mxGeometry>
        </mxCell>
        <mxCell id="2ocZ62xKFfvnmyU5Oems-111" value="" style="endArrow=block;dashed=1;endFill=0;endSize=12;html=1;rounded=0;exitX=0.5;exitY=0;exitDx=0;exitDy=0;" edge="1" parent="1" source="2ocZ62xKFfvnmyU5Oems-49" target="2ocZ62xKFfvnmyU5Oems-19">
          <mxGeometry width="160" relative="1" as="geometry">
            <mxPoint x="730" y="388" as="sourcePoint" />
            <mxPoint x="730" y="328" as="targetPoint" />
          </mxGeometry>
        </mxCell>
        <mxCell id="2ocZ62xKFfvnmyU5Oems-112" value="" style="endArrow=block;dashed=1;endFill=0;endSize=12;html=1;rounded=0;exitX=0.5;exitY=0;exitDx=0;exitDy=0;entryX=0.495;entryY=1.023;entryDx=0;entryDy=0;entryPerimeter=0;" edge="1" parent="1" source="2ocZ62xKFfvnmyU5Oems-54" target="2ocZ62xKFfvnmyU5Oems-35">
          <mxGeometry width="160" relative="1" as="geometry">
            <mxPoint x="920" y="388" as="sourcePoint" />
            <mxPoint x="920" y="328" as="targetPoint" />
          </mxGeometry>
        </mxCell>
        <mxCell id="2ocZ62xKFfvnmyU5Oems-113" value="" style="endArrow=block;dashed=1;endFill=0;endSize=12;html=1;rounded=0;exitX=0.5;exitY=0;exitDx=0;exitDy=0;entryX=0.487;entryY=0.992;entryDx=0;entryDy=0;entryPerimeter=0;" edge="1" parent="1" source="2ocZ62xKFfvnmyU5Oems-59" target="2ocZ62xKFfvnmyU5Oems-43">
          <mxGeometry width="160" relative="1" as="geometry">
            <mxPoint x="1095" y="388" as="sourcePoint" />
            <mxPoint x="1094" y="329" as="targetPoint" />
          </mxGeometry>
        </mxCell>
        <mxCell id="2ocZ62xKFfvnmyU5Oems-114" value="" style="endArrow=block;dashed=1;endFill=0;endSize=12;html=1;rounded=0;entryX=0.5;entryY=0;entryDx=0;entryDy=0;exitX=0.561;exitY=1.008;exitDx=0;exitDy=0;exitPerimeter=0;" edge="1" parent="1" source="2ocZ62xKFfvnmyU5Oems-63" target="2ocZ62xKFfvnmyU5Oems-79">
          <mxGeometry width="160" relative="1" as="geometry">
            <mxPoint x="1280" y="388" as="sourcePoint" />
            <mxPoint x="1278" y="328" as="targetPoint" />
          </mxGeometry>
        </mxCell>
        <mxCell id="2ocZ62xKFfvnmyU5Oems-115" value="" style="endArrow=block;dashed=1;endFill=0;endSize=12;html=1;rounded=0;entryX=0.5;entryY=0;entryDx=0;entryDy=0;exitX=0.561;exitY=1.008;exitDx=0;exitDy=0;exitPerimeter=0;" edge="1" parent="1">
          <mxGeometry width="160" relative="1" as="geometry">
            <mxPoint x="1084.5" y="508" as="sourcePoint" />
            <mxPoint x="1084.5" y="578" as="targetPoint" />
          </mxGeometry>
        </mxCell>
        <mxCell id="2ocZ62xKFfvnmyU5Oems-116" value="" style="endArrow=block;dashed=1;endFill=0;endSize=12;html=1;rounded=0;entryX=0.5;entryY=0;entryDx=0;entryDy=0;exitX=0.561;exitY=1.008;exitDx=0;exitDy=0;exitPerimeter=0;" edge="1" parent="1">
          <mxGeometry width="160" relative="1" as="geometry">
            <mxPoint x="909.5" y="508" as="sourcePoint" />
            <mxPoint x="909.5" y="578" as="targetPoint" />
          </mxGeometry>
        </mxCell>
        <mxCell id="2ocZ62xKFfvnmyU5Oems-117" value="" style="endArrow=block;dashed=1;endFill=0;endSize=12;html=1;rounded=0;entryX=0.5;entryY=0;entryDx=0;entryDy=0;exitX=0.561;exitY=1.008;exitDx=0;exitDy=0;exitPerimeter=0;" edge="1" parent="1">
          <mxGeometry width="160" relative="1" as="geometry">
            <mxPoint x="719.5" y="509" as="sourcePoint" />
            <mxPoint x="719.5" y="579" as="targetPoint" />
          </mxGeometry>
        </mxCell>
        <mxCell id="2ocZ62xKFfvnmyU5Oems-118" value="" style="endArrow=block;dashed=1;endFill=0;endSize=12;html=1;rounded=0;entryX=0.5;entryY=0;entryDx=0;entryDy=0;exitX=0.561;exitY=1.008;exitDx=0;exitDy=0;exitPerimeter=0;" edge="1" parent="1">
          <mxGeometry width="160" relative="1" as="geometry">
            <mxPoint x="520" y="508" as="sourcePoint" />
            <mxPoint x="520" y="578" as="targetPoint" />
          </mxGeometry>
        </mxCell>
        <mxCell id="2ocZ62xKFfvnmyU5Oems-119" value="" style="endArrow=block;dashed=1;endFill=0;endSize=12;html=1;rounded=0;entryX=0.5;entryY=0;entryDx=0;entryDy=0;exitX=0.561;exitY=1.008;exitDx=0;exitDy=0;exitPerimeter=0;" edge="1" parent="1">
          <mxGeometry width="160" relative="1" as="geometry">
            <mxPoint x="339.5" y="508" as="sourcePoint" />
            <mxPoint x="339.5" y="578" as="targetPoint" />
          </mxGeometry>
        </mxCell>
        <mxCell id="2ocZ62xKFfvnmyU5Oems-120" value="" style="endArrow=block;dashed=1;endFill=0;endSize=12;html=1;rounded=0;entryX=0.467;entryY=1.038;entryDx=0;entryDy=0;entryPerimeter=0;" edge="1" parent="1" source="djYnsQmjDLLJH66xJvrr-13" target="djYnsQmjDLLJH66xJvrr-28">
          <mxGeometry width="160" relative="1" as="geometry">
            <mxPoint x="349.5" y="588" as="sourcePoint" />
            <mxPoint x="349.5" y="518" as="targetPoint" />
          </mxGeometry>
        </mxCell>
        <mxCell id="2ocZ62xKFfvnmyU5Oems-121" value="" style="endArrow=block;dashed=1;endFill=0;endSize=12;html=1;rounded=0;exitX=0.5;exitY=0;exitDx=0;exitDy=0;entryX=0.47;entryY=1.085;entryDx=0;entryDy=0;entryPerimeter=0;" edge="1" parent="1" source="djYnsQmjDLLJH66xJvrr-17" target="2ocZ62xKFfvnmyU5Oems-11">
          <mxGeometry width="160" relative="1" as="geometry">
            <mxPoint x="529.5" y="837" as="sourcePoint" />
            <mxPoint x="528.5" y="708" as="targetPoint" />
          </mxGeometry>
        </mxCell>
        <mxCell id="2ocZ62xKFfvnmyU5Oems-122" value="" style="endArrow=block;dashed=1;endFill=0;endSize=12;html=1;rounded=0;exitX=0.467;exitY=1.038;exitDx=0;exitDy=0;exitPerimeter=0;" edge="1" parent="1">
          <mxGeometry width="160" relative="1" as="geometry">
            <mxPoint x="720.5" y="837" as="sourcePoint" />
            <mxPoint x="719.5" y="708" as="targetPoint" />
          </mxGeometry>
        </mxCell>
        <mxCell id="2ocZ62xKFfvnmyU5Oems-123" value="" style="endArrow=block;dashed=1;endFill=0;endSize=12;html=1;rounded=0;exitX=0.467;exitY=1.038;exitDx=0;exitDy=0;exitPerimeter=0;" edge="1" parent="1">
          <mxGeometry width="160" relative="1" as="geometry">
            <mxPoint x="910.5" y="838" as="sourcePoint" />
            <mxPoint x="909.5" y="709" as="targetPoint" />
          </mxGeometry>
        </mxCell>
        <mxCell id="2ocZ62xKFfvnmyU5Oems-124" value="" style="endArrow=block;dashed=1;endFill=0;endSize=12;html=1;rounded=0;exitX=0.467;exitY=1.038;exitDx=0;exitDy=0;exitPerimeter=0;" edge="1" parent="1">
          <mxGeometry width="160" relative="1" as="geometry">
            <mxPoint x="1085.5" y="838" as="sourcePoint" />
            <mxPoint x="1084.5" y="709" as="targetPoint" />
          </mxGeometry>
        </mxCell>
        <mxCell id="2ocZ62xKFfvnmyU5Oems-125" value="" style="endArrow=block;dashed=1;endFill=0;endSize=12;html=1;rounded=0;exitX=0.467;exitY=1.038;exitDx=0;exitDy=0;exitPerimeter=0;" edge="1" parent="1">
          <mxGeometry width="160" relative="1" as="geometry">
            <mxPoint x="1280.5" y="837" as="sourcePoint" />
            <mxPoint x="1279.5" y="708" as="targetPoint" />
          </mxGeometry>
        </mxCell>
        <mxCell id="2ocZ62xKFfvnmyU5Oems-126" value="BL" style="text;html=1;align=center;verticalAlign=middle;resizable=0;points=[];autosize=1;strokeColor=none;fillColor=none;" vertex="1" parent="1">
          <mxGeometry x="240" y="140" width="40" height="30" as="geometry" />
        </mxCell>
        <mxCell id="2ocZ62xKFfvnmyU5Oems-127" value="DA" style="text;html=1;align=center;verticalAlign=middle;resizable=0;points=[];autosize=1;strokeColor=none;fillColor=none;" vertex="1" parent="1">
          <mxGeometry x="230" y="770" width="40" height="30" as="geometry" />
        </mxCell>
      </root>
    </mxGraphModel>
  </diagram>
  <diagram id="654ZUSSC5NgKrdo1-O9b" name="Страница — 5">
    <mxGraphModel dx="1290" dy="1838" grid="1" gridSize="10" guides="1" tooltips="1" connect="1" arrows="1" fold="1" page="1" pageScale="1" pageWidth="827" pageHeight="1169" math="0" shadow="0">
      <root>
        <mxCell id="0" />
        <mxCell id="1" parent="0" />
        <mxCell id="ysv45ACOa8nAKxe8tJHw-1" value="спутник" style="rounded=0;whiteSpace=wrap;html=1;" vertex="1" parent="1">
          <mxGeometry x="210" y="310" width="120" height="60" as="geometry" />
        </mxCell>
        <mxCell id="ysv45ACOa8nAKxe8tJHw-2" value="снимок" style="rounded=0;whiteSpace=wrap;html=1;" vertex="1" parent="1">
          <mxGeometry x="210" y="460" width="120" height="60" as="geometry" />
        </mxCell>
        <mxCell id="ysv45ACOa8nAKxe8tJHw-3" value="сообщение" style="rounded=0;whiteSpace=wrap;html=1;" vertex="1" parent="1">
          <mxGeometry x="210" y="130" width="120" height="60" as="geometry" />
        </mxCell>
        <mxCell id="FGLLymMaYPG-FNghxYQC-1" value="приемная станция" style="rounded=0;whiteSpace=wrap;html=1;" vertex="1" parent="1">
          <mxGeometry x="380" y="230" width="120" height="60" as="geometry" />
        </mxCell>
        <mxCell id="FGLLymMaYPG-FNghxYQC-2" value="объём данных" style="ellipse;whiteSpace=wrap;html=1;" vertex="1" parent="1">
          <mxGeometry x="200" y="40" width="120" height="50" as="geometry" />
        </mxCell>
        <mxCell id="FGLLymMaYPG-FNghxYQC-3" value="тип данных" style="ellipse;whiteSpace=wrap;html=1;" vertex="1" parent="1">
          <mxGeometry x="200" y="-60" width="120" height="80" as="geometry" />
        </mxCell>
        <mxCell id="FGLLymMaYPG-FNghxYQC-4" value="" style="ellipse;whiteSpace=wrap;html=1;" vertex="1" parent="1">
          <mxGeometry x="200" y="-150" width="120" height="80" as="geometry" />
        </mxCell>
      </root>
    </mxGraphModel>
  </diagram>
</mxfile>
